<?xml version="1.0" standalone="no"?>
<!DOCTYPE svg PUBLIC "-//W3C//DTD SVG 1.1//EN" "http://www.w3.org/Graphics/SVG/1.1/DTD/svg11.dtd" >
<svg xmlns="http://www.w3.org/2000/svg" xmlns:xlink="http://www.w3.org/1999/xlink" version="1.1">
<metadata></metadata>
<defs>
<font id="brasspounderregular" horiz-adv-x="1365" >
<font-face units-per-em="2048" ascent="1638" descent="-410" />
<missing-glyph horiz-adv-x="536" />
<glyph horiz-adv-x="0" />
<glyph unicode="&#xd;" horiz-adv-x="380" />
<glyph unicode=" "  horiz-adv-x="536" />
<glyph unicode="&#x09;" horiz-adv-x="536" />
<glyph unicode="&#xa0;" horiz-adv-x="536" />
<glyph unicode="!" horiz-adv-x="731" d="M0 1288l29 63l447 155l62 -29q-81 -161 -126.5 -519t-45.5 -505l-174 1q-16 146 -50.5 446t-141.5 388zM73 158.5q0 45.5 36.5 114t158.5 68.5t158.5 -68.5t36.5 -114t-36.5 -114t-158.5 -68.5t-158.5 68.5t-36.5 114z" />
<glyph unicode="&#x22;" horiz-adv-x="975" d="M0 1463q98 73 171 73t170 -73q-73 -137 -97 -488h-146q-24 351 -98 488zM439 1463q98 73 171 73t170 -73q-73 -137 -97 -488h-147q-24 351 -97 488z" />
<glyph unicode="#" horiz-adv-x="1584" d="M0 488l49 48h258q73 224 112 390h-248q0 73 -49 98l49 49h297q44 215 78 390h195l49 -49q-78 -176 -141 -341h307q54 219 78 390h195l49 -49q-88 -195 -142 -341h205q0 -73 49 -98l-49 -49h-258q-63 -195 -122 -390h258q0 -73 49 -97l-49 -49h-297q-54 -195 -83 -390 h-195l-49 49q88 190 141 341h-302q-39 -166 -83 -390h-195l-49 49q83 190 142 341h-200q0 73 -49 98zM473 536h317q73 195 122 390h-317q-68 -195 -122 -390z" />
<glyph unicode="$" horiz-adv-x="1038" d="M0 390q49 73 49 293h97q98 -244 244 -244q200 0 210 134t-252 219.5t-293 246.5t49.5 265.5t236.5 133.5q0 122 -48 171l43 49h205l49 -49q-49 -49 -54 -171q132 0 347 -73q-49 -24 -49 -292h-98q-98 244 -248 244q-195 0 -197.5 -129.5t292.5 -215t302 -290t-98 -285 t-251 -80.5q0 -122 49 -171l-49 -48h-195l-48 48q49 49 48 171q-59 0 -341 73z" />
<glyph unicode="%" horiz-adv-x="1609" d="M0 1048q0 122 85.5 268.5t256 146.5t256.5 -146q250 -10 328 97h293l49 -49q-556 -756 -780 -1463h-293l-49 49q439 624 693 1197q-102 -21 -129 -121.5t-112.5 -246.5t-256 -146t-256 146t-85.5 268zM268 1048.5q0 -243.5 73 -243.5t73 243.5t-73 243.5t-73 -243.5z M731 268q0 122 85.5 268.5t256 146.5t256 -146.5t85.5 -268.5t-85.5 -268t-255.5 -146q-171 0 -256.5 146t-85.5 268zM1000 268q0 -244 73 -244t73 244t-73 244t-73 -244z" />
<glyph unicode="&#x26;" horiz-adv-x="1316" d="M24 439q0 244 244 439q-195 98 -195 250t110 255.5t378 103.5q249 0 463 -73q-49 -73 -49 -341h-97q-98 244 -268 244q-219 0 -219.5 -195.5t243.5 -185.5v-131q-244 -73 -244 -366t220 -293q122 0 121.5 146.5t-97.5 341.5l49 49h390l49 -49q-98 -195 -98 -353.5 t49 -231.5q-332 -73 -512 -73q-268 0 -402.5 109.5t-134.5 353.5z" />
<glyph unicode="'" horiz-adv-x="438" d="M0 1424q86 176 288 136q112 -448 -195 -643l-54 34q161 268 -39 473z" />
<glyph unicode="(" horiz-adv-x="633" d="M-24 780.5q0 341.5 109.5 585t353.5 389.5l49 -48q-98 -146 -98 -975.5t98 -975.5l-49 -49q-244 146 -353.5 439t-109.5 634.5z" />
<glyph unicode=")" horiz-adv-x="633" d="M0 -244q98 146 98 975.5t-98 975.5l49 48q244 -146 353.5 -438.5t109.5 -634t-109.5 -585t-353.5 -390.5z" />
<glyph unicode="*" horiz-adv-x="856" d="M0 1319l38 116l76 39q40 -76 157 -115q0 122 -61 183l61 61h121l61 -61q-61 -60 -61 -183q116 37 155 115l77 -39l37 -116l-39 -78q-76 40 -192 3q71 -99 157 -112l-14 -86l-98 -71l-86 14q14 85 -58 183q-71 -98 -58 -184l-86 -14l-98 72l-13 85q85 14 156 112 q-116 38 -193 -1z" />
<glyph unicode="+" horiz-adv-x="975" d="M0 488v195l49 48q49 -49 244 -48q0 195 -49 243l49 49h195l48 -49q-49 -49 -48 -243q195 0 243 48l49 -48v-195l-49 -49q-49 49 -243 49q0 -195 48 -244l-48 -49h-195l-49 49q49 49 49 244q-195 0 -244 -49z" />
<glyph unicode="," horiz-adv-x="570" d="M0 132q32 127 136 169t225 -4q78 -336 -229 -531l-54 34q122 180 -78 332z" />
<glyph unicode="-" horiz-adv-x="1121" d="M0 488q98 98 122 292q463 -98 756 0l48 -49q-98 -98 -121 -292q-463 98 -756 0z" />
<glyph unicode="." horiz-adv-x="585" d="M0 158.5q0 45.5 36.5 114t158.5 68.5t158.5 -68.5t36.5 -114t-36.5 -114t-158.5 -68.5t-158.5 68.5t-36.5 114z" />
<glyph unicode="/" horiz-adv-x="1024" d="M0 -49q536 805 780 1561h293l49 -49q-536 -756 -781 -1561h-292z" />
<glyph unicode="0" horiz-adv-x="1219" d="M0 609.5q0 219.5 134 426.5t402.5 207t402.5 -207t134 -426.5t-134 -426.5t-403 -207q-268 0 -402 207t-134 426.5zM365.5 609.5q-0.5 -463.5 170.5 -463.5t171 463.5t-170.5 463.5t-171 -463.5zM439 610q49 122 97.5 121.5t97.5 -121.5q-49 -122 -97.5 -122t-97.5 122z " />
<glyph unicode="1" horiz-adv-x="731" d="M0 49q98 146 98 487.5t-98 487.5l49 49q224 5 439 195l48 -49q-98 -146 -97.5 -585t97.5 -585l-48 -49h-439z" />
<glyph unicode="2" horiz-adv-x="1082" d="M0 0q0 488 322 670.5t317 317t-200 134.5q-151 0 -249 -244h-97q0 268 -49 341q215 73 444 73q244 0 353.5 -144t69 -353.5t-329 -326.5t-288.5 -273h253q195 0 293 195h97q0 -268 39 -390h-975z" />
<glyph unicode="3" horiz-adv-x="1165" d="M0 -98q49 73 49 342h88q107 -244 277 -244q219 0 219.5 268t-145.5 268q-83 0 -98 -48l-58 19l-39 200q317 -24 317 171t-196 195q-171 -5 -243 -249h-98q0 268 -49 341q215 73 439 78q268 0 378 -103.5t110 -256t-195 -249.5q244 -98 244 -341.5t-134.5 -353.5 t-402.5 -110q-180 0 -463 73z" />
<glyph unicode="4" horiz-adv-x="1243" d="M0 366q143 117 278 409.5t136 492.5q187 5 391 49l48 -49q-105 -229 -218.5 -421t-317.5 -408q215 -29 268 0q29 24 5 151l49 49q146 10 253 219l49 -49q-39 -68 -15 -370q49 0 98 24l122 -219l-49 -49q-85 49 -171 49q0 -49 98 -195l-49 -49h-439l-48 49q98 146 97 195 h-512z" />
<glyph unicode="5" horiz-adv-x="1194" d="M0 -98q49 73 49 342h97q98 -244 268 -244q219 0 219.5 326.5t-219.5 326.5q-171 0 -268 -141l-73 73q15 429 -24 634q439 -49 902 0q10 -176 -195.5 -224.5t-410.5 -57.5q-24 -67 -1 -155q36 37 119 42q268 0 402.5 -134t134.5 -363t-134.5 -363.5t-402.5 -134.5 q-180 0 -463 73z" />
<glyph unicode="6" horiz-adv-x="1170" d="M-24 614.5q0 360.5 219 555.5t488 244l34 -68q-107 -49 -219.5 -158.5t-151.5 -285.5q88 68 239 73q146 0 280.5 -107t134.5 -385t-134 -392.5t-378 -114.5t-378 139t-134 499.5zM341 439q1 -293 147 -293q73 0 121.5 97.5t48.5 256t-48.5 244t-121.5 85.5 q-98 0 -127 -105t-20 -285z" />
<glyph unicode="7" horiz-adv-x="1170" d="M0 829l146 390h829l49 -49q-29 -229 -215.5 -509.5t-203 -504.5t28.5 -302l-49 -49h-317l-49 49q-117 322 212.5 671.5t324.5 415.5q-112 -34 -334 14.5t-373 -175.5z" />
<glyph unicode="8" horiz-adv-x="1170" d="M-2.5 346q-2.5 195 207.5 307q-143 88 -169 241.5t83.5 275.5t353.5 122q273 -5 351 -119.5t49 -236.5t-137 -190q229 -93 239 -334t-165.5 -338.5t-336.5 -97.5q-205 0 -339 87.5t-136.5 282.5zM246.5 324.5q7.5 -153.5 177.5 -178.5q200 0 212 156.5t-207 263.5 q-190 -88 -182.5 -241.5zM326.5 1007q-0.5 -115 214.5 -188q127 78 124.5 190.5t-143.5 112.5q-195 0 -195.5 -115z" />
<glyph unicode="9" horiz-adv-x="1170" d="M-24 736q0 278 134 392.5t378 114.5t378 -139t134 -499.5t-219.5 -555.5t-487.5 -244l-35 68q107 49 219.5 158.5t151.5 285.5q-88 -68 -239 -73q-146 0 -280 107t-134 385zM317 719.5q0 -158.5 48.5 -244t122.5 -85.5q98 0 127 105t19 285q0 293 -146 293 q-73 0 -122 -97.5t-49 -256z" />
<glyph unicode=":" horiz-adv-x="585" d="M0 158.5q0 45.5 36.5 114t158.5 68.5t158.5 -68.5t36.5 -114t-36.5 -114t-158.5 -68.5t-158.5 68.5t-36.5 114zM0 743.5q0 45.5 36.5 114t158.5 68.5t158.5 -68.5t36.5 -114t-36.5 -114t-158.5 -68.5t-158.5 68.5t-36.5 114z" />
<glyph unicode=";" horiz-adv-x="585" d="M0 743.5q0 45.5 36.5 114t158.5 68.5t158.5 -68.5t36.5 -114t-36.5 -114t-158.5 -68.5t-158.5 68.5t-36.5 114zM10 132q32 127 136 169t225 -4q77 -336 -230 -531l-53 34q122 180 -78 332z" />
<glyph unicode="&#x3c;" horiz-adv-x="780" d="M0 390v293l536 292l49 -49q-195 -293 -390 -390q195 -98 390 -341l-49 -49z" />
<glyph unicode="=" horiz-adv-x="975" d="M0 341v195h780v-195l-49 -48q-49 49 -341 49t-341 -49zM0 634v195l49 49q49 -49 341.5 -49t340.5 49l49 -49v-195h-780z" />
<glyph unicode="&#x3e;" horiz-adv-x="780" d="M0 195q195 293 390 390q-195 98 -390 341l49 49l536 -244v-292l-536 -293z" />
<glyph unicode="?" horiz-adv-x="1072" d="M0 1414q215 73 444 73q244 0 353.5 -143.5t71.5 -353.5t-297.5 -285.5t-259.5 -126.5t117 -42l49 -48q-21 -49 -193.5 -49t-172.5 183t239 307t239 256t-195 132q-151 0 -249 -244h-97q0 268 -49 341zM98 158.5q0 45.5 36.5 114t158 68.5t158.5 -68.5t37 -114t-36.5 -114 t-158.5 -68.5t-158.5 68.5t-36.5 114z" />
<glyph unicode="@" horiz-adv-x="1804" d="M0 744q0 256 170.5 487.5t658.5 231.5q536 0 682.5 -219.5t146.5 -400t-61 -351t-280 -170.5q-195 0 -303 117q-63 -141 -234 -142q-219 0 -316.5 146.5t-97.5 305t97.5 305t316.5 146.5q171 0 268 -85q122 -86 220 11l49 -48q-98 -146 -98 -342q0 -268 73 -268t97.5 122 t24.5 266t-97.5 302.5t-487.5 158.5q-366 0 -475.5 -195.5t-109.5 -378t97.5 -365.5t321.5 -183q293 0 390 98l49 -49q-244 -244 -488 -244q-366 0 -490 244t-124 500zM658 748.5q0 -280.5 122 -280.5q146 0 146 280.5t-146 280.5q-122 0 -122 -280.5z" />
<glyph unicode="A" d="M0 24q268 366 390 1063q-24 51 -156 98l10 83l487 219q229 -683 407.5 -1034t226.5 -404l-48 -49h-439l-49 49q24 40 24.5 72.5t-24.5 58.5q-37 14 -85 14q-192 0 -559 -218h-136zM400 322q162 50 264 51q66 0 106 -22q-127 254 -243 478q-64 -351 -127 -507z" />
<glyph unicode="B" d="M0 49q98 146 98 682.5t-98 682.5l49 49h585q195 0 329 -97.5t134 -280.5t-192 -324q290 -102 290 -322t-188 -329.5t-373 -109.5h-585zM488 146h97q195 34 195 236.5t-127 256.5q-73 -24 -165 -54v-439zM488 731q195 122 195 329.5t-195 256.5v-586z" />
<glyph unicode="C" horiz-adv-x="1170" d="M-24 731.5q0 292.5 158.5 524t426.5 231.5q249 0 463 -73q-49 -73 -49 -341h-97q-98 244 -268 244q-220 0 -220 -588q0 -583 220 -583q171 0 268 244h97q0 -268 49 -341q-283 -73 -463 -73q-268 0 -426.5 231.5t-158.5 524z" />
<glyph unicode="D" horiz-adv-x="1316" d="M0 49q98 146 98 682.5t-98 682.5l49 49h585q195 0 353.5 -219.5t158.5 -512t-158.5 -512t-353.5 -219.5h-585zM488 146q243 49 243 585.5t-243 585.5v-1171z" />
<glyph unicode="E" horiz-adv-x="1267" d="M0 49q98 146 98 682.5t-98 682.5l49 49h877l147 -390l-49 -49q-219 244 -536 244v-463q244 0 341 195l49 -25l-98 -487l-49 -25q-98 195 -243 195v-463q317 0 536 244l49 -49l-147 -390h-877z" />
<glyph unicode="F" horiz-adv-x="1219" d="M0 49q98 146 98 682.5t-98 682.5l49 49h877l147 -390l-49 -49q-224 244 -536 244v-463q244 0 341 195l49 -25l-98 -487l-49 -25q-98 195 -243 195q0 -463 97 -609l-49 -49h-487z" />
<glyph unicode="G" d="M-24 731.5q0 292.5 158.5 524t426.5 231.5q249 0 463 -73q-49 -73 -49 -341h-97q-98 244 -268 244q-220 0 -220 -588q0 -583 220 -583q122 0 122 170q0 171 -98 367l49 48h439l48 -48q-98 -194 -98 -376q0 -184 50 -258q-381 -73 -561 -73q-268 0 -426.5 231.5 t-158.5 524z" />
<glyph unicode="H" horiz-adv-x="1524" d="M0 49q98 146 98 682.5t-98 682.5l49 49h487l49 -49q-97 -145 -97 -553v-8q98 -25 195 -25l195 25q0 414 -98 561l49 49h488l48 -49q-98 -145 -98 -677q1 -3 1 -5q0 -536 97 -683l-48 -49h-488l-49 49q98 146 98 561q-98 24 -195 24l-195 -24q0 -414 97 -561l-49 -49h-487 z" />
<glyph unicode="I" horiz-adv-x="780" d="M0 49q98 146 98 682.5t-98 682.5l49 49h487l49 -49q-98 -145 -98 -677q1 -3 1 -5q0 -536 97 -683l-49 -49h-487z" />
<glyph unicode="J" horiz-adv-x="780" d="M-98 -244q195 146 196 829v7q0 677 -98 822l49 49h487l49 -49q-98 -145 -98 -677q0 -3 1 -5v-732q-49 0 -219.5 -146.5t-268.5 -146.5z" />
<glyph unicode="K" horiz-adv-x="1511" d="M0 49q98 146 98 682.5t-98 682.5l49 49h487l49 -49q-97 -145 -97 -672v-11q394 487 394 653q0 17 -4 30l48 49h342l49 -49q-234 -146 -542 -712q443 -566 581 -566q5 0 9 1v-78q-122 0 -280.5 -78.5t-265.5 -78.5l-68 49q3 15 3 32q0 172 -266 505q0 -293 97 -439 l-49 -49h-487z" />
<glyph unicode="L" horiz-adv-x="1170" d="M0 49q98 146 98 682.5t-98 682.5l49 49h487l49 -49q-97 -145 -97 -1197v-22q263 0 487 244l49 -49l-146 -390h-829z" />
<glyph unicode="M" horiz-adv-x="1804" d="M-59 1185l10 83l390 244q288 -488 478 -741q200 182 517 741l278 -105l24 -95q-98 -22 -126 -67q0 -1050 97 -1196l-49 -49h-487l-49 49q98 146 98 795q-176 -224 -366 -551h-49q-254 455 -366 585q0 -683 98 -829l-49 -49h-341l-49 49q98 146 98 1038q-24 51 -157 98z " />
<glyph unicode="N" horiz-adv-x="1462" d="M-59 1185l10 83l488 219q190 -502 487 -931q0 712 -97 858l49 49h341l49 -49q-98 -146 -98 -1170q98 -141 147 -195l-49 -49h-390l-49 49q-239 475 -488 780q0 -634 98 -780l-49 -49h-341l-49 49q98 146 98 1038q-24 51 -157 98z" />
<glyph unicode="O" horiz-adv-x="1316" d="M0 731.5q0 292.5 158.5 524t426.5 231.5t426.5 -231.5t158.5 -524t-158.5 -524t-426.5 -231.5t-426.5 231.5t-158.5 524zM414 731.5q0 -585.5 171 -585.5t171 585.5t-171 585.5t-171 -585.5z" />
<glyph unicode="P" horiz-adv-x="1316" d="M0 49q98 146 98 682.5t-98 682.5l49 49h585q195 0 353.5 -146.5t158.5 -366t-158.5 -390t-499.5 -267.5q0 -98 97 -244l-49 -49h-487zM488 439q243 146 243 487.5t-243 390.5v-878z" />
<glyph unicode="Q" horiz-adv-x="1316" d="M0 731.5q0 292.5 158.5 524t426.5 231.5t426.5 -231.5t158.5 -524t-158 -524.5q-65 -110 -149 -153q161 0 271 -124q94 -107 164 -107q12 0 22 3q78 20 123 62l59 -103q-163 -126 -449 -126h-5q-312 0 -463 317q-268 0 -426.5 231.5t-158.5 524zM414 731.5 q0 -585.5 171 -585.5t171 585.5t-171 585.5t-171 -585.5z" />
<glyph unicode="R" horiz-adv-x="1340" d="M0 49q98 146 98 682.5t-98 682.5l49 49h585q195 0 353.5 -146.5t158.5 -365.5q-15 -317 -298 -483q364 -332 502 -332q8 0 15 1v-78q-122 0 -280.5 -78.5t-265.5 -78.5l-68 49q5 27 5 55q0 151 -132 335q-88 -44 -136 -48q0 -98 97 -244l-49 -49h-487zM488 439 q243 146 243 487.5t-243 390.5v-878z" />
<glyph unicode="S" horiz-adv-x="1180" d="M0 49q49 73 49 341h97q98 -244 317 -244t229 171v11q0 164 -298 296q-308 136 -339 356q-7 48 -7 93q0 159 86 271q110 144 378 143q249 0 463 -73q-49 -73 -49 -341h-97q-98 244 -268 244q-220 0 -220 -147q-1 -146 341 -268t352 -426q1 -16 0 -33q0 -277 -166 -369 q-176 -98 -356 -98q-229 0 -512 73z" />
<glyph unicode="T" d="M0 1073l146 390h976l146 -390l-49 -49q-224 244 -390 244q0 -1073 97 -1219l-48 -49h-488l-49 49q98 146 98 1219q-166 0 -390 -244z" />
<glyph unicode="U" horiz-adv-x="1511" d="M0 1414l49 49h487l49 -49q-97 -145 -97 -958v-17q0 -293 219 -293t219 293q0 829 -97 975l49 49h390l49 -49q-98 -146 -98 -975v-390q-146 0 -263.5 -36.5t-297.5 -36.5q-268 0 -414 134t-146 329q0 829 -98 975z" />
<glyph unicode="V" horiz-adv-x="1400" d="M0 1263l10 83l487 166l54 -83q-10 -48 -10 -117q-1 -90 17 -214q32 -220 193 -586q141 352 183 554q12 61 12 116q0 130 -68 232l48 49h342l49 -49q-111 -142 -275 -690q-143 -478 -143 -632q0 -23 3 -38l15 -54h-381l-48 49q10 28 10 71q0 176 -164 590 q-202 514 -334 553z" />
<glyph unicode="W" horiz-adv-x="2028" d="M0 1263l10 83l487 166l54 -83q-10 -48 -10 -117q-1 -90 17 -214q32 -220 193 -586q83 215 136 302q-88 171 -185 205l10 83l488 166l53 -83q-9 -43 -9 -95q0 -86 24 -198q39 -180 117 -380q141 352 183 554q12 61 12 116q0 130 -68 232l48 49h342l48 -49 q-112 -142 -275 -690q-142 -478 -142 -632q0 -23 3 -38l15 -54h-381l-48 49q12 36 12 85q0 144 -110 393q-125 -301 -125 -434q0 -22 3 -39l15 -54h-381l-48 49q10 28 10 71q0 176 -164 590q-202 514 -334 553z" />
<glyph unicode="X" horiz-adv-x="1462" d="M0 49q98 146 424 712q-251 414 -401 414h-8l9 83l415 229q102 -297 283 -580q139 244 139 390q0 70 -32 117l49 49h341l49 -49q-98 -146 -420 -692q327 -571 469 -673l-49 -49h-390l-49 49q-93 270 -268 507q-152 -250 -152 -397q0 -65 30 -110l-49 -49h-341z" />
<glyph unicode="Y" d="M0 1414l49 49h536l49 -49q-34 -32 -34 -101q0 -79 44 -206q83 -239 122 -268q143 293 143 453q0 76 -31 122l48 49h293l49 -49q-122 -146 -212.5 -324t-177.5 -476q0 -414 97 -565l-49 -49h-487l-49 49q98 146 98 387.5t-188 578t-300 399.5z" />
<glyph unicode="Z" d="M0 49q536 741 683 1219h-122q-239 0 -463 -244l-49 49l146 390h975l49 -49q-449 -697 -683 -1219h74q336 0 560 244l49 -49l-146 -390h-1024z" />
<glyph unicode="[" horiz-adv-x="804" d="M0 -146q98 244 98 877.5t-98 877.5l49 49h580l49 -98l-190 -97v-1463l190 -98l-49 -97h-580z" />
<glyph unicode="\" horiz-adv-x="1024" d="M0 1463l49 49h292q244 -756 781 -1561l-49 -49h-293q-244 805 -780 1561z" />
<glyph unicode="]" horiz-adv-x="804" d="M0 -98l195 98v1463l-195 97l49 98h585l49 -49q-98 -244 -98 -877.5t98 -877.5l-49 -49h-585z" />
<glyph unicode="^" horiz-adv-x="828" d="M0 1170q146 98 244 390h244q98 -293 243 -390l-48 -48q-244 49 -308 253h-19q-63 -204 -307 -253z" />
<glyph unicode="_" horiz-adv-x="1170" d="M-49 -195l49 49h1170q0 -73 49 -98l-49 -49h-1170q0 73 -49 98z" />
<glyph unicode="`" horiz-adv-x="438" d="M5 1560q202 39 288 -136q-200 -205 -39 -473l-54 -34q-307 194 -195 643z" />
<glyph unicode="a" horiz-adv-x="1292" d="M0 402q10 232 346.5 329.5t336.5 219.5t-195 122q-151 0 -249 -244h-98q0 268 -48 341q215 73 478 73q195 -10 299.5 -90t153.5 -80v-463q0 -414 98 -561l-49 -49h-317l-49 122q-59 -137 -219 -146q-146 0 -322 98q-166 92 -167 304q0 12 1 24zM341 292q10 -146 147 -146 q219 0 219 561q-24 -63 -200 -151q-167 -111 -167 -248q0 -8 1 -16z" />
<glyph unicode="b" horiz-adv-x="1243" d="M0 1463l49 49l341 48l49 -48v-342q73 68 195 73q268 0 402 -207t134 -426.5t-134 -426.5t-402 -207q-146 0 -292.5 85t-243.5 85v610q0 455 -98 707zM439 610q0 -463 195 -464q171 0 171 463.5t-195 463.5q-171 0 -171 -232v-231z" />
<glyph unicode="c" horiz-adv-x="1170" d="M0 609.5q0 219.5 134 426.5t402 207q249 0 464 -73q-49 -73 -49 -341h-98q-98 244 -268 244q-219 0 -219 -463.5t219 -463.5q171 0 268 244h98q0 -268 49 -341q-284 -73 -464 -73q-268 0 -402 207t-134 426.5z" />
<glyph unicode="d" horiz-adv-x="1340" d="M0 609.5q0 219.5 134 426.5t402 207q137 -5 195 -99q0 173 -195 319l49 49l439 48l49 -48v-756q0 -561 97 -707l-48 -49h-317l-49 122q-59 -137 -220 -146q-268 0 -402 207t-134 426.5zM365 607q0 -461 171 -461q195 0 195 464v365q-73 98 -170 98q-196 0 -196 -466z" />
<glyph unicode="e" horiz-adv-x="1219" d="M0 609.5q0 219.5 134 426.5t402 207t402.5 -207t134.5 -426q-98 0 -293 -85.5t-292 -85.5l-49 49q107 49 153.5 134t114.5 109q0 341 -171 342q-171 0 -171 -461q0 -466 220 -466q171 0 268 244h98q0 -268 49 -341q-284 -73 -464 -73q-268 0 -402 207t-134 426.5z" />
<glyph unicode="f" horiz-adv-x="731" d="M0 49q98 146 98 561v414q0 98 -98 98l49 97h49q0 341 365 341q151 0 273 -73q-42 -78 -53 -292h-73q-24 146 -98 146q-73 0 -73 -122q0 -97 95 -97h2l49 -98h-73q-73 0 -73 -98v-316q0 -414 97 -561l-48 -49h-439z" />
<glyph unicode="g" horiz-adv-x="1219" d="M0 29.5q0 102.5 68 178.5q37 42 37 101q0 47 -23 104q-77 109 -80 299v7q0 186 132 353q134 171 378 171t312 -63q21 -14 51 -14q62 0 164 63l48 -49q-90 -94 -90 -194q0 -8 1 -16q26 -68 26 -263t-134 -365.5t-378 -170.5q-180 0 -219 15q-14 5 -26 5q-22 0 -40 -18 q-19 -19 -19 -44q0 -12 4 -25q11 -37 58 -37q6 0 12 1q59 5 205.5 32t280.5 27t219.5 -73.5t85.5 -195t-147 -219.5l-48 49q49 49 49 72.5t-25 49.5q-24 24 -97.5 24t-219.5 -26.5t-280 -26.5t-219.5 73t-85.5 175.5zM366 707q0 -366 146 -366t146 366t-146 366t-146 -366z " />
<glyph unicode="h" d="M0 49q98 146 98 707t-98 707l49 49l390 48l49 -48l-49 -342q73 68 244 73q219 0 353 -207t134 -426q0 -414 98 -561l-49 -49h-366l-48 49v561q0 463 -147 463q-219 0 -219 -463q0 -414 97 -561l-48 -49h-439z" />
<glyph unicode="i" horiz-adv-x="682" d="M0 49q98 146 98 548.5t-98 548.5l49 49l390 48v-633q0 -414 97 -561l-48 -49h-439zM73 1548.5q0 45.5 36.5 114t158.5 68.5t158.5 -68.5t36.5 -114t-36.5 -114.5t-158.5 -69t-158.5 69t-36.5 114.5z" />
<glyph unicode="j" horiz-adv-x="633" d="M-98 -244q195 146 196 707v6q0 555 -98 653l15 68l424 78v-1268q-49 0 -195 -146.5t-244 -146.5zM73 1548.5q0 45.5 36.5 114t158.5 68.5t158.5 -68.5t36.5 -114t-36.5 -114.5t-158.5 -69t-158.5 69t-36.5 114.5z" />
<glyph unicode="k" horiz-adv-x="1267" d="M0 49q98 146 98 707t-98 707l49 49l341 48l49 -48v-902q297 366 297 523q0 20 -5 37l49 49h342l48 -49q-234 -146 -429 -492q423 -717 572 -717h4l-49 -83q-88 0 -239 61t-298 61l-48 49q7 10 7 26q0 98 -256 413q5 -293 102 -439l-48 -49h-439z" />
<glyph unicode="l" horiz-adv-x="707" d="M0 49q98 146 98 707t-98 707l49 49l341 48l49 -48v-756q0 -561 97 -707l-48 -49h-439z" />
<glyph unicode="m" horiz-adv-x="1901" d="M0 49q98 146 98 487.5t-98 487.5l49 49q102 15 224 83q166 83 361 87q72 -1 158 -37q43 -18 85.5 -18t85.5 18q85 36 159 37q268 0 402 -207t134 -426q0 -414 97 -561l-48 -49h-366l-49 49v561q0 463 -146 463q-122 0 -122 -292.5t59 -370.5l-30 -88l-322 -29l-48 48 q49 97 49 409v6q0 317 -122 317q-171 0 -171 -463q0 -414 97 -561l-48 -49h-439z" />
<glyph unicode="n" horiz-adv-x="1414" d="M0 49q98 146 98 487.5t-98 487.5l49 49q102 15 224 83q166 83 361 87q268 0 402 -207t134 -426q0 -414 98 -561l-49 -49h-366l-48 49v561q0 463 -147 463q-219 0 -219 -463q0 -414 97 -561l-48 -49h-439z" />
<glyph unicode="o" horiz-adv-x="1219" d="M0 609.5q0 219.5 134 426.5t402.5 207t402.5 -207t134 -426.5t-134 -426.5t-403 -207q-268 0 -402 207t-134 426.5zM365 607q0 -461 171 -461t171 464q-1 463 -171 463q-172 0 -171 -466z" />
<glyph unicode="p" horiz-adv-x="1340" d="M0 -293q98 146 98 707t-98 708l49 48q77 -52 148 -52q63 0 120 41q97 84 312 84h5q268 0 402 -207t134 -426.5t-134 -426.5t-402 -207q-122 10 -195 97q0 -268 97 -366l-48 -48h-439zM439 244q73 -98 171 -98q195 0 195 463.5t-171 463.5q-195 0 -195 -463v-366z" />
<glyph unicode="q" horiz-adv-x="1292" d="M0 609.5q0 219.5 134 426.5t402 207q219 0 317 -84q57 -40 120 -40q71 0 149 51l48 -48q-122 -146 -122 -708q49 -561 171 -707l-49 -48h-390l-49 48v415q-34 -137 -195 -146q-268 0 -402 207t-134 426.5zM365 609.5q0 -463.5 171 -463.5q195 0 195 232v232 q0 463 -195 463q-171 0 -171 -463.5z" />
<glyph unicode="r" horiz-adv-x="1131" d="M0 49q122 146 122 560.5t-122 560.5l49 49l341 49l98 -98q90 83 203 83q50 -1 104 -17q178 -52 189 -286q1 -10 0 -20q0 -104 -92 -228q-74 -98 -74 -154q0 -21 11 -36l-49 -49q-147 78 -147 242q1 43 11 93q15 73 14 123q0 111 -73 111h-2q-144 -8 -144 -422.5 t97 -560.5l-48 -49h-439z" />
<glyph unicode="s" horiz-adv-x="1170" d="M0 49q49 73 49 341h97q98 -244 293 -244q199 0 209 146q0 5 1 10q0 140 -277 224q-286 88 -317 259q-7 38 -7 74q0 129 86 241q110 144 354 143q229 0 443 -73q-48 -72 -48 -330v-11h-98q-98 244 -249 244q-195 0 -195 -122t319.5 -219.5t329.5 -329.5q1 -12 1 -24 q-1 -212 -167 -304q-176 -98 -336 -98q-205 0 -488 73z" />
<glyph unicode="t" horiz-adv-x="780" d="M0 1170l49 49q224 5 341 341l49 -48v-293h146l49 -49q-195 -146 -195 -292v-268q0 -414 195 -561l-49 -49h-439l-48 49v829q0 146 -98 292z" />
<glyph unicode="u" d="M0 1146l49 49l341 48l49 -48v-756q0 -293 171 -293q170 0 170 290q0 564 -97 710l48 49l342 48l49 -48v-756q0 -293 92 -390l-49 -49q-87 60 -176 60q-55 0 -111 -23q-146 -61 -293 -61q-244 0 -365.5 134t-121.5 329v171q0 390 -98 536z" />
<glyph unicode="v" horiz-adv-x="1228" d="M0 1019l10 83l439 166l53 -83q-9 -41 -9 -90q1 -85 27 -193q42 -171 148 -390q59 108 100 310q12 60 12 115q0 131 -68 233l49 49h341l49 -49q-112 -142 -234 -568q-102 -356 -102 -500q0 -28 4 -48l15 -54h-332l-49 49q7 11 7 33q0 104 -148 462q-180 436 -312 475z" />
<glyph unicode="w" horiz-adv-x="1755" d="M0 1019l10 83l439 166l53 -83q-9 -41 -9 -90q1 -85 27 -193q42 -171 148 -390q63 135 78 190q18 55 18 105q0 56 -23 105l15 63l234 98l44 -54q5 -190 34 -292.5t88 -273.5q78 167 120 369q12 60 12 115q0 130 -69 233l49 49h341l49 -49q-112 -142 -234 -568 q-102 -356 -102 -500q0 -28 4 -48l15 -54h-327l-49 49q8 19 8 48q1 45 -19 113q-32 112 -81 229q-20 -67 -49 -165q-16 -53 -16 -115q0 -50 11 -105l15 -54h-332l-49 49q7 11 7 33q0 104 -148 462q-180 436 -312 475z" />
<glyph unicode="x" horiz-adv-x="1331" d="M0 49q176 195 375 570q-205 314 -351 317l10 83l419 224q44 -239 191 -482q113 169 113 290q0 67 -35 119l48 49h317l49 -49q-122 -122 -366 -565q302 -473 415 -556l-49 -49h-390l-49 49q9 14 9 36q0 101 -189 364q-135 -171 -135 -293q0 -59 32 -107l-48 -49h-317z" />
<glyph unicode="y" horiz-adv-x="1150" d="M0 1019l10 83l439 166l53 -83q-9 -41 -9 -90q0 -85 27 -193q41 -171 148 -390q59 107 100 310q12 60 12 115q0 130 -68 233l49 49h341l49 -49q-112 -141 -234 -568q-102 -356 -102 -500q0 -28 4 -48l15 -54q-102 0 -321.5 -195t-317.5 -195l-49 49q200 161 266 355 q18 53 18 121q0 179 -125 459q-173 386 -305 425z" />
<glyph unicode="z" horiz-adv-x="1267" d="M0 49q453 585 585 975q-263 0 -487 -244l-49 49l146 390h829l49 -49q-449 -697 -585 -975h73q288 0 512 244l49 -49l-147 -390h-926z" />
<glyph unicode="{" horiz-adv-x="804" d="M0 780q146 73 146 256t110 378t402 341l49 -48q-146 -146 -146 -512t-98 -464q98 -98 98 -463.5t146 -511.5l-49 -49q-293 146 -402.5 390t-109.5 378.5t-122 207.5z" />
<glyph unicode="|" horiz-adv-x="463" d="M0 -146q73 146 73 877.5t-73 877.5l49 49h219l49 -49q-73 -146 -73 -877.5t73 -877.5l-49 -49h-219z" />
<glyph unicode="}" horiz-adv-x="809" d="M0 -244q146 146 146 512t98 463q-98 98 -98 464t-146 512l49 48q293 -146 402.5 -389.5t109.5 -378t146 -207.5l-24 -97q-122 -73 -122 -256t-110 -378t-402 -342z" />
<glyph unicode="~" horiz-adv-x="1292" d="M-2 635q25 119 123.5 173t230 26t269 -85t213 -64t103.5 12.5t33 41.5t-31 80l56 39q127 -127 100 -246.5t-129 -180t-233 -32.5t-268.5 84.5t-209.5 72t-100.5 -4t-33.5 -42.5t32 -82l-57 -37q-123 126 -98 245z" />
<glyph unicode="&#xa1;" horiz-adv-x="731" d="M-2 -258q81 161 126.5 519t45.5 505l174 -1q16 -146 50.5 -446t141.5 -388l-29 -63l-447 -155zM73 1060.5q0 45.5 36.5 114t158.5 68.5t158.5 -68.5t36.5 -114t-36.5 -114t-158.5 -68.5t-158.5 68.5t-36.5 114z" />
<glyph unicode="&#xa2;" horiz-adv-x="1072" d="M0 878q0 195 109.5 377.5t280.5 182.5q49 73 49 171h97q0 -98 49 -171q78 0 293 -73q-49 -73 -49 -317h-98q-98 268 -219 269q-195 0 -195 -439t195 -439q122 0 219 268h98q0 -244 49 -317q-215 -73 -293 -73q-49 -73 -49 -171h-97q0 98 -49 171q-171 0 -280.5 183 t-109.5 378z" />
<glyph unicode="&#xa3;" horiz-adv-x="1316" d="M0 49q98 146 98 561q0 73 -98 73v97q98 0 98 73q0 171 134 402.5t378 231.5q248 5 463 -68q-49 -73 -49 -341h-98q-98 244 -243 239q-195 0 -195 -512q244 0 302 68l49 -25l-54 -238l-49 -25q-102 73 -248 73q5 -414 -98 -463q414 0 634 244l49 -49l-147 -390h-877z" />
<glyph unicode="&#xa4;" horiz-adv-x="1194" d="M0 439v97h51q-7 73 3 147h-54v97h73q122 463 512 463q249 0 463 -73q-49 -73 -48 -341h-98q-98 244 -268 244q-176 0 -210 -293q180 0 234 49l49 -49q-73 -73 -73 -146q-73 49 -220 49l-2 -147q96 0 149 49l49 -49q-73 -73 -74 -146q-73 49 -115 44q37 -288 213 -288 q171 0 268 244h98q0 -268 48 -341q-283 -73 -463 -73q-390 0 -512 463h-73z" />
<glyph unicode="&#xa5;" horiz-adv-x="1414" d="M0 1414l49 49h536l49 -49q-73 -68 10 -307t122 -268q210 429 112 575l48 49h293l49 -49q-122 -146 -212.5 -324t-177.5 -476v-175q73 0 146 49l49 -49q-49 -98 -49 -195h-73q-24 49 -73 49q0 -98 97 -244l-49 -49h-487l-49 49q98 146 98 244l-74 -49l-48 49q24 49 24 170 q49 -24 98 -24q0 239 -188 575.5t-300 399.5z" />
<glyph unicode="&#xa6;" horiz-adv-x="512" d="M0 -146q73 146 73 780q49 0 85.5 24.5t85.5 24.5q0 -683 73 -829l-49 -49h-219zM0 1609l49 49h219l49 -49q-73 -146 -73 -780q-49 0 -85.5 -24.5t-85.5 -24.5q0 683 -73 829z" />
<glyph unicode="&#xa7;" horiz-adv-x="409" />
<glyph unicode="&#xa8;" horiz-adv-x="1072" d="M0 1658q0 34 36.5 90t134 56t134 -56t36.5 -90t-36 -90t-134 -56t-134.5 56t-36.5 90zM536 1658q0 34 37 90t134.5 56t134 -56t36.5 -90t-36.5 -90t-134.5 -56t-134.5 56t-36.5 90z" />
<glyph unicode="&#xa9;" d="M0 744q0 136 109.5 342t475.5 206t475.5 -206t109.5 -342t-109.5 -342.5t-475.5 -206.5t-475.5 206.5t-109.5 342.5zM98 745q0 -113 91.5 -285t395.5 -172t396 172t92 285t-92 284.5t-396 171.5t-395.5 -171.5t-91.5 -284.5zM322 731.5q0 109.5 67 213t201 103.5 q124 0 231 -36q-23 -37 -23 -171h-49q-49 123 -135 123q-109 0 -109 -232.5t109 -232.5q86 0 135 123h49q0 -135 23 -171q-140 -37 -231 -37q-134 0 -201 104t-67 213.5z" />
<glyph unicode="&#xaa;" horiz-adv-x="877" d="M-3.5 1046.5q6.5 154.5 231 219.5t224.5 146.5t-130 81.5q-100 0 -166 -163h-65q0 178 -32 227q143 49 318 49q130 -6 200 -59.5t103 -53.5v-309q0 -276 64 -374l-32 -33h-212l-32 82q-39 -92 -146 -97q-98 0 -215 64.5t-110.5 219zM0 488q244 24 341 146 q98 -122 342 -146l-49 -49h-585zM224.5 973.5q6.5 -97.5 97.5 -97.5q146 0 146 374q-17 -43 -133 -101q-117 -78 -110.5 -175.5z" />
<glyph unicode="&#xab;" horiz-adv-x="633" d="M0 390v293l390 195l49 -49q-49 -24 -122 -158.5t-122 -134.5q49 0 122 -134t122 -158l-49 -49z" />
<glyph unicode="&#xac;" horiz-adv-x="1360" />
<glyph unicode="&#xad;" horiz-adv-x="1121" d="M0 488q98 98 122 292q463 -98 756 0l48 -49q-98 -98 -121 -292q-463 98 -756 0z" />
<glyph unicode="&#xae;" d="M0 1036q0 136 109.5 342.5t475.5 206.5t475.5 -206.5t109.5 -342.5t-109.5 -342t-475.5 -206t-475.5 206t-109.5 342zM98 1038q0 -113 91.5 -285.5t395.5 -172.5t396 172.5t92 285.5t-92 284.5t-396 171.5t-395.5 -171.5t-91.5 -284.5zM310 743q49 74 49 281t-49 281 l24 23h269q98 0 164.5 -48.5t66.5 -146t-124 -179.5q156 -176 221 -166v-39q-61 0 -121.5 -39t-115.5 -39l-33 23q14 86 -64 195q-43 -21 -68 -23q0 -49 48 -123l-23 -23h-220zM529 938q122 74 122 183.5t-122 134.5v-318z" />
<glyph unicode="&#xaf;" horiz-adv-x="487" />
<glyph unicode="&#xb0;" horiz-adv-x="663" d="M0 1367.5q0 80.5 44 161t190 80.5t190 -80.5t44 -161t-44 -163t-190 -82.5t-190 82.5t-44 163zM170.5 1365.5q-0.5 -146.5 58.5 -146.5q68 0 68 146.5t-63 146.5t-63.5 -146.5z" />
<glyph unicode="&#xb1;" horiz-adv-x="975" d="M0 195v195l49 48q49 -49 341.5 -48.5t340.5 48.5l49 -48v-195l-49 -49q-49 49 -341 49t-341 -49zM0 781v195l49 48q49 -49 244 -48q0 195 -49 243l49 49h195l48 -49q-49 -49 -48 -243q195 0 243 48l49 -48v-195l-49 -49q-49 49 -243 49q0 -195 48 -244l-48 -49h-195 l-49 49q49 49 49 244q-195 0 -244 -49z" />
<glyph unicode="&#xb2;" horiz-adv-x="1072" d="M0 683q0 317 273 475.5t268 243.5t-161 85q-117 0 -190 -219h-97q0 244 -49 317q215 73 419 73q171 0 280.5 -95t69 -256t-246 -241.5t-273.5 -187.5h156q195 0 292 170h98q0 -244 39 -365h-878z" />
<glyph unicode="&#xb3;" horiz-adv-x="1024" d="M0 756q49 73 49 292h88q107 -195 224 -195q171 0 171 134.5t-69 134.5q-39 0 -73 -25l-49 25l-29 146q195 -24 197.5 97.5t-143.5 121.5q-117 -5 -190 -195h-98q0 215 -49 288q215 73 385 78q219 0 305 -73t86 -207.5t-152 -177.5q176 -54 176 -200.5t-75.5 -231.5 t-343.5 -85q-127 0 -410 73z" />
<glyph unicode="&#xb4;" horiz-adv-x="926" d="M0 1634l49 48q297 49 390 220q122 -98 244 -108l-49 -73q-244 -14 -488 -209q-49 73 -146 122z" />
<glyph unicode="&#xb5;" horiz-adv-x="1462" d="M0 1195l49 48h439l48 -48q-98 -146 -97 -561q0 -463 219 -463q146 0 147 463v561l48 48h366l49 -48q-98 -146 -98 -487.5t98 -488.5l-49 -48q-102 -15 -224 -83q-166 -83 -361 -88q-122 5 -195 73q0 -244 97 -292l-48 -49h-342l-48 49v707q0 561 -98 707z" />
<glyph unicode="&#xb6;" horiz-adv-x="1267" d="M0 950.5q0 219.5 158.5 366t353.5 146.5h585l49 -49q-98 -146 -98 -682.5t98 -682.5l-49 -49q-73 0 -243.5 -97.5t-243.5 -97.5l-49 49q98 146 97.5 292.5t-171 195t-329 219t-158.5 390zM853 731.5q0 -536.5 25 -536.5q24 0 24 536.5t-24.5 536.5t-24.5 -536.5z" />
<glyph unicode="&#xb7;" horiz-adv-x="585" d="M0 743.5q0 45.5 36.5 114t158.5 68.5t158.5 -68.5t36.5 -114t-36.5 -114t-158.5 -68.5t-158.5 68.5t-36.5 114z" />
<glyph unicode="&#xb8;" horiz-adv-x="853" d="M2 -295l3 64q312 -6 390 270q194 14 261 -181q-332 -322 -654 -153z" />
<glyph unicode="&#xb9;" horiz-adv-x="682" d="M0 731q98 146 98 366t-98 366l49 49q200 5 390 195l49 -49q-98 -146 -98 -463t98 -464l-49 -48h-390z" />
<glyph unicode="&#xba;" horiz-adv-x="906" d="M-2 1185q0 146 89.5 284t268 138t268.5 -138t90 -284t-90 -284t-268 -138q-179 0 -268.5 138t-89.5 284zM15 488q244 24 341 146q98 -122 341 -146l-48 -49h-586zM242 1185q0 -309 114 -309t114 309t-114 309t-114 -309z" />
<glyph unicode="&#xbb;" horiz-adv-x="633" d="M0 244q49 24 122 158.5t122 134.5q-49 0 -122 134t-122 158l49 49l390 -195v-293l-390 -195z" />
<glyph unicode="&#xbc;" horiz-adv-x="1682" d="M0 731q98 146 98 366t-98 366l49 49q200 5 390 195l49 -49q-98 -146 -98 -463t98 -464l-49 -48h-390zM98 390q561 366 878 732l244 -49l48 -49q-561 -317 -877 -731l-244 48zM488 24q143 117 226.5 263.5t85.5 346.5q187 5 341 49l49 -49q-47 -224 -180 -362t-205 -174 q117 -29 190 -30q5 54 -19 98l48 49q127 15 210 224l49 -49q-39 -68 -15 -292q49 0 98 24l122 -171l-49 -49q-85 49 -171 49q0 -49 98 -97l-49 -49h-390l-49 49q98 49 98 97h-415z" />
<glyph unicode="&#xbd;" horiz-adv-x="1852" d="M0 731q98 146 98 366t-98 366l49 49q200 5 390 195l49 -49q-98 -146 -98 -463t98 -464l-49 -48h-390zM98 390q561 366 878 732l244 -49l48 -49q-561 -317 -877 -731l-244 48zM780 -195q0 317 273 475.5t268 243.5t-161 85q-117 0 -190 -219h-97q0 244 -49 317 q215 73 419 73q171 0 280.5 -95t69 -256t-246 -241.5t-273.5 -187.5h156q195 0 292 170h98q0 -244 39 -365h-878z" />
<glyph unicode="&#xbe;" horiz-adv-x="1877" d="M0 756q49 73 49 292h88q107 -195 224 -195q171 0 171 134.5t-69 134.5q-39 0 -73 -25l-49 25l-29 146q195 -24 197.5 97.5t-143.5 121.5q-117 -5 -190 -195h-98q0 215 -49 288q215 73 385 78q219 0 305 -73t86 -207.5t-152 -177.5q176 -54 176 -200.5t-75.5 -231.5 t-343.5 -85q-127 0 -410 73zM341 390q561 366 878 732l244 -49l48 -49q-561 -317 -877 -731l-244 48zM683 24q143 117 226.5 263.5t85.5 346.5q187 5 341 49l49 -49q-47 -224 -180 -362t-205 -174q117 -29 190 -30q5 54 -19 98l48 49q127 15 210 224l49 -49 q-39 -68 -15 -292q49 0 98 24l122 -171l-49 -49q-85 49 -171 49q0 -49 98 -97l-49 -49h-390l-49 49q98 49 98 97h-415z" />
<glyph unicode="&#xbf;" horiz-adv-x="1072" d="M38 229q38 210 297.5 285.5t259.5 126.5t-117 42l-49 48q21 49 193.5 49t172.5 -183t-239 -307t-239 -256t195 -132q151 0 249 244h97q0 -268 49 -341q-215 -73 -444 -73q-244 0 -353.5 143.5t-71.5 353.5zM419 1060.5q0 45.5 36.5 114t158.5 68.5t158.5 -68.5t36.5 -114 t-36.5 -114t-158 -68.5t-158.5 68.5t-37 114z" />
<glyph unicode="&#xc0;" d="M0 24q268 366 390 1063q-24 51 -156 98l10 83l487 219q229 -683 407.5 -1034t226.5 -404l-48 -49h-439l-49 49q49 80 0 131q-185 68 -644 -204h-136zM293 1794q122 10 293 108q107 -210 317 -342l-49 -48h-147q-175 165 -365 209zM400 322q268 83 370 29 q-127 254 -243 478q-64 -351 -127 -507z" />
<glyph unicode="&#xc1;" d="M0 24q268 366 390 1063q-24 51 -156 98l10 83l487 219q229 -683 407.5 -1034t226.5 -404l-48 -49h-439l-49 49q49 80 0 131q-185 68 -644 -204h-136zM293 1634l49 48q297 49 390 220q122 -98 244 -108l-49 -73q-244 -14 -488 -209q-49 73 -146 122zM400 322 q268 83 370 29q-127 254 -243 478q-64 -351 -127 -507z" />
<glyph unicode="&#xc2;" d="M0 24q268 366 390 1063q-24 51 -156 98l10 83l487 219q229 -683 407.5 -1034t226.5 -404l-48 -49h-439l-49 49q49 80 0 131q-185 68 -644 -204h-136zM244 1560q249 146 244 244l49 49q98 -49 195 0l48 -49q5 -98 244 -244l-49 -48q-219 73 -341 146q-122 -73 -341 -146z M400 322q268 83 370 29q-127 254 -243 478q-64 -351 -127 -507z" />
<glyph unicode="&#xc3;" d="M0 24q268 366 390 1063q-24 51 -156 98l10 83l487 219q229 -683 407.5 -1034t226.5 -404l-48 -49h-439l-49 49q49 80 0 131q-185 68 -644 -204h-136zM288.5 1675q17.5 79 82.5 115t153 17.5t179.5 -56.5t142 -42.5t69.5 8t22 27t-21 53.5l37 27q84 -85 66.5 -164.5 t-86 -120t-155.5 -22t-178.5 56t-139.5 48t-67 -2t-22.5 -28.5t20.5 -55l-38 -24q-82 84 -64.5 163zM400 322q268 83 370 29q-127 254 -243 478q-64 -351 -127 -507z" />
<glyph unicode="&#xc4;" d="M0 24q268 366 390 1063q-24 51 -156 98l10 83l487 219q229 -683 407.5 -1034t226.5 -404l-48 -49h-439l-49 49q49 80 0 131q-185 68 -644 -204h-136zM195 1658q0 34 36.5 90t134 56t134 -56t36.5 -90t-36 -90t-134 -56t-134.5 56t-36.5 90zM400 322q268 83 370 29 q-127 254 -243 478q-64 -351 -127 -507zM731 1658q0 34 37 90t134.5 56t134 -56t36.5 -90t-36.5 -90t-134.5 -56t-134.5 56t-36.5 90z" />
<glyph unicode="&#xc5;" d="M0 24q268 366 390 1063q-24 51 -156 98l10 83l487 219q229 -683 407.5 -1034t226.5 -404l-48 -49h-439l-49 49q49 80 0 131q-185 68 -644 -204h-136zM390 1721q0 44 44 124.5t190 80.5t190 -80.5t44 -124.5t-44 -126.5t-190 -82.5t-190 82.5t-44 126.5zM400 322 q268 83 370 29q-127 254 -243 478q-64 -351 -127 -507zM560.5 1719q-0.5 -110 58.5 -110q68 0 68 110t-63 110t-63.5 -110z" />
<glyph unicode="&#xc6;" horiz-adv-x="1926" d="M0 24q483 497 707 1190q-78 54 -180 78l9 83l444 132l20 -44h707l146 -390l-49 -49q-219 244 -600 244l27 -463q281 0 378 195l49 -25l-98 -487l-48 -25q-98 195 -273 195l29 -463q317 0 536 244l49 -49l-146 -390h-854l-48 49q49 80 -30 107q-278 49 -531 -180h-195z M546 341q200 49 288 -9q5 249 -34 516q-132 -317 -254 -507z" />
<glyph unicode="&#xc7;" horiz-adv-x="1170" d="M-24 731.5q0 292.5 158.5 524t426.5 231.5q249 0 463 -73q-49 -73 -49 -341h-97q-98 244 -268 244q-219 0 -219.5 -585.5t219.5 -585.5q171 0 268 244h97q0 -268 49 -341q-283 -73 -463 -73q-268 0 -426.5 231.5t-158.5 524zM197 -295l3 64q312 -6 390 270 q194 14 261 -181q-332 -322 -654 -153z" />
<glyph unicode="&#xc8;" horiz-adv-x="1267" d="M0 49q98 146 98 682.5t-98 682.5l49 49h877l147 -390l-49 -49q-219 244 -536 244v-463q244 0 341 195l49 -25l-98 -487l-49 -25q-98 195 -243 195v-463q317 0 536 244l49 -49l-147 -390h-877zM195 1794q122 10 293 108q107 -210 317 -342l-49 -48h-147q-175 165 -365 209 z" />
<glyph unicode="&#xc9;" horiz-adv-x="1267" d="M0 49q98 146 98 682.5t-98 682.5l49 49h877l147 -390l-49 -49q-219 244 -536 244v-463q244 0 341 195l49 -25l-98 -487l-49 -25q-98 195 -243 195v-463q317 0 536 244l49 -49l-147 -390h-877zM195 1634l49 48q297 49 390 220q122 -98 244 -108l-49 -73 q-244 -14 -488 -209q-49 73 -146 122z" />
<glyph unicode="&#xca;" horiz-adv-x="1267" d="M0 49q98 146 98 682.5t-98 682.5l49 49h877l147 -390l-49 -49q-219 244 -536 244v-463q244 0 341 195l49 -25l-98 -487l-49 -25q-98 195 -243 195v-463q317 0 536 244l49 -49l-147 -390h-877zM98 1560q249 146 244 244l49 49q98 -49 195 0l48 -49q5 -98 244 -244l-49 -48 q-219 73 -341 146q-122 -73 -341 -146z" />
<glyph unicode="&#xcb;" horiz-adv-x="1267" d="M0 49q98 146 98 682.5t-98 682.5l49 49h877l147 -390l-49 -49q-219 244 -536 244v-463q244 0 341 195l49 -25l-98 -487l-49 -25q-98 195 -243 195v-463q317 0 536 244l49 -49l-147 -390h-877zM49 1658q0 34 36.5 90t134 56t134 -56t36.5 -90t-36 -90t-134 -56t-134.5 56 t-36.5 90zM585 1658q0 34 37 90t134.5 56t134 -56t36.5 -90t-36.5 -90t-134.5 -56t-134.5 56t-36.5 90z" />
<glyph unicode="&#xcc;" horiz-adv-x="780" d="M0 49q98 146 98 682.5t-98 682.5l49 49h487l49 -49q-98 -146 -97.5 -682.5t97.5 -682.5l-49 -49h-487zM0 1794q122 10 293 108q107 -210 317 -342l-49 -48h-147q-175 165 -365 209z" />
<glyph unicode="&#xcd;" horiz-adv-x="780" d="M0 49q98 146 98 682.5t-98 682.5l49 49h487l49 -49q-98 -146 -97.5 -682.5t97.5 -682.5l-49 -49h-487zM0 1634l49 48q297 49 390 220q122 -98 244 -108l-49 -73q-244 -14 -488 -209q-49 73 -146 122z" />
<glyph unicode="&#xce;" horiz-adv-x="780" d="M-98 1560q249 146 244 244l49 49q98 -49 195 0l48 -49q5 -98 244 -244l-49 -48q-219 73 -341 146q-122 -73 -341 -146zM0 49q98 146 98 682.5t-98 682.5l49 49h487l49 -49q-98 -146 -97.5 -682.5t97.5 -682.5l-49 -49h-487z" />
<glyph unicode="&#xcf;" horiz-adv-x="780" d="M-146 1658q0 34 36.5 90t134 56t134 -56t36.5 -90t-36 -90t-134 -56t-134.5 56t-36.5 90zM0 49q98 146 98 682.5t-98 682.5l49 49h487l49 -49q-98 -146 -97.5 -682.5t97.5 -682.5l-49 -49h-487zM390 1658q0 34 37 90t134.5 56t134 -56t36.5 -90t-36.5 -90t-134.5 -56 t-134.5 56t-36.5 90z" />
<glyph unicode="&#xd0;" horiz-adv-x="1316" d="M-49 634q49 73 73 244l74 -49q0 439 -98 585l49 49h585q195 0 353.5 -219.5t158.5 -512t-158.5 -512t-353.5 -219.5h-585l-49 49q98 146 98 609q-49 0 -98 -73zM488 146q243 49 243 585.5t-243 585.5v-512q49 0 97 48l49 -48q-49 -49 -73 -220l-73 49v-488z" />
<glyph unicode="&#xd1;" horiz-adv-x="1462" d="M-59 1185l10 83l488 219q190 -502 487 -931q0 712 -97 858l49 49h341l49 -49q-98 -146 -98 -1170q98 -141 147 -195l-49 -49h-390l-49 49q-239 475 -488 780q0 -634 98 -780l-49 -49h-341l-49 49q98 146 98 1038q-24 51 -157 98zM239.5 1675q17.5 79 82.5 115t153 17.5 t179.5 -56.5t142 -42.5t69.5 8t22 27t-21 53.5l37 27q84 -85 66.5 -164.5t-86 -120t-155.5 -22t-178.5 56t-139.5 48t-67 -2t-22.5 -28.5t20.5 -55l-38 -24q-82 84 -64.5 163z" />
<glyph unicode="&#xd2;" horiz-adv-x="1316" d="M0 731.5q0 292.5 158.5 524t426.5 231.5t426.5 -231.5t158.5 -524t-158.5 -524t-426.5 -231.5t-426.5 231.5t-158.5 524zM293 1794q122 10 293 108q107 -210 317 -342l-49 -48h-147q-175 165 -365 209zM414 731.5q0 -585.5 171 -585.5t171 585.5t-171 585.5t-171 -585.5z " />
<glyph unicode="&#xd3;" horiz-adv-x="1316" d="M0 731.5q0 292.5 158.5 524t426.5 231.5t426.5 -231.5t158.5 -524t-158.5 -524t-426.5 -231.5t-426.5 231.5t-158.5 524zM293 1634l49 48q297 49 390 220q122 -98 244 -108l-49 -73q-244 -14 -488 -209q-49 73 -146 122zM414 731.5q0 -585.5 171 -585.5t171 585.5 t-171 585.5t-171 -585.5z" />
<glyph unicode="&#xd4;" horiz-adv-x="1316" d="M0 731.5q0 292.5 158.5 524t426.5 231.5t426.5 -231.5t158.5 -524t-158.5 -524t-426.5 -231.5t-426.5 231.5t-158.5 524zM195 1560q249 146 244 244l49 49q98 -49 195 0l48 -49q5 -98 244 -244l-49 -48q-219 73 -341 146q-122 -73 -341 -146zM414 731.5 q0 -585.5 171 -585.5t171 585.5t-171 585.5t-171 -585.5z" />
<glyph unicode="&#xd5;" horiz-adv-x="1316" d="M0 731.5q0 292.5 158.5 524t426.5 231.5t426.5 -231.5t158.5 -524t-158.5 -524t-426.5 -231.5t-426.5 231.5t-158.5 524zM239.5 1675q17.5 79 82.5 115t153 17.5t179.5 -56.5t142 -42.5t69.5 8t22 27t-21 53.5l37 27q84 -85 66.5 -164.5t-86 -120t-155.5 -22t-178.5 56 t-139.5 48t-67 -2t-22.5 -28.5t20.5 -55l-38 -24q-82 84 -64.5 163zM414 731.5q0 -585.5 171 -585.5t171 585.5t-171 585.5t-171 -585.5z" />
<glyph unicode="&#xd6;" horiz-adv-x="1316" d="M0 731.5q0 292.5 158.5 524t426.5 231.5t426.5 -231.5t158.5 -524t-158.5 -524t-426.5 -231.5t-426.5 231.5t-158.5 524zM146 1658q0 34 36.5 90t134 56t134 -56t36.5 -90t-36 -90t-134 -56t-134.5 56t-36.5 90zM414 731.5q0 -585.5 171 -585.5t171 585.5t-171 585.5 t-171 -585.5zM682 1658q0 34 37 90t134.5 56t134 -56t36.5 -90t-36.5 -90t-134.5 -56t-134.5 56t-36.5 90z" />
<glyph unicode="&#xd7;" horiz-adv-x="975" d="M2 335v69q68 0 251 181q-183 182 -251 182v69l137 137h70q0 -68 181 -250q181 182 181 250h70l137 -137v-69q-68 0 -250 -182q182 -181 250 -181v-69l-137 -138h-70q0 68 -181 251q-181 -182 -181 -251h-70z" />
<glyph unicode="&#xd8;" horiz-adv-x="1316" d="M-49 24q176 171 122 293q-73 122 -73 414q0 293 158.5 524.5t426.5 231.5q180 0 312 -78q63 -68 273 78l49 -49q-176 -171 -122 -292q73 -122 73 -415t-158.5 -524t-426.5 -231q-180 0 -312 78q-63 68 -273 -78zM414 731.5q0 -585.5 171 -585.5t171 585.5t-171 585.5 t-171 -585.5z" />
<glyph unicode="&#xd9;" horiz-adv-x="1511" d="M0 1414l49 49h487l49 -49q-98 -146 -97 -975q0 -293 219 -293t219 293q0 829 -97 975l49 49h390l49 -49q-98 -146 -98 -975v-390q-146 0 -263.5 -36.5t-297.5 -36.5q-268 0 -414 134t-146 329q0 829 -98 975zM390 1794q122 10 293 108q107 -210 317 -342l-49 -48h-147 q-175 165 -365 209z" />
<glyph unicode="&#xda;" horiz-adv-x="1511" d="M0 1414l49 49h487l49 -49q-98 -146 -97 -975q0 -293 219 -293t219 293q0 829 -97 975l49 49h390l49 -49q-98 -146 -98 -975v-390q-146 0 -263.5 -36.5t-297.5 -36.5q-268 0 -414 134t-146 329q0 829 -98 975zM390 1634l49 48q297 49 390 220q122 -98 244 -108l-49 -73 q-244 -14 -488 -209q-49 73 -146 122z" />
<glyph unicode="&#xdb;" horiz-adv-x="1511" d="M0 1414l49 49h487l49 -49q-98 -146 -97 -975q0 -293 219 -293t219 293q0 829 -97 975l49 49h390l49 -49q-98 -146 -98 -975v-390q-146 0 -263.5 -36.5t-297.5 -36.5q-268 0 -414 134t-146 329q0 829 -98 975zM293 1560q249 146 244 244l49 49q98 -49 195 0l48 -49 q5 -98 244 -244l-49 -48q-219 73 -341 146q-122 -73 -341 -146z" />
<glyph unicode="&#xdc;" horiz-adv-x="1511" d="M0 1414l49 49h487l49 -49q-98 -146 -97 -975q0 -293 219 -293t219 293q0 829 -97 975l49 49h390l49 -49q-98 -146 -98 -975v-390q-146 0 -263.5 -36.5t-297.5 -36.5q-268 0 -414 134t-146 329q0 829 -98 975zM244 1658q0 34 36.5 90t134 56t134 -56t36.5 -90t-36 -90 t-134 -56t-134.5 56t-36.5 90zM780 1658q0 34 37 90t134.5 56t134 -56t36.5 -90t-36.5 -90t-134.5 -56t-134.5 56t-36.5 90z" />
<glyph unicode="&#xdd;" d="M0 1414l49 49h536l49 -49q-73 -68 10 -307t122 -268q210 429 112 575l48 49h293l49 -49q-122 -146 -212.5 -324t-177.5 -476q0 -414 97 -565l-49 -49h-487l-49 49q98 146 98 387.5t-188 578t-300 399.5zM293 1634l49 48q297 49 390 220q122 -98 244 -108l-49 -73 q-244 -14 -488 -209q-49 73 -146 122z" />
<glyph unicode="&#xde;" horiz-adv-x="1316" d="M0 49q98 146 98 682.5t-98 682.5l49 49h487l49 -49q-98 -146 -97 -244h146q195 0 353.5 -122t158.5 -292.5t-158.5 -304.5t-499.5 -207q0 -49 97 -195l-49 -49h-487zM488 390q243 122 243 353.5t-243 280.5v-634z" />
<glyph unicode="&#xdf;" horiz-adv-x="1540" d="M0 -98q98 146 98 561v561q0 536 633 536q268 0 391 -97q-49 -73 -49 -268v-122h-98q-141 0 -143.5 -129.5t297.5 -212t312 -321.5t-93 -336.5t-397 -97.5q-180 0 -366 73q49 73 49 341h97q49 -244 195 -244q166 0 176 146.5t-256 234t-297.5 275.5t78 314.5t251.5 126.5 q-24 98 -195 98q-244 0 -244 -317v-414q0 -414 97 -561l-48 -49h-98l-253 -146h-88z" />
<glyph unicode="&#xe0;" horiz-adv-x="1292" d="M0 402.5q10 231.5 346.5 329t336.5 219.5t-195 122q-151 0 -249 -244h-98q0 268 -48 341q215 73 478 73q195 -10 299.5 -90t153.5 -80v-463q0 -414 98 -561l-49 -49h-317l-49 122q-59 -137 -219 -146q-147 0 -322.5 97.5t-165.5 329zM195 1599q122 10 293 108 q107 -210 317 -342l-49 -48h-147q-175 165 -365 209zM341 292.5q10 -146.5 147 -146.5q219 0 219 561q-24 -63 -200 -151q-176 -117 -166 -263.5z" />
<glyph unicode="&#xe1;" horiz-adv-x="1292" d="M0 402.5q10 231.5 346.5 329t336.5 219.5t-195 122q-151 0 -249 -244h-98q0 268 -48 341q215 73 478 73q195 -10 299.5 -90t153.5 -80v-463q0 -414 98 -561l-49 -49h-317l-49 122q-59 -137 -219 -146q-147 0 -322.5 97.5t-165.5 329zM195 1439l49 48q297 49 390 220 q122 -98 244 -108l-49 -73q-244 -14 -488 -209q-49 73 -146 122zM341 292.5q10 -146.5 147 -146.5q219 0 219 561q-24 -63 -200 -151q-176 -117 -166 -263.5z" />
<glyph unicode="&#xe2;" horiz-adv-x="1292" d="M0 402.5q10 231.5 346.5 329t336.5 219.5t-195 122q-151 0 -249 -244h-98q0 268 -48 341q215 73 478 73q195 -10 299.5 -90t153.5 -80v-463q0 -414 98 -561l-49 -49h-317l-49 122q-59 -137 -219 -146q-147 0 -322.5 97.5t-165.5 329zM146 1365q249 146 244 244l49 49 q98 -49 195 0l48 -49q5 -98 244 -244l-49 -48q-219 73 -341 146q-122 -73 -341 -146zM341 292.5q10 -146.5 147 -146.5q219 0 219 561q-24 -63 -200 -151q-176 -117 -166 -263.5z" />
<glyph unicode="&#xe3;" horiz-adv-x="1292" d="M0 402.5q10 231.5 346.5 329t336.5 219.5t-195 122q-151 0 -249 -244h-98q0 268 -48 341q215 73 478 73q195 -10 299.5 -90t153.5 -80v-463q0 -414 98 -561l-49 -49h-317l-49 122q-59 -137 -219 -146q-147 0 -322.5 97.5t-165.5 329zM190.5 1480q17.5 79 82.5 115 t153 17.5t179.5 -56.5t142 -42.5t69.5 8t22 27t-21 53.5l37 27q84 -85 66.5 -164.5t-86 -120t-155.5 -22t-178.5 56t-139.5 48t-67 -2t-22.5 -28.5t20.5 -55l-38 -24q-82 84 -64.5 163zM341 292.5q10 -146.5 147 -146.5q219 0 219 561q-24 -63 -200 -151 q-176 -117 -166 -263.5z" />
<glyph unicode="&#xe4;" horiz-adv-x="1292" d="M0 402.5q10 231.5 346.5 329t336.5 219.5t-195 122q-151 0 -249 -244h-98q0 268 -48 341q215 73 478 73q195 -10 299.5 -90t153.5 -80v-463q0 -414 98 -561l-49 -49h-317l-49 122q-59 -137 -219 -146q-147 0 -322.5 97.5t-165.5 329zM98 1463q0 34 36.5 90t134 56 t134 -56t36.5 -90t-36 -90t-134 -56t-134.5 56t-36.5 90zM341 292.5q10 -146.5 147 -146.5q219 0 219 561q-24 -63 -200 -151q-176 -117 -166 -263.5zM634 1463q0 34 37 90t134.5 56t134 -56t36.5 -90t-36.5 -90t-134.5 -56t-134.5 56t-36.5 90z" />
<glyph unicode="&#xe5;" horiz-adv-x="1292" d="M0 402.5q10 231.5 346.5 329t336.5 219.5t-195 122q-151 0 -249 -244h-98q0 268 -48 341q215 73 478 73q195 -10 299.5 -90t153.5 -80v-463q0 -414 98 -561l-49 -49h-317l-49 122q-59 -137 -219 -146q-147 0 -322.5 97.5t-165.5 329zM341 292.5q10 -146.5 147 -146.5 q219 0 219 561q-24 -63 -200 -151q-176 -117 -166 -263.5zM341 1526q0 44 44 124.5t190 80.5t190 -80.5t44 -124.5t-44 -126.5t-190 -82.5t-190 82.5t-44 126.5zM511.5 1524q-0.5 -110 58.5 -110q68 0 68 110t-63 110t-63.5 -110z" />
<glyph unicode="&#xe6;" horiz-adv-x="1877" d="M0 402.5q10 231.5 346.5 329t336.5 219.5t-195 122q-151 0 -249 -244h-98q0 268 -48 341q215 73 478 73q98 0 205 -36.5t214 0t205 36.5q268 0 402 -207t134 -426q-98 0 -293 -85.5t-292 -85.5l-49 49q107 49 153.5 134t114.5 109q0 341 -170 342q-171 0 -171 -463.5 t219 -463.5q171 0 269 244h97q0 -268 49 -341q-283 -73 -463 -73q-268 0 -405 209q-141 -200 -302 -209q-147 0 -322.5 97.5t-165.5 329zM341 292.5q10 -146.5 147 -146.5q219 0 219 561q-24 -63 -200 -151q-176 -117 -166 -263.5z" />
<glyph unicode="&#xe7;" horiz-adv-x="1170" d="M0 609.5q0 219.5 134 426.5t402 207q249 0 464 -73q-49 -73 -49 -341h-98q-98 244 -268 244q-219 0 -219 -463.5t219 -463.5q171 0 268 244h98q0 -268 49 -341q-284 -73 -464 -73q-268 0 -402 207t-134 426.5zM197 -295l3 64q312 -6 390 270q194 14 261 -181 q-332 -322 -654 -153z" />
<glyph unicode="&#xe8;" horiz-adv-x="1219" d="M0 609.5q0 219.5 134 426.5t402 207t402.5 -207t134.5 -426q-98 0 -293 -85.5t-292 -85.5l-49 49q107 49 153.5 134t114.5 109q0 341 -171 342q-171 0 -170.5 -463.5t219.5 -463.5q171 0 268 244h98q0 -268 49 -341q-284 -73 -464 -73q-268 0 -402 207t-134 426.5z M244 1599q122 10 293 108q107 -210 317 -342l-49 -48h-147q-175 165 -365 209z" />
<glyph unicode="&#xe9;" horiz-adv-x="1219" d="M0 609.5q0 219.5 134 426.5t402 207t402.5 -207t134.5 -426q-98 0 -293 -85.5t-292 -85.5l-49 49q107 49 153.5 134t114.5 109q0 341 -171 342q-171 0 -170.5 -463.5t219.5 -463.5q171 0 268 244h98q0 -268 49 -341q-284 -73 -464 -73q-268 0 -402 207t-134 426.5z M195 1439l49 48q297 49 390 220q122 -98 244 -108l-49 -73q-244 -14 -488 -209q-49 73 -146 122z" />
<glyph unicode="&#xea;" horiz-adv-x="1219" d="M0 609.5q0 219.5 134 426.5t402 207t402.5 -207t134.5 -426q-98 0 -293 -85.5t-292 -85.5l-49 49q107 49 153.5 134t114.5 109q0 341 -171 342q-171 0 -170.5 -463.5t219.5 -463.5q171 0 268 244h98q0 -268 49 -341q-284 -73 -464 -73q-268 0 -402 207t-134 426.5z M146 1365q249 146 244 244l49 49q98 -49 195 0l48 -49q5 -98 244 -244l-49 -48q-219 73 -341 146q-122 -73 -341 -146z" />
<glyph unicode="&#xeb;" horiz-adv-x="1219" d="M0 609.5q0 219.5 134 426.5t402 207t402.5 -207t134.5 -426q-98 0 -293 -85.5t-292 -85.5l-49 49q107 49 153.5 134t114.5 109q0 341 -171 342q-171 0 -170.5 -463.5t219.5 -463.5q171 0 268 244h98q0 -268 49 -341q-284 -73 -464 -73q-268 0 -402 207t-134 426.5z M98 1463q0 34 36.5 90t134 56t134 -56t36.5 -90t-36 -90t-134 -56t-134.5 56t-36.5 90zM634 1463q0 34 37 90t134.5 56t134 -56t36.5 -90t-36.5 -90t-134.5 -56t-134.5 56t-36.5 90z" />
<glyph unicode="&#xec;" horiz-adv-x="682" d="M-98 1599q122 10 293 108q107 -210 317 -342l-49 -48h-147q-175 165 -365 209zM0 49q98 146 98 548.5t-98 548.5l49 49l390 48v-633q0 -414 97 -561l-48 -49h-439z" />
<glyph unicode="&#xed;" horiz-adv-x="682" d="M-98 1439l49 48q297 49 390 220q122 -98 244 -108l-49 -73q-244 -14 -488 -209q-49 73 -146 122zM0 49q98 146 98 548.5t-98 548.5l49 49l390 48v-633q0 -414 97 -561l-48 -49h-439z" />
<glyph unicode="&#xee;" horiz-adv-x="682" d="M-122 1365q249 146 244 244l49 49q98 -49 195 0l48 -49q5 -98 244 -244l-49 -48q-219 73 -341 146q-122 -73 -341 -146zM0 49q98 146 98 548.5t-98 548.5l49 49l390 48v-633q0 -414 97 -561l-48 -49h-439z" />
<glyph unicode="&#xef;" horiz-adv-x="682" d="M-171 1463q0 34 36.5 90t134 56t134 -56t36.5 -90t-36 -90t-134 -56t-134.5 56t-36.5 90zM0 49q98 146 98 548.5t-98 548.5l49 49l390 48v-633q0 -414 97 -561l-48 -49h-439zM365 1463q0 34 37 90t134.5 56t134 -56t36.5 -90t-36.5 -90t-134.5 -56t-134.5 56t-36.5 90z " />
<glyph unicode="&#xf0;" horiz-adv-x="1219" d="M0 560.5q0 170.5 134 366t402 195.5q137 -5 176 -100q-30 121 -70 164l-55 -26q-56 59 -139 88l128 65q-59 53 -127 52l14 73l268 171l78 -39q34 -18 63 -100q83 32 117 98l63 -13l94 -214l-49 -49q-83 49 -158 32q143 -364 134 -666q0 -683 -537 -682q-268 0 -402 207 t-134 377.5zM365.5 548.5q-0.5 -402.5 170.5 -402.5q195 0 195 415q-5 322 -170 390q-195 0 -195.5 -402.5z" />
<glyph unicode="&#xf1;" horiz-adv-x="1414" d="M0 49q98 146 98 487.5t-98 487.5l49 49q102 15 224 83q166 83 361 87q268 0 402 -207t134 -426q0 -414 98 -561l-49 -49h-366l-48 49v561q0 463 -147 463q-219 0 -219 -463q0 -414 97 -561l-48 -49h-439zM288.5 1480q17.5 79 82.5 115t153 17.5t179.5 -56.5t142 -42.5 t69.5 8t22 27t-21 53.5l37 27q84 -85 66.5 -164.5t-86 -120t-155.5 -22t-178.5 56t-139.5 48t-67 -2t-22.5 -28.5t20.5 -55l-38 -24q-82 84 -64.5 163z" />
<glyph unicode="&#xf2;" horiz-adv-x="1219" d="M0 609.5q0 219.5 134 426.5t402.5 207t402.5 -207t134 -426.5t-134 -426.5t-403 -207q-268 0 -402 207t-134 426.5zM244 1599q122 10 293 108q107 -210 317 -342l-49 -48h-147q-175 165 -365 209zM365.5 609.5q-0.5 -463.5 170.5 -463.5t171 463.5t-170.5 463.5 t-171 -463.5z" />
<glyph unicode="&#xf3;" horiz-adv-x="1219" d="M0 609.5q0 219.5 134 426.5t402.5 207t402.5 -207t134 -426.5t-134 -426.5t-403 -207q-268 0 -402 207t-134 426.5zM195 1439l49 48q297 49 390 220q122 -98 244 -108l-49 -73q-244 -14 -488 -209q-49 73 -146 122zM365.5 609.5q-0.5 -463.5 170.5 -463.5t171 463.5 t-170.5 463.5t-171 -463.5z" />
<glyph unicode="&#xf4;" horiz-adv-x="1219" d="M0 609.5q0 219.5 134 426.5t402.5 207t402.5 -207t134 -426.5t-134 -426.5t-403 -207q-268 0 -402 207t-134 426.5zM146 1365q249 146 244 244l49 49q98 -49 195 0l48 -49q5 -98 244 -244l-49 -48q-219 73 -341 146q-122 -73 -341 -146zM365.5 609.5 q-0.5 -463.5 170.5 -463.5t171 463.5t-170.5 463.5t-171 -463.5z" />
<glyph unicode="&#xf5;" horiz-adv-x="1219" d="M0 609.5q0 219.5 134 426.5t402.5 207t402.5 -207t134 -426.5t-134 -426.5t-403 -207q-268 0 -402 207t-134 426.5zM190.5 1480q17.5 79 82.5 115t153 17.5t179.5 -56.5t142 -42.5t69.5 8t22 27t-21 53.5l37 27q84 -85 66.5 -164.5t-86 -120t-155.5 -22t-178.5 56 t-139.5 48t-67 -2t-22.5 -28.5t20.5 -55l-38 -24q-82 84 -64.5 163zM365.5 609.5q-0.5 -463.5 170.5 -463.5t171 463.5t-170.5 463.5t-171 -463.5z" />
<glyph unicode="&#xf6;" horiz-adv-x="1219" d="M0 609.5q0 219.5 134 426.5t402.5 207t402.5 -207t134 -426.5t-134 -426.5t-403 -207q-268 0 -402 207t-134 426.5zM98 1463q0 34 36.5 90t134 56t134 -56t36.5 -90t-36 -90t-134 -56t-134.5 56t-36.5 90zM365.5 609.5q-0.5 -463.5 170.5 -463.5t171 463.5t-170.5 463.5 t-171 -463.5zM634 1463q0 34 37 90t134.5 56t134 -56t36.5 -90t-36.5 -90t-134.5 -56t-134.5 56t-36.5 90z" />
<glyph unicode="&#xf7;" horiz-adv-x="976" d="M0 488v195l49 48q49 -49 341.5 -48.5t340.5 48.5l49 -48v-195l-49 -49q-49 49 -341 49t-341 -49zM244 242q0 36 29 91t126.5 55t127 -55t29.5 -91t-29 -91t-127 -55t-127 55t-29 91zM244 924.5q0 36.5 29 91.5t126.5 55t127 -55t29.5 -91.5t-29 -91.5t-127 -55t-127 55 t-29 91.5z" />
<glyph unicode="&#xf8;" horiz-adv-x="1267" d="M-63 39q166 180 122 293q-49 78 -59 278q0 219 134 426t402 207q205 -5 298 -92q83 -63 253 78l49 -49q-166 -180 -122 -293q49 -78 59 -277q0 -219 -134 -426.5t-403 -207.5q-204 4 -297 92q-83 63 -254 -78zM365.5 609.5q-0.5 -463.5 170.5 -463.5t171 463.5 t-170.5 463.5t-171 -463.5z" />
<glyph unicode="&#xf9;" d="M0 1146l49 49l341 48l49 -48v-756q0 -293 171 -293t170 293q0 561 -97 707l48 49l342 48l49 -48v-756q0 -293 92 -390l-49 -49q-141 98 -287.5 37t-292.5 -61q-244 0 -365.5 134t-121.5 329v171q0 390 -98 536zM195 1599q122 10 293 108q107 -210 317 -342l-49 -48h-147 q-175 165 -365 209z" />
<glyph unicode="&#xfa;" d="M0 1146l49 49l341 48l49 -48v-756q0 -293 171 -293t170 293q0 561 -97 707l48 49l342 48l49 -48v-756q0 -293 92 -390l-49 -49q-141 98 -287.5 37t-292.5 -61q-244 0 -365.5 134t-121.5 329v171q0 390 -98 536zM293 1439l49 48q297 49 390 220q122 -98 244 -108l-49 -73 q-244 -14 -488 -209q-49 73 -146 122z" />
<glyph unicode="&#xfb;" d="M0 1146l49 49l341 48l49 -48v-756q0 -293 171 -293t170 293q0 561 -97 707l48 49l342 48l49 -48v-756q0 -293 92 -390l-49 -49q-141 98 -287.5 37t-292.5 -61q-244 0 -365.5 134t-121.5 329v171q0 390 -98 536zM195 1365q249 146 244 244l49 49q98 -49 195 0l48 -49 q5 -98 244 -244l-49 -48q-219 73 -341 146q-122 -73 -341 -146z" />
<glyph unicode="&#xfc;" d="M0 1146l49 49l341 48l49 -48v-756q0 -293 171 -293t170 293q0 561 -97 707l48 49l342 48l49 -48v-756q0 -293 92 -390l-49 -49q-141 98 -287.5 37t-292.5 -61q-244 0 -365.5 134t-121.5 329v171q0 390 -98 536zM146 1463q0 34 36.5 90t134 56t134 -56t36.5 -90t-36 -90 t-134 -56t-134.5 56t-36.5 90zM682 1463q0 34 37 90t134.5 56t134 -56t36.5 -90t-36.5 -90t-134.5 -56t-134.5 56t-36.5 90z" />
<glyph unicode="&#xfd;" horiz-adv-x="1150" d="M0 1019l10 83l439 166l53 -83q-24 -112 17.5 -283t148.5 -390q59 107 100 309.5t-56 348.5l49 49h341l49 -49q-112 -141 -234 -567.5t-98 -548.5l15 -54q-102 0 -321.5 -195t-317.5 -195l-49 49q200 161 266 354.5t-107 580t-305 425.5zM293 1439l49 48q297 49 390 220 q122 -98 244 -108l-49 -73q-244 -14 -488 -209q-49 73 -146 122z" />
<glyph unicode="&#xfe;" horiz-adv-x="1340" d="M0 -293q98 146 98 878t-98 878l49 49l390 48l49 -48l-49 -342q73 68 244 73q219 0 353 -207t134 -426.5t-134 -426.5t-402 -207q-122 10 -195 97q0 -268 97 -366l-48 -48h-439zM439 244q73 -98 171 -98q195 0 195 463.5t-171 463.5q-195 0 -195 -463v-366z" />
<glyph unicode="&#xff;" horiz-adv-x="1150" d="M0 1019l10 83l439 166l53 -83q-24 -112 17.5 -283t148.5 -390q59 107 100 309.5t-56 348.5l49 49h341l49 -49q-112 -141 -234 -567.5t-98 -548.5l15 -54q-102 0 -321.5 -195t-317.5 -195l-49 49q200 161 266 354.5t-107 580t-305 425.5zM171 1463q0 34 36.5 90t134 56 t134 -56t36.5 -90t-36 -90t-134 -56t-134.5 56t-36.5 90zM707 1463q0 34 37 90t134.5 56t134 -56t36.5 -90t-36.5 -90t-134.5 -56t-134.5 56t-36.5 90z" />
<glyph unicode="&#x152;" horiz-adv-x="1901" d="M0 731.5q0 292.5 158.5 512t426.5 219.5h1024l146 -390l-48 -49q-219 244 -537 244v-463q244 0 342 195l48 -25l-97 -487l-49 -25q-98 195 -244 195v-463q317 0 537 244l48 -49l-146 -390h-1024q-268 0 -426.5 219.5t-158.5 512zM414 731.5q0 -585.5 171 -585.5 q171 49 171 585.5t-171 585.5q-171 0 -171 -585.5z" />
<glyph unicode="&#x153;" horiz-adv-x="1901" d="M0 609.5q0 219.5 134 426.5t402 207q98 0 220 -36.5t244 0t219 36.5q268 0 402 -207t134 -426q-98 0 -292.5 -85.5t-292.5 -85.5l-48 49q107 49 153 134t115 109q0 341 -171 342q-171 0 -171 -463.5t220 -463.5q171 0 268 244h98q0 -268 48 -341q-283 -73 -463 -73 q-98 0 -219.5 36.5t-243.5 0t-220 -36.5q-268 0 -402 207t-134 426.5zM365.5 609.5q-0.5 -463.5 170.5 -463.5t171 463.5t-170.5 463.5t-171 -463.5z" />
<glyph unicode="&#x178;" d="M0 1414l49 49h536l49 -49q-73 -68 10 -307t122 -268q210 429 112 575l48 49h293l49 -49q-122 -146 -212.5 -324t-177.5 -476q0 -414 97 -565l-49 -49h-487l-49 49q98 146 98 387.5t-188 578t-300 399.5zM244 1658q0 34 36.5 90t134 56t134 -56t36.5 -90t-36 -90t-134 -56 t-134.5 56t-36.5 90zM780 1658q0 34 37 90t134.5 56t134 -56t36.5 -90t-36.5 -90t-134.5 -56t-134.5 56t-36.5 90z" />
<glyph unicode="&#x2c6;" horiz-adv-x="975" d="M0 1560q249 146 244 244l49 49q98 -49 195 0l48 -49q5 -98 244 -244l-49 -48q-219 73 -341 146q-122 -73 -341 -146z" />
<glyph unicode="&#x2dc;" horiz-adv-x="915" d="M-4.5 1675q17.5 79 82.5 115t153 17.5t179.5 -56.5t142 -42.5t69.5 8t22 27t-21 53.5l37 27q84 -85 66.5 -164.5t-86 -120t-155.5 -22t-178.5 56t-139.5 48t-67 -2t-22.5 -28.5t20.5 -55l-38 -24q-82 84 -64.5 163z" />
<glyph unicode="&#x2000;" horiz-adv-x="963" />
<glyph unicode="&#x2001;" horiz-adv-x="1926" />
<glyph unicode="&#x2002;" horiz-adv-x="963" />
<glyph unicode="&#x2003;" horiz-adv-x="1926" />
<glyph unicode="&#x2004;" horiz-adv-x="642" />
<glyph unicode="&#x2005;" horiz-adv-x="481" />
<glyph unicode="&#x2006;" horiz-adv-x="321" />
<glyph unicode="&#x2007;" horiz-adv-x="321" />
<glyph unicode="&#x2008;" horiz-adv-x="240" />
<glyph unicode="&#x2009;" horiz-adv-x="385" />
<glyph unicode="&#x200a;" horiz-adv-x="107" />
<glyph unicode="&#x2010;" horiz-adv-x="1121" d="M0 488q98 98 122 292q463 -98 756 0l48 -49q-98 -98 -121 -292q-463 98 -756 0z" />
<glyph unicode="&#x2011;" horiz-adv-x="1121" d="M0 488q98 98 122 292q463 -98 756 0l48 -49q-98 -98 -121 -292q-463 98 -756 0z" />
<glyph unicode="&#x2012;" horiz-adv-x="1121" d="M0 488q98 98 122 292q463 -98 756 0l48 -49q-98 -98 -121 -292q-463 98 -756 0z" />
<glyph unicode="&#x2013;" horiz-adv-x="1487" d="M0 488q98 98 122 292q829 -98 1121 0l49 -49q-98 -98 -122 -292q-828 98 -1121 0z" />
<glyph unicode="&#x2014;" horiz-adv-x="2462" d="M0 488q98 98 122 292q1804 -98 2097 0l48 -49q-98 -98 -121 -292q-1804 98 -2097 0z" />
<glyph unicode="&#x2018;" horiz-adv-x="585" d="M103 1560q202 39 288 -136q-200 -205 -39 -473l-54 -34q-307 194 -195 643z" />
<glyph unicode="&#x2019;" horiz-adv-x="594" d="M0 1424q86 176 288 136q112 -448 -195 -643l-54 34q161 268 -39 473z" />
<glyph unicode="&#x201a;" horiz-adv-x="536" d="M103 292q202 39 288 -136q-200 -205 -39 -473l-54 -34q-307 194 -195 643z" />
<glyph unicode="&#x201c;" horiz-adv-x="936" d="M103 1560q202 39 288 -136q-200 -205 -39 -473l-54 -34q-307 194 -195 643zM541 1560q202 39 288 -136q-200 -205 -39 -473l-54 -34q-307 194 -195 643z" />
<glyph unicode="&#x201d;" horiz-adv-x="936" d="M0 1424q86 176 288 136q112 -448 -195 -643l-54 34q161 268 -39 473zM439 1424q86 176 288 136q112 -448 -195 -643l-54 34q161 268 -39 473z" />
<glyph unicode="&#x201e;" horiz-adv-x="936" d="M103 390q202 39 288 -136q-200 -205 -39 -473l-54 -34q-307 194 -195 643zM541 390q202 39 288 -136q-200 -205 -39 -473l-54 -34q-307 194 -195 643z" />
<glyph unicode="&#x2022;" horiz-adv-x="780" d="M0 737.5q0 68.5 54.5 171.5t238 103t238 -103t54.5 -171.5t-54.5 -171.5t-237.5 -103t-238 103t-55 171.5z" />
<glyph unicode="&#x2026;" horiz-adv-x="1755" d="M0 158.5q0 45.5 36.5 114t158.5 68.5t158.5 -68.5t36.5 -114t-36.5 -114t-158.5 -68.5t-158.5 68.5t-36.5 114zM585 158.5q0 45.5 36.5 114t158.5 68.5t158.5 -68.5t36.5 -114t-36.5 -114t-158.5 -68.5t-158.5 68.5t-36.5 114zM1170 158.5q0 45.5 36.5 114t158.5 68.5 t158.5 -68.5t36.5 -114t-36.5 -114t-158.5 -68.5t-158.5 68.5t-36.5 114z" />
<glyph unicode="&#x202f;" horiz-adv-x="385" />
<glyph unicode="&#x2039;" horiz-adv-x="1072" d="M0 390v293l390 195l49 -49q-49 -24 -122 -158.5t-122 -134.5q49 0 122 -134t122 -158l-49 -49zM439 390v293l390 195l49 -49q-49 -24 -122 -158.5t-122 -134.5q49 0 122 -134t122 -158l-49 -49z" />
<glyph unicode="&#x203a;" horiz-adv-x="1072" d="M0 244q49 24 122 158.5t122 134.5q-49 0 -122 134t-122 158l49 49l390 -195v-293l-390 -195zM439 244q49 24 122 158.5t122 134.5q-49 0 -122 134t-122 158l49 49l390 -195v-293l-390 -195z" />
<glyph unicode="&#x205f;" horiz-adv-x="481" />
<glyph unicode="&#x2122;" horiz-adv-x="2252" d="M0 1293l110 292h732l109 -292l-37 -37q-168 183 -292 183q0 -805 72 -914l-36 -37h-366l-36 37q73 109 73 914q-124 0 -292 -183zM785 1377l7 62l293 183q216 -366 358 -556q150 137 388 556l209 -79l18 -71q-74 -16 -95 -50q0 -788 73 -897l-37 -37h-365l-37 37 q73 109 73 596q-132 -168 -274 -413h-37q-190 341 -274 438q0 -512 73 -621l-36 -37h-256l-37 37q73 109 73 778q-18 39 -117 74z" />
<glyph unicode="&#x25fc;" horiz-adv-x="1243" d="M0 0v1243h1243v-1243h-1243z" />
</font>
</defs>
</svg>
