<?xml version="1.0" standalone="no"?>
<!DOCTYPE svg PUBLIC "-//W3C//DTD SVG 1.1//EN" "http://www.w3.org/Graphics/SVG/1.1/DTD/svg11.dtd" >
<svg xmlns="http://www.w3.org/2000/svg" xmlns:xlink="http://www.w3.org/1999/xlink" version="1.1">
<metadata></metadata>
<defs>
<font id="kirstyitalic" horiz-adv-x="1067" >
<font-face units-per-em="2048" ascent="1638" descent="-410" />
<missing-glyph horiz-adv-x="452" />
<glyph horiz-adv-x="0" />
<glyph horiz-adv-x="0" />
<glyph horiz-adv-x="682" />
<glyph horiz-adv-x="452" />
<glyph unicode=" "  horiz-adv-x="452" />
<glyph unicode="&#x09;" horiz-adv-x="452" />
<glyph unicode="&#xa0;" horiz-adv-x="452" />
<glyph unicode="!" horiz-adv-x="538" d="M102 49l43 217l72 58h223l49 -58l-43 -217l-59 -49h-240zM272 477l35 692l58 295l96 135h239l41 -133l-59 -297l-236 -692h-174z" />
<glyph unicode="&#x22;" horiz-adv-x="808" d="M338 1495l14 74l97 137h172l38 -133l-16 -78l-197 -494h-100zM739 1495l15 74l96 137h172l39 -133l-17 -78l-196 -494h-100z" />
<glyph unicode="#" d="M168 508l31 162h178l51 260h-178l31 160h178l98 509h162l-98 -509h249l99 509h161l-98 -509h178l-30 -160h-179l-51 -260h178l-30 -162h-178l-99 -508h-162l99 508h-250l-98 -508h-162l98 508h-178zM539 670h249l52 260h-250z" />
<glyph unicode="$" horiz-adv-x="1114" d="M88 86l72 373l198 -127h211l62 313l-283 94l-88 236l57 299l166 239h316l26 136h125l-26 -136h368l-71 -372l-199 125h-145l-60 -297l258 -84l92 -236l-61 -321l-168 -242h-291l-26 -135h-125l26 135h-434zM565 1122l37 -82l98 -32l52 258h-119l-53 -68zM694 332h92 l54 71l18 99l-39 80l-71 22z" />
<glyph unicode="%" horiz-adv-x="1765" d="M233 895l91 461l172 243h1175l-1102 -1599h-157l999 1462h-428l33 -106l-90 -461l-168 -240h-445zM485 965l23 -68h151l46 68l61 315l-23 76h-143l-53 -76zM1051 240l90 460l172 244h446l76 -244l-90 -460l-168 -240h-447zM1303 313l18 -71h154l47 71l61 312l-22 77h-146 l-51 -77z" />
<glyph unicode="&#x26;" horiz-adv-x="1226" d="M115 242l53 274l151 229l189 138l-96 235l45 238l170 243h434l72 -241l-43 -223l-86 -127l-199 -160l115 -260l219 231l141 -170l-266 -276l164 -373h-297l-70 162l-154 -162h-469zM461 315l20 -79h107l133 141l-127 301l-88 -139zM680 1139l43 -103l111 113l26 137 l-20 70h-82l-49 -70z" />
<glyph unicode="'" horiz-adv-x="407" d="M338 1495l14 74l97 137h172l38 -133l-16 -78l-197 -494h-100z" />
<glyph unicode="(" horiz-adv-x="684" d="M223 2l312 1608l346 372h184l-352 -452l-283 -1448l176 -453h-184z" />
<glyph unicode=")" horiz-adv-x="561" d="M-68 -371l351 453l282 1448l-176 452h184l199 -372l-311 -1608l-346 -373h-183z" />
<glyph unicode="*" horiz-adv-x="983" d="M285 1374l372 -28l164 368l25 -368l383 28l-355 -209l66 -354l-248 240l-338 -240l207 354z" />
<glyph unicode="+" d="M209 719l31 162h383l75 391h162l-76 -391h385l-30 -162h-385l-76 -391h-162l76 391h-383z" />
<glyph unicode="," horiz-adv-x="436" d="M27 -199l149 224h-76l-41 51l37 190l72 58h223l51 -58l-36 -182l-220 -283h-159z" />
<glyph unicode="-" horiz-adv-x="847" d="M184 705l35 180h752l-35 -180h-752z" />
<glyph unicode="." horiz-adv-x="436" d="M53 49l43 217l72 58h223l51 -58l-43 -217l-61 -49h-240z" />
<glyph unicode="/" horiz-adv-x="827" d="M-18 -111l987 1817h184l-989 -1817h-182z" />
<glyph unicode="0" horiz-adv-x="1191" d="M133 242l217 1114l170 243h770l78 -241l-217 -1116l-170 -242h-770zM479 313l21 -71h282l49 71l189 967l-25 76h-276l-51 -76z" />
<glyph unicode="1" horiz-adv-x="739" d="M98 0l172 233l176 906h-176l45 231l185 62l80 167h286l-264 -1363l80 -236h-584z" />
<glyph unicode="2" horiz-adv-x="1138" d="M78 0l43 225l878 987l15 74l-21 70h-389l-246 -129l72 372h807l74 -243l-56 -285l-669 -760l-99 -69h383l250 131l-71 -373h-971z" />
<glyph unicode="3" horiz-adv-x="1034" d="M61 0l72 373l201 -129h313l49 75l56 291l-31 78h-285l47 242h283l63 78l54 272l-23 76h-309l-248 -129l72 372h782l74 -241l-66 -336l-125 -168l-108 -47l82 -41l69 -170l-67 -352l-168 -244h-787z" />
<glyph unicode="4" horiz-adv-x="1239" d="M154 680l903 919h405l-172 -225l-133 -684h148l-48 -244h-147l-41 -213l82 -233h-586l170 233l41 213h-555zM449 690h374l95 486z" />
<glyph unicode="5" horiz-adv-x="1150" d="M92 0l72 373l196 -131h396l55 77l57 297l-20 72h-508l-80 180l141 731h930l-71 -372l-199 129h-430l26 -70l-61 -309l18 -47h508l76 -242l-86 -444l-170 -244h-850z" />
<glyph unicode="6" horiz-adv-x="1245" d="M133 242l217 1114l170 243h862l-71 -372l-197 129h-395l-51 -76l-68 -348h629l74 -244l-89 -446l-165 -242h-838zM479 313l21 -71h350l47 71l57 289l-24 88h-377z" />
<glyph unicode="7" horiz-adv-x="1064" d="M113 0l215 227l561 1018l108 111h-422l-245 -129l71 372h828l65 -213l-639 -1159l47 -227h-589z" />
<glyph unicode="8" horiz-adv-x="1165" d="M111 242l69 352l135 174l97 39l-86 47l-64 168l66 336l168 241h792l74 -241l-66 -336l-125 -168l-106 -47l80 -39l69 -172l-69 -354l-166 -242h-793zM459 317l20 -75h297l51 75l56 293l-31 78h-272l-66 -78zM592 1008l37 -78h268l64 78l53 272l-23 76h-293l-53 -76z" />
<glyph unicode="9" horiz-adv-x="1243" d="M168 0l72 373l198 -131h389l60 77l71 373h-630l-72 244l82 422l166 241h839l74 -241l-215 -1114l-168 -244h-866zM604 1022l25 -88h377l69 352l-26 70h-349l-43 -70z" />
<glyph unicode=":" horiz-adv-x="620" d="M160 131l43 217l71 58h224l51 -58l-43 -217l-62 -49h-239zM272 715l43 217l72 57h223l52 -57l-44 -217l-61 -49h-240z" />
<glyph unicode=";" horiz-adv-x="620" d="M133 -117l150 223h-76l-41 52l37 190l71 58h224l51 -58l-37 -182l-219 -283h-160zM272 715l43 217l72 57h223l52 -57l-44 -217l-61 -49h-240z" />
<glyph unicode="&#x3c;" d="M233 737l25 125l711 387h295l-818 -442l644 -455h-295z" />
<glyph unicode="=" d="M193 520l30 162h930l-31 -162h-929zM270 918l31 159h930l-31 -159h-930z" />
<glyph unicode="&#x3e;" d="M160 352l817 445l-643 452h295l561 -385l-25 -125l-710 -387h-295z" />
<glyph unicode="?" horiz-adv-x="1040" d="M295 49l43 217l72 58h221l51 -58l-43 -217l-59 -49h-240zM295 1227l72 372h809l75 -243l-65 -342l-170 -240l-256 -88l-53 -65l-41 -152h-228l11 195l155 227l254 90l57 80l43 217l-26 78h-387z" />
<glyph unicode="@" horiz-adv-x="1388" d="M86 -18l221 1144l172 246h967l74 -244l-193 -989h-823l-47 142l45 235l102 143h326l31 156l-11 33h-186l-162 -88l49 252h488l39 -140l-111 -569h111l149 768l-24 76h-748l-51 -76l-193 -989l17 -98h966l-8 -39l-143 -205h-981zM676 336l10 -33h174l39 193h-174l-25 -33z " />
<glyph unicode="A" horiz-adv-x="1372" d="M12 0l189 221l561 1151l-57 227h436l110 -1366l109 -233h-582l137 223l-6 84h-403l-45 -96l55 -211h-504zM623 555h264l-37 481z" />
<glyph unicode="B" horiz-adv-x="1302" d="M76 0l170 223l223 1151l-84 225h1042l74 -241l-57 -301l-129 -166l-107 -47l82 -43l70 -172l-76 -387l-166 -242h-1042zM541 242h374l52 75l63 328l-35 76h-321l-80 -408zM721 965h319l66 77l47 238l-25 76h-368l24 -70z" />
<glyph unicode="C" horiz-adv-x="1073" d="M133 242l217 1114l170 243h785l-72 -372l-201 129h-313l-51 -80l-187 -959l21 -75h340l250 131l-72 -373h-809z" />
<glyph unicode="D" horiz-adv-x="1372" d="M76 0l168 219l225 1155l-84 225h1085l78 -241l-217 -1116l-170 -242h-1085zM541 242h422l51 75l186 963l-24 76h-416l24 -70l-190 -973z" />
<glyph unicode="E" horiz-adv-x="1196" d="M76 0l170 223l223 1151l-84 225h1059l-72 -372l-198 129h-414l24 -70l-63 -321h139l268 137l-100 -516l-217 135h-137l-80 -408l-53 -71h415l250 131l-71 -373h-1059z" />
<glyph unicode="F" horiz-adv-x="1163" d="M76 0l172 233l221 1141l-84 225h1059l-72 -372l-198 129h-414l24 -70l-63 -321h139l268 137l-100 -516l-217 135h-137l-94 -488l82 -233h-586z" />
<glyph unicode="G" horiz-adv-x="1222" d="M133 242l217 1114l170 243h852l-72 -372l-200 129h-381l-51 -78l-189 -963l21 -73h342l-23 71l55 283l-81 233h534l-172 -235l-72 -371l84 -223h-956z" />
<glyph unicode="H" horiz-adv-x="1509" d="M76 0l172 233l219 1133l-82 233h571l-174 -233l-77 -401h473l77 401l-81 233h569l-174 -235l-219 -1128l84 -236h-570l170 231l96 490h-473l-96 -492l84 -229h-569z" />
<glyph unicode="I" horiz-adv-x="737" d="M76 0l172 236l219 1128l-82 235h588l-174 -233l-221 -1135l84 -231h-586z" />
<glyph unicode="J" horiz-adv-x="1062" d="M29 0l71 373l199 -131h252l51 75l203 1051l-80 231h586l-172 -231l-219 -1126l-168 -242h-723z" />
<glyph unicode="K" horiz-adv-x="1495" d="M76 0l172 233l219 1131l-82 235h588l-174 -233l-70 -356l514 589h453l-330 -235l-395 -459l262 -586l248 -319h-615l56 154l-244 594l-98 -515l82 -233h-586z" />
<glyph unicode="L" horiz-adv-x="1120" d="M76 0l170 223l221 1141l-82 235h588l-174 -233l-205 -1053l-53 -71h370l250 131l-71 -373h-1014z" />
<glyph unicode="M" horiz-adv-x="1681" d="M76 0l170 231l223 1147l-84 221h567l64 -868l424 868h477l-172 -221l-223 -1149l84 -229h-519l173 231l139 717l-443 -948h-235l-72 969l-143 -738l86 -231h-516z" />
<glyph unicode="N" horiz-adv-x="1402" d="M76 0l170 231l225 1149l-86 219h389l334 -925l135 694l-82 231h518l-172 -229l-266 -1370h-250l-350 920l-135 -689l86 -231h-516z" />
<glyph unicode="O" horiz-adv-x="1257" d="M133 242l217 1114l170 243h838l74 -241l-218 -1116l-165 -242h-838zM481 313l21 -71h348l47 71l188 967l-24 76h-340l-51 -76z" />
<glyph unicode="P" horiz-adv-x="1320" d="M76 0l170 231l223 1143l-84 225h1061l76 -241l-92 -484l-173 -245h-610l-76 -393l82 -236h-577zM696 874h381l47 72l66 334l-23 76h-415l24 -70z" />
<glyph unicode="Q" horiz-adv-x="1259" d="M133 242l217 1114l170 243h838l74 -241l-218 -1116l-165 -242h-123l127 -135l-193 -187l-280 302l22 20h-391zM481 313l21 -71h348l47 71l188 967l-24 76h-340l-51 -76z" />
<glyph unicode="R" horiz-adv-x="1443" d="M76 0l168 221l225 1153l-84 225h1085l78 -241l-75 -389l-130 -166l-100 -49l74 -39l74 -172l-56 -287l76 -256h-336l-78 240l64 319l-33 74h-371l-122 -633h-459zM705 879h368l64 77l63 324l-24 76h-418l24 -74z" />
<glyph unicode="S" horiz-adv-x="1132" d="M84 0l72 373l196 -131h430l56 77l41 211l-39 86l-469 158l-90 244l65 338l170 243h809l-72 -372l-200 129h-389l-52 -76l-22 -117l35 -86l471 -159l92 -240l-84 -434l-168 -244h-852z" />
<glyph unicode="T" horiz-adv-x="1153" d="M240 1087l98 512h1096l-99 -512l-200 125l28 150h-155l-220 -1129l80 -233h-585l172 233l219 1129h-158l-29 -150z" />
<glyph unicode="U" horiz-adv-x="1337" d="M205 242l219 1124l-82 233h588l-170 -235l-205 -1051l18 -71h336l47 71l207 1057l-86 229h535l-172 -231l-219 -1126l-166 -242h-774z" />
<glyph unicode="V" horiz-adv-x="1372" d="M322 1599h581l-139 -225l63 -819l390 825l-52 219h504l-194 -227l-664 -1372h-272l-109 1354z" />
<glyph unicode="W" horiz-adv-x="2107" d="M322 1599h581l-145 -233l41 -797l491 1030h236l69 -1026l357 797l-58 229h510l-190 -229l-637 -1370h-270l-78 932l-457 -932h-270l-80 1366z" />
<glyph unicode="X" horiz-adv-x="1437" d="M12 0l264 246l431 575l-191 514l-174 264h588l-92 -213l108 -294l221 297l-20 210h559l-299 -251l-369 -500l222 -594l165 -254h-583l92 211l-135 362l-269 -356l13 -217h-531z" />
<glyph unicode="Y" horiz-adv-x="1331" d="M322 1599h591l-92 -213l82 -292l195 290l-13 215h541l-262 -249l-369 -533l-112 -579l82 -238h-588l170 231l115 584l-170 522z" />
<glyph unicode="Z" horiz-adv-x="1150" d="M98 217l807 1073l76 66h-397l-246 -129l72 372h864l65 -215l-811 -1079l-69 -63h436l246 131l-72 -373h-905z" />
<glyph unicode="[" horiz-adv-x="684" d="M141 -371l459 2353h420l-31 -157h-227l-397 -2038h227l-31 -158h-420z" />
<glyph unicode="\" horiz-adv-x="827" d="M332 1706h184l285 -1817h-185z" />
<glyph unicode="]" horiz-adv-x="684" d="M-23 -371l29 158h230l397 2038h-230l31 157h420l-459 -2353h-418z" />
<glyph unicode="^" horiz-adv-x="1030" d="M203 668l57 293l502 638h125l256 -638l-58 -293l-292 735z" />
<glyph unicode="_" horiz-adv-x="1130" d="M-49 -213l31 154h1144l-30 -154h-1145z" />
<glyph unicode="a" horiz-adv-x="1206" d="M109 211l49 258l159 209h588l13 63l-39 113h-387l-156 -94l61 319h725l95 -252l-121 -618l78 -209h-383l14 84l-127 -84h-494zM414 297l30 -88h291l92 65l43 230h-370l-64 -88z" />
<glyph unicode="b" horiz-adv-x="1249" d="M162 0l291 1499l-78 207h407l-135 -700l113 73h479l94 -252l-112 -577l-191 -250h-479l-98 86l-17 -86h-274zM508 293l67 -68h291l84 113l78 403l-39 113h-291l-94 -70z" />
<glyph unicode="c" horiz-adv-x="940" d="M123 250l113 577l192 252h668l-62 -319l-119 94h-323l-82 -113l-78 -403l37 -113h324l155 94l-61 -319h-668z" />
<glyph unicode="d" horiz-adv-x="1236" d="M123 250l113 577l192 252h479l82 -73l96 497l-73 203h403l-291 -1497l78 -209h-389l14 84l-129 -84h-479zM432 338l37 -113h293l88 66l96 495l-61 68h-293l-82 -113z" />
<glyph unicode="e" horiz-adv-x="1148" d="M123 250l113 577l192 252h719l94 -252l-70 -362h-714l-25 -127l37 -113h442l156 94l-61 -319h-787zM489 641h424l21 100l-39 113h-303l-82 -113z" />
<glyph unicode="f" horiz-adv-x="802" d="M53 0l156 207l129 663h-150l41 209h150l74 375l192 252h483l-61 -320l-119 95h-139l-84 -115l-55 -287h321l-41 -209h-321l-129 -663l78 -207h-525z" />
<glyph unicode="g" horiz-adv-x="1142" d="M-4 -315l29 165l96 136l-37 86l18 92l162 205l-90 235l43 223l195 252h602l166 291h239l-92 -227h-147l-58 -92l84 -224l-43 -223l-192 -250h-592l-41 -53l-10 -55l22 -33h676l92 -238l-41 -211l-186 -239h-840zM250 -227l18 -58h477l62 82l18 92l-30 76h-457l-70 -92z M459 664l41 -113h323l82 113l21 104l-39 115h-324l-84 -115z" />
<glyph unicode="h" horiz-adv-x="1333" d="M53 0l156 207l252 1292l-78 207h408l-136 -700l113 73h479l94 -252l-120 -618l77 -209h-493l121 176l110 565l-39 113h-292l-93 -70l-112 -577l78 -207h-525z" />
<glyph unicode="i" horiz-adv-x="612" d="M53 0l156 207l129 665l-76 207h408l-170 -872l78 -207h-525zM412 1294l32 174l62 50h184l41 -50l-33 -174l-51 -43h-201z" />
<glyph unicode="j" horiz-adv-x="657" d="M-88 -475l63 319l117 -94h94l80 113l197 1007l-78 209h408l-254 -1304l-193 -250h-434zM539 1294l32 174l62 50h184l41 -50l-33 -174l-51 -43h-201z" />
<glyph unicode="k" horiz-adv-x="1359" d="M53 0l156 207l252 1292l-78 207h408l-203 -1044l432 417h450l-299 -166l-319 -309l262 -399l236 -205h-580l45 109l-252 421l-63 -323l78 -207h-525z" />
<glyph unicode="l" horiz-adv-x="612" d="M53 0l156 207l252 1292l-78 207h408l-291 -1499l78 -207h-525z" />
<glyph unicode="m" horiz-adv-x="1904" d="M53 0l156 207l129 665l-76 207h391l-16 -86l131 86h406l36 -88l121 88h488l94 -252l-121 -618l78 -209h-524l157 209l105 532l-39 113h-238l-80 -66l-110 -573l76 -215h-508l157 215l103 530l-41 109h-223l-93 -70l-112 -577l78 -207h-525z" />
<glyph unicode="n" horiz-adv-x="1333" d="M53 0l156 207l129 665l-76 207h391l-16 -86l131 86h479l94 -252l-120 -618l77 -209h-524l158 209l104 532l-39 113h-292l-93 -70l-112 -577l78 -207h-525z" />
<glyph unicode="o" horiz-adv-x="1177" d="M123 250l113 577l192 252h739l97 -252l-113 -577l-193 -250h-739zM432 338l35 -113h328l84 113l77 403l-38 113h-328l-80 -113z" />
<glyph unicode="p" horiz-adv-x="1249" d="M-47 -475l156 207l221 1140l-76 207h391l-16 -86l131 86h479l94 -252l-112 -577l-191 -250h-479l-86 74l-66 -344l74 -205h-520zM508 293l67 -68h291l82 111l80 405l-39 113h-291l-94 -70z" />
<glyph unicode="q" horiz-adv-x="1236" d="M123 250l113 577l192 252h479l99 -86l16 86h389l-158 -211l-221 -1134l76 -209h-520l153 203l66 342l-109 -70h-479zM432 338l37 -113h293l88 66l96 495l-61 68h-293l-82 -113z" />
<glyph unicode="r" horiz-adv-x="1001" d="M53 0l156 207l129 665l-76 207h391l-24 -127l145 127h406l-62 -319l-119 94h-229l-172 -147l-98 -500l78 -207h-525z" />
<glyph unicode="s" horiz-adv-x="1044" d="M80 0l61 319l160 -124h393l47 49l23 116l-31 48l-438 92l-88 159l49 256l145 164h744l-62 -319l-161 121h-373l-39 -45l-12 -66l26 -47l453 -92l86 -162l-59 -305l-146 -164h-778z" />
<glyph unicode="t" horiz-adv-x="827" d="M188 870l41 209h150l35 178l342 269l-86 -447h325l-41 -209h-325l-103 -532l39 -113h140l155 94l-61 -319h-484l-98 250l121 620h-150z" />
<glyph unicode="u" horiz-adv-x="1312" d="M197 250l120 622l-75 207h524l-158 -211l-102 -528l41 -115h291l90 66l112 581l-75 207h405l-168 -868l78 -211h-391l14 84l-129 -84h-479z" />
<glyph unicode="v" horiz-adv-x="1318" d="M221 1079h565l-127 -157l105 -543l321 543l-63 157h496l-181 -161l-563 -918h-260l-176 907z" />
<glyph unicode="w" horiz-adv-x="1820" d="M219 1079h512l-123 -164l62 -524l385 688h205l98 -686l272 525l-61 161h450l-155 -155l-502 -924h-236l-100 625l-360 -625h-234l-117 913z" />
<glyph unicode="x" horiz-adv-x="1390" d="M12 0l260 184l357 355l-209 358l-180 182h602l-88 -135l116 -194l181 182l-27 147h553l-328 -211l-284 -282l264 -449l149 -137h-600l80 150l-135 227l-225 -227l22 -150h-508z" />
<glyph unicode="y" horiz-adv-x="1318" d="M51 -475l64 319l118 -94h101l133 119l63 108l-192 924l-119 178h563l-125 -157l103 -555l327 555l-65 157h496l-179 -157l-694 -1147l-272 -250h-322z" />
<glyph unicode="z" d="M84 150l657 690l68 43h-326l-239 -123l61 319h811l68 -151l-660 -692l-57 -37h354l242 120l-62 -319h-849z" />
<glyph unicode="{" horiz-adv-x="684" d="M223 -20l121 630l-92 197l168 192l123 633l336 350h182l-342 -432l-111 -567l-145 -176l76 -180l-111 -566l174 -432h-186z" />
<glyph unicode="|" horiz-adv-x="428" d="M66 -371l456 2349h148l-457 -2349h-147z" />
<glyph unicode="}" horiz-adv-x="684" d="M-59 -371l338 432l110 568l148 176l-78 180l110 565l-172 432h187l192 -350l-121 -631l93 -196l-168 -193l-123 -632l-336 -351h-180z" />
<glyph unicode="~" d="M197 659l28 152l281 156l391 -162l287 151l-29 -153l-274 -154l-392 166z" />
<glyph unicode="&#xa1;" horiz-adv-x="538" d="M14 -342l58 297l237 692h174l-37 -692l-57 -295l-96 -135h-240zM266 858l43 217l60 49h239l45 -49l-43 -217l-71 -57h-224z" />
<glyph unicode="&#xa2;" horiz-adv-x="935" d="M178 469l127 653l144 209h272l61 318h148l-62 -318h238l-66 -340l-172 117h-43l-123 -625h64l215 111l-66 -334h-256l-59 -309h-147l59 309h-272zM438 526l15 -43h102l123 625h-100l-35 -47z" />
<glyph unicode="&#xa3;" horiz-adv-x="1097" d="M14 0l168 219l92 467h-137l47 244h138l81 428l170 241h721l-71 -372l-199 129h-252l-47 -70l-70 -356h166l252 137l-100 -516l-193 135h-172l-88 -446h371l262 247l-94 -487h-1045z" />
<glyph unicode="&#xa4;" horiz-adv-x="1275" d="M92 360l244 201l-23 37l80 406l35 34l-166 203l207 172l152 -184l30 28h459l16 -28l226 184l137 -172l-244 -203l25 -34l-80 -406l-37 -37l166 -201l-207 -174l-151 185l-29 -27h-459l-16 27l-228 -185zM551 662l55 -93h279l92 93l55 278l-59 92h-279l-88 -92z" />
<glyph unicode="&#xa5;" horiz-adv-x="1388" d="M203 381l26 143h402l28 150h-401l29 143h381l-158 535l-162 247h592l-98 -221l82 -319l202 315l-14 225h541l-250 -235l-365 -547h381l-28 -143h-398l-28 -150h397l-27 -143h-397l-29 -143l82 -238h-588l170 231l31 150h-401z" />
<glyph unicode="&#xa6;" horiz-adv-x="428" d="M66 -371l172 883h147l-172 -883h-147zM360 1143l162 835h148l-162 -835h-148z" />
<glyph unicode="&#xa7;" horiz-adv-x="1019" d="M43 -260l57 301l146 -107h307l39 56l35 182l-23 55l-338 121l-69 180l55 289l127 189h174l-100 129l53 272l125 192h592l-58 -301l-149 107h-275l-41 -59l-18 -95l29 -57l340 -121l63 -182l-67 -352l-125 -191h-97l33 -61l-70 -357l-124 -190h-621zM428 645l27 -53 l118 -49h238l37 55l35 178l-15 35h-383l-36 -55z" />
<glyph unicode="&#xa9;" horiz-adv-x="1257" d="M133 242l217 1114l170 243h838l74 -241l-218 -1116l-165 -242h-838zM291 279l39 -129h653l92 124l203 1049l-43 125h-651l-90 -127zM485 516l111 561l86 123h399l-39 -209l-108 78h-146l-22 -33l-94 -483l8 -29h162l139 78l-41 -209h-414z" />
<glyph unicode="&#xaa;" horiz-adv-x="749" d="M205 672l28 145h601l-29 -145h-600zM262 1069l31 156l96 127h346l6 37l-20 61h-232l-92 -64l41 205h434l56 -149l-72 -371l47 -127h-239l8 45l-68 -45h-297zM451 1122l18 -47h172l47 35l25 131h-213l-35 -47z" />
<glyph unicode="&#xab;" horiz-adv-x="995" d="M109 539l415 540h189l-324 -540l115 -539h-189zM596 539l416 540h188l-323 -540l114 -539h-188z" />
<glyph unicode="&#xac;" d="M211 729l31 162h929l-172 -891h-161l141 729h-768z" />
<glyph unicode="&#xad;" horiz-adv-x="847" d="M184 705l35 180h752l-35 -180h-752z" />
<glyph unicode="&#xae;" horiz-adv-x="843" d="M266 926l103 522l102 151h522l45 -151l-102 -522l-102 -150h-523zM369 952l20 -80h402l57 78l92 473l-27 80h-399l-53 -80zM440 977l47 63l60 299l-21 74h295l21 -65l-21 -107l-35 -45l-24 -12l18 -10l21 -44l-17 -83l19 -70h-98l-23 65l18 91l-6 16h-88l-35 -172h-131z M621 1225h92l8 12l16 88l-2 14h-104l6 -22z" />
<glyph unicode="&#xb0;" horiz-adv-x="600" d="M248 1104l76 391l73 104h424l33 -104l-76 -391l-71 -103h-422zM385 1145h274l62 311h-275z" />
<glyph unicode="&#xb1;" d="M70 0l30 162h930l-31 -162h-929zM209 719l31 162h383l75 391h162l-76 -391h385l-30 -162h-385l-76 -391h-162l76 391h-383z" />
<glyph unicode="&#xb2;" horiz-adv-x="653" d="M233 801l23 119l391 469l8 36l-10 27h-147l-131 -76l43 223h401l41 -120l-29 -142l-272 -336l-82 -55h149l146 82l-43 -227h-488z" />
<glyph unicode="&#xb3;" horiz-adv-x="620" d="M217 801l43 223l105 -78h153l19 29l24 125l-8 28h-152l27 146h150l22 29l25 120l-11 29h-151l-135 -76l43 223h434l39 -120l-35 -176l-57 -80l-58 -23l45 -18l31 -82l-35 -178l-84 -121h-434z" />
<glyph unicode="&#xb6;" horiz-adv-x="1353" d="M291 1116l47 242l170 241h1100l-164 -217l-363 -1857h-223l356 1831h-317l-356 -1831h-226l263 1345h-211z" />
<glyph unicode="&#xb7;" horiz-adv-x="436" d="M172 670l43 217l72 57h223l51 -57l-43 -217l-61 -49h-240z" />
<glyph unicode="&#xb9;" horiz-adv-x="464" d="M229 801l80 102l86 443h-86l27 139l94 31l41 83h182l-133 -692l43 -106h-334z" />
<glyph unicode="&#xba;" horiz-adv-x="749" d="M205 672l28 145h601l-29 -145h-600zM276 1094l68 348l117 149h442l58 -149l-68 -348l-117 -150h-442zM467 1147l22 -62h191l43 62l47 242l-20 61h-191l-45 -61z" />
<glyph unicode="&#xbb;" horiz-adv-x="995" d="M4 0l322 541l-113 538h186l209 -538l-418 -541h-186zM492 0l321 541l-113 538h187l209 -538l-418 -541h-186z" />
<glyph unicode="&#xbc;" horiz-adv-x="1458" d="M14 0l1438 1599h182l-1435 -1599h-185zM281 801l79 102l86 443h-86l27 139l94 31l41 83h183l-134 -692l43 -106h-333zM803 356l450 443h242l-84 -117l-61 -322h73l-28 -145h-74l-23 -113l43 -102h-335l86 109l20 106h-274zM989 360h152l35 185z" />
<glyph unicode="&#xbd;" horiz-adv-x="1484" d="M14 0l1438 1599h182l-1435 -1599h-185zM281 801l79 102l86 443h-86l27 139l94 31l41 83h183l-134 -692l43 -106h-333zM952 0l23 119l391 469l8 37l-10 26h-147l-132 -76l43 224h402l41 -121l-29 -141l-272 -336l-82 -56h149l146 82l-43 -227h-488z" />
<glyph unicode="&#xbe;" horiz-adv-x="1484" d="M76 0l1437 1599h183l-1436 -1599h-184zM201 801l43 223l104 -78h154l18 29l25 125l-8 28h-152l27 146h149l23 29l24 120l-10 29h-152l-135 -76l43 223h434l39 -120l-34 -176l-58 -80l-57 -23l45 -18l31 -82l-35 -178l-84 -121h-434zM864 356l451 443h241l-83 -117 l-62 -322h74l-29 -145h-74l-22 -113l43 -102h-336l86 109l21 106h-275zM1051 360h151l35 185z" />
<glyph unicode="&#xbf;" horiz-adv-x="1040" d="M6 -231l66 342l168 239l258 88l51 66l41 151h227l-10 -194l-156 -228l-252 -90l-57 -80l-43 -217l27 -77h385l252 129l-74 -373h-811zM573 858l43 217l62 49h240l45 -49l-43 -217l-72 -57h-223z" />
<glyph unicode="&#xc0;" horiz-adv-x="1372" d="M12 0l189 221l561 1151l-57 227h436l110 -1366l109 -233h-582l137 223l-6 84h-403l-45 -96l55 -211h-504zM623 555h264l-37 481zM713 1982h270l197 -327h-187z" />
<glyph unicode="&#xc1;" horiz-adv-x="1372" d="M12 0l189 221l561 1151l-57 227h436l110 -1366l109 -233h-582l137 223l-6 84h-403l-45 -96l55 -211h-504zM623 555h264l-37 481zM766 1655l324 327h268l-404 -327h-188z" />
<glyph unicode="&#xc2;" horiz-adv-x="1372" d="M12 0l189 221l561 1151l-57 227h436l110 -1366l109 -233h-582l137 223l-6 84h-403l-45 -96l55 -211h-504zM596 1655l311 327h248l182 -327h-188l-141 200l-217 -200h-195zM623 555h264l-37 481z" />
<glyph unicode="&#xc3;" horiz-adv-x="1372" d="M12 0l189 221l561 1151l-57 227h436l110 -1366l109 -233h-582l137 223l-6 84h-403l-45 -96l55 -211h-504zM571 1808l187 166h172l246 -149l167 143l82 -137l-186 -168h-184l-234 149l-170 -143zM623 555h264l-37 481z" />
<glyph unicode="&#xc4;" horiz-adv-x="1372" d="M12 0l189 221l561 1151l-57 227h436l110 -1366l109 -233h-582l137 223l-6 84h-403l-45 -96l55 -211h-504zM623 555h264l-37 481zM625 1761l30 158l60 49h186l41 -49l-31 -158l-51 -43h-201zM1065 1761l31 158l57 49h184l43 -49l-30 -158l-50 -43h-200z" />
<glyph unicode="&#xc5;" horiz-adv-x="1372" d="M12 0l189 221l561 1151l-57 227h436l110 -1366l109 -233h-582l137 223l-6 84h-403l-45 -96l55 -211h-504zM623 555h264l-37 481zM721 1704l39 194l94 84h354l60 -84l-39 -194l-92 -84h-355zM893 1739l20 -33h125l37 33l23 125l-23 32h-125l-35 -32z" />
<glyph unicode="&#xc6;" horiz-adv-x="1792" d="M4 0l186 219l562 1153l-56 227h1344l-72 -372l-196 129h-379l24 -70l-63 -321h104l268 137l-100 -516l-217 135h-102l-80 -408l-53 -71h380l248 131l-71 -373h-1022l170 223l34 187h-370l-92 -197l57 -213h-504zM659 655h304l139 719l-6 15h-92z" />
<glyph unicode="&#xc7;" horiz-adv-x="1073" d="M133 242l217 1114l170 243h785l-72 -372l-201 129h-313l-51 -80l-187 -959l21 -75h340l250 131l-72 -373h-809zM379 -475l29 145h94l24 35l17 90l-62 152h158l106 -140l-32 -176l-74 -106h-260z" />
<glyph unicode="&#xc8;" horiz-adv-x="1196" d="M76 0l170 223l223 1151l-84 225h1059l-72 -372l-198 129h-414l24 -70l-63 -321h139l268 137l-100 -516l-217 135h-137l-80 -408l-53 -71h415l250 131l-71 -373h-1059zM707 1982h270l197 -327h-187z" />
<glyph unicode="&#xc9;" horiz-adv-x="1196" d="M76 0l170 223l223 1151l-84 225h1059l-72 -372l-198 129h-414l24 -70l-63 -321h139l268 137l-100 -516l-217 135h-137l-80 -408l-53 -71h415l250 131l-71 -373h-1059zM760 1655l323 327h269l-404 -327h-188z" />
<glyph unicode="&#xca;" horiz-adv-x="1196" d="M76 0l170 223l223 1151l-84 225h1059l-72 -372l-198 129h-414l24 -70l-63 -321h139l268 137l-100 -516l-217 135h-137l-80 -408l-53 -71h415l250 131l-71 -373h-1059zM590 1655l311 327h248l182 -327h-188l-142 200l-217 -200h-194z" />
<glyph unicode="&#xcb;" horiz-adv-x="1196" d="M76 0l170 223l223 1151l-84 225h1059l-72 -372l-198 129h-414l24 -70l-63 -321h139l268 137l-100 -516l-217 135h-137l-80 -408l-53 -71h415l250 131l-71 -373h-1059zM618 1761l31 158l60 49h186l41 -49l-31 -158l-51 -43h-201zM1059 1761l31 158l57 49h184l43 -49 l-31 -158l-49 -43h-200z" />
<glyph unicode="&#xcc;" horiz-adv-x="737" d="M76 0l172 236l219 1128l-82 235h588l-174 -233l-221 -1135l84 -231h-586zM436 1982h271l196 -327h-186z" />
<glyph unicode="&#xcd;" horiz-adv-x="737" d="M76 0l172 236l219 1128l-82 235h588l-174 -233l-221 -1135l84 -231h-586zM489 1655l324 327h268l-403 -327h-189z" />
<glyph unicode="&#xce;" horiz-adv-x="737" d="M76 0l172 236l219 1128l-82 235h588l-174 -233l-221 -1135l84 -231h-586zM319 1655l312 327h248l182 -327h-189l-141 200l-217 -200h-195z" />
<glyph unicode="&#xcf;" horiz-adv-x="737" d="M76 0l172 236l219 1128l-82 235h588l-174 -233l-221 -1135l84 -231h-586zM348 1761l31 158l59 49h187l41 -49l-31 -158l-51 -43h-201zM788 1761l31 158l58 49h184l43 -49l-31 -158l-49 -43h-201z" />
<glyph unicode="&#xd0;" horiz-adv-x="1372" d="M76 0l168 219l98 502h-199l47 244h199l80 409l-84 225h1085l78 -241l-217 -1116l-170 -242h-1085zM541 242h422l51 75l186 963l-24 76h-416l24 -70l-63 -321h274l-47 -244h-274l-80 -408z" />
<glyph unicode="&#xd1;" horiz-adv-x="1402" d="M76 0l170 231l225 1149l-86 219h389l334 -925l135 694l-82 231h518l-172 -229l-266 -1370h-250l-350 920l-135 -689l86 -231h-516zM651 1808l187 166h172l245 -149l168 143l82 -137l-186 -168h-184l-234 149l-170 -143z" />
<glyph unicode="&#xd2;" horiz-adv-x="1257" d="M133 242l217 1114l170 243h838l74 -241l-218 -1116l-165 -242h-838zM481 313l21 -71h348l47 71l188 967l-24 76h-340l-51 -76zM700 1982h271l196 -327h-186z" />
<glyph unicode="&#xd3;" horiz-adv-x="1257" d="M133 242l217 1114l170 243h838l74 -241l-218 -1116l-165 -242h-838zM481 313l21 -71h348l47 71l188 967l-24 76h-340l-51 -76zM754 1655l323 327h269l-404 -327h-188z" />
<glyph unicode="&#xd4;" horiz-adv-x="1257" d="M133 242l217 1114l170 243h838l74 -241l-218 -1116l-165 -242h-838zM481 313l21 -71h348l47 71l188 967l-24 76h-340l-51 -76zM584 1655l311 327h248l182 -327h-188l-142 200l-217 -200h-194z" />
<glyph unicode="&#xd5;" horiz-adv-x="1257" d="M133 242l217 1114l170 243h838l74 -241l-218 -1116l-165 -242h-838zM481 313l21 -71h348l47 71l188 967l-24 76h-340l-51 -76zM559 1808l186 166h173l245 -149l168 143l82 -137l-186 -168h-185l-233 149l-170 -143z" />
<glyph unicode="&#xd6;" horiz-adv-x="1257" d="M133 242l217 1114l170 243h838l74 -241l-218 -1116l-165 -242h-838zM481 313l21 -71h348l47 71l188 967l-24 76h-340l-51 -76zM612 1761l31 158l59 49h187l41 -49l-31 -158l-51 -43h-201zM1053 1761l30 158l58 49h184l43 -49l-31 -158l-49 -43h-201z" />
<glyph unicode="&#xd7;" d="M211 494l362 303l-243 305l135 112l244 -303l362 303l92 -112l-364 -305l245 -303l-135 -113l-245 303l-361 -303z" />
<glyph unicode="&#xd8;" horiz-adv-x="1257" d="M23 -156l161 230l-51 168l217 1114l170 243h754l112 156h164l-168 -235l50 -162l-218 -1116l-165 -242h-752l-111 -156h-163zM494 274l8 -32h348l47 71l141 725zM528 553l545 764l-12 39h-340l-51 -76z" />
<glyph unicode="&#xd9;" horiz-adv-x="1337" d="M205 242l219 1124l-82 233h588l-170 -235l-205 -1051l18 -71h336l47 71l207 1057l-86 229h535l-172 -231l-219 -1126l-166 -242h-774zM770 1982h270l197 -327h-186z" />
<glyph unicode="&#xda;" horiz-adv-x="1337" d="M205 242l219 1124l-82 233h588l-170 -235l-205 -1051l18 -71h336l47 71l207 1057l-86 229h535l-172 -231l-219 -1126l-166 -242h-774zM823 1655l324 327h268l-403 -327h-189z" />
<glyph unicode="&#xdb;" horiz-adv-x="1337" d="M205 242l219 1124l-82 233h588l-170 -235l-205 -1051l18 -71h336l47 71l207 1057l-86 229h535l-172 -231l-219 -1126l-166 -242h-774zM653 1655l312 327h247l183 -327h-189l-141 200l-217 -200h-195z" />
<glyph unicode="&#xdc;" horiz-adv-x="1337" d="M205 242l219 1124l-82 233h588l-170 -235l-205 -1051l18 -71h336l47 71l207 1057l-86 229h535l-172 -231l-219 -1126l-166 -242h-774zM682 1761l31 158l59 49h186l41 -49l-30 -158l-51 -43h-201zM1122 1761l31 158l57 49h185l43 -49l-31 -158l-49 -43h-201z" />
<glyph unicode="&#xdd;" horiz-adv-x="1331" d="M322 1599h591l-92 -213l82 -292l195 290l-13 215h541l-262 -249l-369 -533l-112 -579l82 -238h-588l170 231l115 584l-170 522zM819 1655l324 327h268l-403 -327h-189z" />
<glyph unicode="&#xde;" horiz-adv-x="1304" d="M78 0l170 231l221 1137l-82 231h578l-172 -235l-15 -78h615l75 -242l-98 -497l-170 -246h-614l-13 -65l82 -236h-577zM633 545h387l47 71l68 351l-21 77h-383z" />
<glyph unicode="&#xdf;" horiz-adv-x="1284" d="M53 0l156 207l244 1247l192 252h649l99 -252l-74 -373l-102 -137l-93 -33l142 -28l88 -144l-113 -575l-145 -164h-508l61 319l121 -94h170l37 41l86 443l-47 65h-230l43 223h146l57 74l58 289l-48 121h-231l-86 -115l-264 -1366h-408z" />
<glyph unicode="&#xe0;" horiz-adv-x="1206" d="M109 211l49 258l159 209h588l13 63l-39 113h-387l-156 -94l61 319h725l95 -252l-121 -618l78 -209h-383l14 84l-127 -84h-494zM414 297l30 -88h291l92 65l43 230h-370l-64 -88zM596 1585h270l146 -389h-189z" />
<glyph unicode="&#xe1;" horiz-adv-x="1206" d="M109 211l49 258l159 209h588l13 63l-39 113h-387l-156 -94l61 319h725l95 -252l-121 -618l78 -209h-383l14 84l-127 -84h-494zM414 297l30 -88h291l92 65l43 230h-370l-64 -88zM641 1196l295 389h270l-379 -389h-186z" />
<glyph unicode="&#xe2;" horiz-adv-x="1206" d="M109 211l49 258l159 209h588l13 63l-39 113h-387l-156 -94l61 319h725l95 -252l-121 -618l78 -209h-383l14 84l-127 -84h-494zM414 297l30 -88h291l92 65l43 230h-370l-64 -88zM455 1196l323 389h248l172 -389h-190l-134 238l-229 -238h-190z" />
<glyph unicode="&#xe3;" horiz-adv-x="1206" d="M109 211l49 258l159 209h588l13 63l-39 113h-387l-156 -94l61 319h725l95 -252l-121 -618l78 -209h-383l14 84l-127 -84h-494zM414 297l30 -88h291l92 65l43 230h-370l-64 -88zM430 1337l186 166h172l246 -149l170 145l80 -139l-186 -168h-185l-235 149l-170 -145z" />
<glyph unicode="&#xe4;" horiz-adv-x="1206" d="M109 211l49 258l159 209h588l13 63l-39 113h-387l-156 -94l61 319h725l95 -252l-121 -618l78 -209h-383l14 84l-127 -84h-494zM414 297l30 -88h291l92 65l43 230h-370l-64 -88zM483 1294l33 174l62 50h184l41 -50l-33 -174l-51 -43h-201zM924 1294l32 174l62 50h184 l41 -50l-33 -174l-51 -43h-201z" />
<glyph unicode="&#xe5;" horiz-adv-x="1206" d="M109 211l49 258l159 209h588l13 63l-39 113h-387l-156 -94l61 319h725l95 -252l-121 -618l78 -209h-383l14 84l-127 -84h-494zM414 297l30 -88h291l92 65l43 230h-370l-64 -88zM586 1262l41 213l98 110h354l56 -110l-41 -213l-99 -111h-354zM756 1298l18 -41h129l35 41 l27 138l-19 43h-129l-35 -43z" />
<glyph unicode="&#xe6;" horiz-adv-x="1806" d="M109 211l43 229l159 211h563l19 90l-51 113h-350l-156 -94l61 319h604l74 -118l125 118h604l94 -252l-67 -352h-701l-26 -137l39 -113h428l155 94l-61 -319h-666l-106 133l-156 -133h-553zM414 297l30 -88h252l109 78l37 188h-346l-66 -86zM1163 651h412l18 90l-39 113 h-288l-84 -113z" />
<glyph unicode="&#xe7;" horiz-adv-x="940" d="M123 250l113 577l192 252h668l-62 -319l-119 94h-323l-82 -113l-78 -403l37 -113h324l155 94l-61 -319h-668zM375 -475l28 145h95l24 35l17 90l-62 152h158l106 -140l-32 -176l-74 -106h-260z" />
<glyph unicode="&#xe8;" horiz-adv-x="1148" d="M123 250l113 577l192 252h719l94 -252l-70 -362h-714l-25 -127l37 -113h442l156 94l-61 -319h-787zM489 641h424l21 100l-39 113h-303l-82 -113zM604 1585h270l146 -389h-189z" />
<glyph unicode="&#xe9;" horiz-adv-x="1148" d="M123 250l113 577l192 252h719l94 -252l-70 -362h-714l-25 -127l37 -113h442l156 94l-61 -319h-787zM489 641h424l21 100l-39 113h-303l-82 -113zM649 1196l295 389h270l-378 -389h-187z" />
<glyph unicode="&#xea;" horiz-adv-x="1148" d="M123 250l113 577l192 252h719l94 -252l-70 -362h-714l-25 -127l37 -113h442l156 94l-61 -319h-787zM463 1196l323 389h248l172 -389h-190l-133 238l-230 -238h-190zM489 641h424l21 100l-39 113h-303l-82 -113z" />
<glyph unicode="&#xeb;" horiz-adv-x="1148" d="M123 250l113 577l192 252h719l94 -252l-70 -362h-714l-25 -127l37 -113h442l156 94l-61 -319h-787zM489 641h424l21 100l-39 113h-303l-82 -113zM492 1294l32 174l62 50h184l41 -50l-33 -174l-51 -43h-201zM932 1294l33 174l61 50h184l41 -50l-32 -174l-52 -43h-200z" />
<glyph unicode="&#xec;" horiz-adv-x="612" d="M53 0l156 207l129 665l-76 207h408l-170 -872l78 -207h-525zM303 1585h270l146 -389h-189z" />
<glyph unicode="&#xed;" horiz-adv-x="612" d="M53 0l156 207l129 665l-76 207h408l-170 -872l78 -207h-525zM348 1196l295 389h270l-378 -389h-187z" />
<glyph unicode="&#xee;" horiz-adv-x="645" d="M70 0l155 207l129 665l-75 207h407l-170 -872l78 -207h-524zM178 1196l324 389h248l172 -389h-191l-133 238l-229 -238h-191z" />
<glyph unicode="&#xef;" horiz-adv-x="727" d="M115 0l155 207l129 665l-75 207h407l-170 -872l78 -207h-524zM252 1294l33 174l61 50h184l41 -50l-32 -174l-52 -43h-200zM692 1294l33 174l61 50h185l41 -50l-33 -174l-51 -43h-201z" />
<glyph unicode="&#xf0;" horiz-adv-x="1243" d="M186 250l113 577l195 252h475l102 -86l76 398l-27 73h-297l-155 -202h-146l156 202h-158l49 244h299l93 121h145l-92 -121h364l74 -242l-238 -1216l-190 -250h-739zM496 338l39 -113h327l82 113l84 432l-84 84h-287l-84 -113z" />
<glyph unicode="&#xf1;" horiz-adv-x="1333" d="M53 0l156 207l129 665l-76 207h391l-16 -86l131 86h479l94 -252l-120 -618l77 -209h-524l158 209l104 532l-39 113h-292l-93 -70l-112 -577l78 -207h-525zM510 1337l186 166h172l246 -149l170 145l80 -139l-186 -168h-185l-235 149l-170 -145z" />
<glyph unicode="&#xf2;" horiz-adv-x="1177" d="M123 250l113 577l192 252h739l97 -252l-113 -577l-193 -250h-739zM432 338l35 -113h328l84 113l77 403l-38 113h-328l-80 -113zM594 1585h270l146 -389h-189z" />
<glyph unicode="&#xf3;" horiz-adv-x="1177" d="M123 250l113 577l192 252h739l97 -252l-113 -577l-193 -250h-739zM432 338l35 -113h328l84 113l77 403l-38 113h-328l-80 -113zM639 1196l295 389h270l-379 -389h-186z" />
<glyph unicode="&#xf4;" horiz-adv-x="1177" d="M123 250l113 577l192 252h739l97 -252l-113 -577l-193 -250h-739zM432 338l35 -113h328l84 113l77 403l-38 113h-328l-80 -113zM453 1196l323 389h248l172 -389h-190l-134 238l-229 -238h-190z" />
<glyph unicode="&#xf5;" horiz-adv-x="1177" d="M123 250l113 577l192 252h739l97 -252l-113 -577l-193 -250h-739zM428 1337l186 166h172l246 -149l170 145l80 -139l-186 -168h-185l-235 149l-170 -145zM432 338l35 -113h328l84 113l77 403l-38 113h-328l-80 -113z" />
<glyph unicode="&#xf6;" horiz-adv-x="1177" d="M123 250l113 577l192 252h739l97 -252l-113 -577l-193 -250h-739zM432 338l35 -113h328l84 113l77 403l-38 113h-328l-80 -113zM481 1294l33 174l61 50h185l41 -50l-33 -174l-51 -43h-201zM922 1294l32 174l62 50h184l41 -50l-33 -174l-51 -43h-201z" />
<glyph unicode="&#xf7;" d="M209 719l31 162h929l-30 -162h-930zM412 293l43 223l75 62h240l45 -54l-45 -229l-68 -55h-247zM565 1075l43 223l76 62h240l45 -53l-45 -230l-70 -55h-248z" />
<glyph unicode="&#xf8;" horiz-adv-x="1177" d="M31 -123l162 184l-70 189l113 577l192 252h664l108 123h156l-166 -186l74 -189l-113 -577l-193 -250h-663l-109 -123h-155zM430 332l463 522h-303l-80 -113zM494 225h301l84 113l79 414z" />
<glyph unicode="&#xf9;" horiz-adv-x="1312" d="M197 250l120 622l-75 207h524l-158 -211l-102 -528l41 -115h291l90 66l112 581l-75 207h405l-168 -868l78 -211h-391l14 84l-129 -84h-479zM659 1585h271l145 -389h-188z" />
<glyph unicode="&#xfa;" horiz-adv-x="1312" d="M197 250l120 622l-75 207h524l-158 -211l-102 -528l41 -115h291l90 66l112 581l-75 207h405l-168 -868l78 -211h-391l14 84l-129 -84h-479zM705 1196l294 389h271l-379 -389h-186z" />
<glyph unicode="&#xfb;" horiz-adv-x="1312" d="M197 250l120 622l-75 207h524l-158 -211l-102 -528l41 -115h291l90 66l112 581l-75 207h405l-168 -868l78 -211h-391l14 84l-129 -84h-479zM518 1196l324 389h248l172 -389h-191l-133 238l-229 -238h-191z" />
<glyph unicode="&#xfc;" horiz-adv-x="1312" d="M197 250l120 622l-75 207h524l-158 -211l-102 -528l41 -115h291l90 66l112 581l-75 207h405l-168 -868l78 -211h-391l14 84l-129 -84h-479zM547 1294l33 174l61 50h184l41 -50l-32 -174l-52 -43h-200zM987 1294l33 174l61 50h185l41 -50l-33 -174l-51 -43h-201z" />
<glyph unicode="&#xfd;" horiz-adv-x="1318" d="M51 -475l64 319l118 -94h101l133 119l63 108l-192 924l-119 178h563l-125 -157l103 -555l327 555l-65 157h496l-179 -157l-694 -1147l-272 -250h-322zM754 1196l295 389h270l-379 -389h-186z" />
<glyph unicode="&#xfe;" horiz-adv-x="1249" d="M-33 -475l156 207l344 1767l-78 207h408l-135 -700l112 73h479l95 -252l-113 -577l-191 -250h-479l-86 72l-65 -344l71 -203h-518zM522 293l66 -68h293l82 113l77 403l-36 113h-293l-93 -70z" />
<glyph unicode="&#xff;" horiz-adv-x="1318" d="M51 -475l64 319l118 -94h101l133 119l63 108l-192 924l-119 178h563l-125 -157l103 -555l327 555l-65 157h496l-179 -157l-694 -1147l-272 -250h-322zM596 1294l33 174l61 50h184l41 -50l-32 -174l-52 -43h-200zM1036 1294l33 174l61 50h185l41 -50l-33 -174l-51 -43 h-201z" />
<glyph unicode="&#x152;" horiz-adv-x="1734" d="M133 242l217 1114l170 243h1462l-71 -372l-199 129h-369l25 -70l-63 -321h94l268 137l-100 -516l-215 135h-95l-79 -408l-54 -71h371l250 131l-72 -373h-1462zM481 313l21 -71h327l218 1114h-326l-51 -74z" />
<glyph unicode="&#x153;" horiz-adv-x="1843" d="M123 250l113 577l192 252h635l55 -145l111 145h612l94 -252l-69 -362h-692l-25 -127l39 -113h418l157 94l-61 -319h-682l-55 143l-111 -143h-635zM432 338l35 -113h305l84 113l78 403l-39 113h-305l-80 -113zM1206 641h404l20 100l-39 113h-280l-84 -113z" />
<glyph unicode="&#x178;" horiz-adv-x="1331" d="M322 1599h591l-92 -213l82 -292l195 290l-13 215h541l-262 -249l-369 -533l-112 -579l82 -238h-588l170 231l115 584l-170 522zM678 1761l31 158l59 49h186l41 -49l-30 -158l-52 -43h-200zM1118 1761l31 158l57 49h185l43 -49l-31 -158l-49 -43h-201z" />
<glyph unicode="&#x2000;" horiz-adv-x="991" />
<glyph unicode="&#x2001;" horiz-adv-x="1982" />
<glyph unicode="&#x2002;" horiz-adv-x="991" />
<glyph unicode="&#x2003;" horiz-adv-x="1982" />
<glyph unicode="&#x2004;" horiz-adv-x="660" />
<glyph unicode="&#x2005;" horiz-adv-x="495" />
<glyph unicode="&#x2006;" horiz-adv-x="330" />
<glyph unicode="&#x2007;" horiz-adv-x="330" />
<glyph unicode="&#x2008;" horiz-adv-x="247" />
<glyph unicode="&#x2009;" horiz-adv-x="396" />
<glyph unicode="&#x200a;" horiz-adv-x="110" />
<glyph unicode="&#x2010;" horiz-adv-x="847" d="M184 705l35 180h752l-35 -180h-752z" />
<glyph unicode="&#x2011;" horiz-adv-x="847" d="M184 705l35 180h752l-35 -180h-752z" />
<glyph unicode="&#x2012;" horiz-adv-x="847" d="M184 705l35 180h752l-35 -180h-752z" />
<glyph unicode="&#x2013;" horiz-adv-x="1060" d="M184 705l35 180h963l-35 -180h-963z" />
<glyph unicode="&#x2014;" horiz-adv-x="1460" d="M184 705l35 180h1362l-35 -180h-1362z" />
<glyph unicode="&#x2018;" horiz-adv-x="436" d="M285 1241l37 182l221 283h157l-147 -223h74l41 -51l-37 -191l-70 -57h-225z" />
<glyph unicode="&#x2019;" horiz-adv-x="436" d="M295 1184l149 223h-75l-41 51l37 191l71 57h223l52 -57l-37 -183l-219 -282h-160z" />
<glyph unicode="&#x201a;" horiz-adv-x="436" d="M27 -199l149 224h-76l-41 51l37 190l72 58h223l51 -58l-36 -182l-220 -283h-159z" />
<glyph unicode="&#x201c;" horiz-adv-x="866" d="M285 1241l37 182l221 283h157l-147 -223h74l41 -51l-37 -191l-70 -57h-225zM715 1241l37 182l219 283h159l-149 -223h74l43 -51l-37 -191l-72 -57h-223z" />
<glyph unicode="&#x201d;" horiz-adv-x="866" d="M295 1184l149 223h-75l-41 51l37 191l71 57h223l52 -57l-37 -183l-219 -282h-160zM725 1184l149 223h-75l-41 51l37 191l71 57h224l51 -57l-37 -183l-219 -282h-160z" />
<glyph unicode="&#x201e;" horiz-adv-x="866" d="M27 -199l149 224h-76l-41 51l37 190l72 58h223l51 -58l-36 -182l-220 -283h-159zM457 -199l149 224h-76l-41 51l37 190l72 58h223l51 -58l-36 -182l-220 -283h-159z" />
<glyph unicode="&#x2022;" horiz-adv-x="786" d="M172 588l86 436l113 102h481l76 -102l-86 -436l-113 -96h-481z" />
<glyph unicode="&#x2026;" horiz-adv-x="1337" d="M53 49l43 217l72 58h223l51 -58l-43 -217l-61 -49h-240zM504 49l43 217l71 58h224l51 -58l-43 -217l-62 -49h-239zM952 49l43 217l72 58h223l51 -58l-43 -217l-61 -49h-240z" />
<glyph unicode="&#x202f;" horiz-adv-x="396" />
<glyph unicode="&#x2039;" horiz-adv-x="507" d="M109 539l415 540h189l-324 -540l115 -539h-189z" />
<glyph unicode="&#x203a;" horiz-adv-x="507" d="M4 0l322 541l-113 538h186l209 -538l-418 -541h-186z" />
<glyph unicode="&#x205f;" horiz-adv-x="495" />
<glyph unicode="&#x20ac;" horiz-adv-x="1146" d="M135 543l37 194h121l24 119h-120l36 197h121l60 303l172 243h782l-72 -372l-198 129h-314l-51 -80l-45 -223h365l-37 -197h-365l-24 -119h364l-37 -194h-364l-43 -226l18 -75h340l252 131l-72 -373h-809l-79 242l59 301h-121z" />
<glyph unicode="&#x2122;" horiz-adv-x="1464" d="M315 1343l50 256h546l-49 -256l-104 64l14 70h-72l-108 -557l41 -119h-299l88 119l108 557h-73l-15 -70zM811 801l84 114l111 570l-41 114h288l27 -430l207 430h244l-86 -114l-111 -574l41 -110h-262l88 119l65 340l-213 -459h-123l-32 469l-68 -350l43 -119h-262z" />
<glyph unicode="&#x25fc;" horiz-adv-x="1075" d="M0 0v1075h1075v-1075h-1075z" />
</font>
</defs>
</svg>
