<?xml version="1.0" standalone="no"?>
<!DOCTYPE svg PUBLIC "-//W3C//DTD SVG 1.1//EN" "http://www.w3.org/Graphics/SVG/1.1/DTD/svg11.dtd" >
<svg xmlns="http://www.w3.org/2000/svg" xmlns:xlink="http://www.w3.org/1999/xlink" version="1.1">
<metadata></metadata>
<defs>
<font id="kirstybold" horiz-adv-x="1073" >
<font-face units-per-em="2048" ascent="1638" descent="-410" />
<missing-glyph horiz-adv-x="458" />
<glyph horiz-adv-x="0" />
<glyph horiz-adv-x="0" />
<glyph horiz-adv-x="682" />
<glyph horiz-adv-x="458" />
<glyph unicode=" "  horiz-adv-x="458" />
<glyph unicode="&#x09;" horiz-adv-x="458" />
<glyph unicode="&#xa0;" horiz-adv-x="458" />
<glyph unicode="!" horiz-adv-x="591" d="M78 1169v273l78 157h284l74 -153v-277l-115 -651h-209zM94 57v248l70 68h258l70 -68v-248l-60 -57h-278z" />
<glyph unicode="&#x22;" horiz-adv-x="888" d="M45 1470v78l80 158h199l71 -154v-82l-116 -489h-117zM489 1470v78l80 158h199l72 -154v-82l-117 -489h-117z" />
<glyph unicode="#" d="M66 500v182h172v236h-172v180h172v501h182v-501h235v501h181v-501h174v-180h-174v-236h174v-182h-174v-500h-181v500h-235v-500h-182v500h-172zM420 682h235v236h-235v-236z" />
<glyph unicode="$" horiz-adv-x="1120" d="M68 86v416l258 -129h178v225l-318 111l-118 235v324l120 245h316v127h135v-127h371v-415l-260 127h-111v-232l293 -100l121 -238v-323l-123 -246h-291v-127h-135v127h-436zM393 1122l29 -55l82 -29v187h-82l-29 -49v-54zM639 373h55l29 53v53l-29 53l-55 19v-178z" />
<glyph unicode="%" horiz-adv-x="1779" d="M57 895v461l127 243h1192l-788 -1599h-176l704 1448h-403l47 -92v-461l-125 -240h-451zM334 983l22 -45h109l20 45v281l-24 51h-101l-26 -51v-281zM1016 240v460l125 244h452l125 -244v-460l-125 -240h-452zM1290 330l23 -47h108l21 47v278l-25 54h-100l-27 -54v-278z " />
<glyph unicode="&#x26;" horiz-adv-x="1234" d="M66 242v262l106 227l162 146l-141 241v238l124 243h457l121 -241v-236l-59 -123l-154 -161l129 -213l156 194l198 -201l-200 -247l225 -371h-346l-76 131l-106 -131h-476zM459 332l24 -58h47l88 111l-131 225l-28 -75v-203zM502 1137l41 -70l47 70v133l-23 45h-39 l-26 -45v-133z" />
<glyph unicode="'" horiz-adv-x="444" d="M45 1470v78l80 158h199l71 -154v-82l-116 -489h-117z" />
<glyph unicode="(" horiz-adv-x="684" d="M221 -23v1657l258 348h205l-242 -440v-1472l242 -441h-205z" />
<glyph unicode=")" horiz-adv-x="559" d="M0 -371l242 441v1472l-242 440h205l258 -348v-1657l-258 -348h-205z" />
<glyph unicode="*" horiz-adv-x="1046" d="M18 1354l398 -19l106 379l109 -379l397 19l-326 -224l136 -370l-316 241l-311 -241l137 370z" />
<glyph unicode="+" d="M66 709v182h380v381h181v-381h383v-182h-383v-381h-181v381h-380z" />
<glyph unicode="," horiz-adv-x="481" d="M41 88v217l70 68h258l71 -68v-209l-192 -286h-185l123 219h-86z" />
<glyph unicode="-" horiz-adv-x="849" d="M45 698v203h762v-203h-762z" />
<glyph unicode="." horiz-adv-x="481" d="M41 57v248l72 68h256l71 -68v-248l-61 -57h-277z" />
<glyph unicode="/" horiz-adv-x="829" d="M-2 -111l623 1817h208l-622 -1817h-209z" />
<glyph unicode="0" horiz-adv-x="1198" d="M84 242v1114l125 243h780l127 -241v-1116l-127 -242h-780zM479 330l23 -47h194l23 47v934l-27 51h-188l-25 -51v-934z" />
<glyph unicode="1" horiz-adv-x="798" d="M45 1094v276l176 72l53 157h344v-1339l127 -260h-651l129 258v836h-178z" />
<glyph unicode="2" horiz-adv-x="1144" d="M74 0v262l649 977v33l-21 43h-329l-256 -131v415h819l123 -243v-285l-457 -711l-92 -77h291l258 133v-416h-985z" />
<glyph unicode="3" horiz-adv-x="1038" d="M57 0v416l260 -131h242l23 47v280l-23 47h-256v283h254l25 47v275l-27 51h-236l-258 -131v415h793l123 -241v-344l-68 -144l-133 -71l123 -64l78 -147v-344l-123 -244h-797z" />
<glyph unicode="4" horiz-adv-x="1247" d="M18 713l693 886h454l-131 -260v-616h150v-285h-150v-180l129 -258h-653l127 258v180h-487zM354 723h283v373z" />
<glyph unicode="5" horiz-adv-x="1157" d="M88 0v416l260 -133h326l26 53v276l-22 47h-467l-123 193v747h944v-415l-260 131h-354l45 -82v-246l22 -45h465l125 -242v-456l-125 -244h-862z" />
<glyph unicode="6" horiz-adv-x="1253" d="M84 242v1114l125 243h874v-415l-256 131h-323l-25 -51v-322h580l123 -244v-456l-123 -242h-850zM479 330l23 -47h264l20 47v262l-30 67h-277v-329z" />
<glyph unicode="7" horiz-adv-x="1071" d="M72 0l184 256l332 930l102 129h-346l-256 -131v415h823l125 -247l-393 -1102l84 -250h-655z" />
<glyph unicode="8" horiz-adv-x="1171" d="M61 242v346l78 147l123 64l-133 71l-68 144v344l123 241h803l123 -241v-344l-68 -144l-133 -71l123 -64l78 -147v-346l-123 -242h-803zM457 330l22 -47h213l23 47v282l-23 47h-213l-22 -47v-282zM457 989l24 -47h209l25 47v275l-27 51h-205l-26 -51v-275z" />
<glyph unicode="9" horiz-adv-x="1251" d="M72 924v434l121 241h851l123 -241v-1114l-123 -244h-878v416l260 -133h315l33 53v344h-581zM465 1030l31 -67h278v307l-26 45h-263l-20 -45v-240z" />
<glyph unicode=":" horiz-adv-x="667" d="M133 723v248l72 67h256l71 -67v-248l-61 -57h-276zM135 139v248l72 68h256l72 -68v-248l-62 -57h-276z" />
<glyph unicode=";" horiz-adv-x="667" d="M133 723v248l72 67h256l71 -67v-248l-61 -57h-276zM135 170v217l70 68h258l72 -68v-209l-193 -287h-184l123 220h-86z" />
<glyph unicode="&#x3c;" d="M88 731v137l619 381h325l-719 -442l719 -455h-325z" />
<glyph unicode="=" d="M88 520v182h944v-182h-944zM88 897v180h944v-180h-944z" />
<glyph unicode="&#x3e;" d="M88 352l719 443l-719 454h326l618 -379v-137l-618 -381h-326z" />
<glyph unicode="?" horiz-adv-x="1044" d="M53 1184v415h821l123 -243v-352l-120 -238l-232 -90l-33 -49l-8 -117h-276l-29 170l117 235l223 93l31 53v201l-31 53h-324zM262 57v248l72 68h256l72 -68v-248l-62 -57h-276z" />
<glyph unicode="@" horiz-adv-x="1398" d="M86 -18v1144l125 246h981l123 -244v-989h-836l-76 142v235l76 143h301v144l-10 24h-154l-159 -79v264h493l70 -140v-548h90v735l-27 51h-733l-24 -51v-955l22 -79h965v-43l-123 -242h-979zM645 348l10 -24h125v151h-125l-10 -24v-103z" />
<glyph unicode="A" horiz-adv-x="1382" d="M8 0l154 248l313 1085l-100 266h489l353 -1343l157 -256h-655l98 256l-8 31h-330l-10 -39l104 -248h-565zM557 575h176l-86 332z" />
<glyph unicode="B" horiz-adv-x="1310" d="M72 0l129 258v1081l-129 260h1056l123 -241v-301l-69 -142l-133 -71l122 -66l80 -149v-387l-123 -242h-1056zM551 283h280l23 47v325l-23 45h-235v-333zM553 1315l43 -82v-248h233l25 49v230l-27 51h-274z" />
<glyph unicode="C" horiz-adv-x="1079" d="M84 242v1114l125 243h795v-415l-261 131h-239l-25 -51v-934l23 -47h268l260 131v-414h-821z" />
<glyph unicode="D" horiz-adv-x="1382" d="M72 0l129 254v1085l-129 260h1102l124 -241v-1116l-124 -242h-1102zM551 283h332l20 47v934l-26 51h-324l43 -82v-866z" />
<glyph unicode="E" horiz-adv-x="1202" d="M72 0l129 258v1081l-129 260h1073v-415l-258 131h-334l43 -82v-248h66l262 131v-543l-260 127h-68v-333l-43 -84h334l258 133v-416h-1073z" />
<glyph unicode="F" horiz-adv-x="1169" d="M72 0l129 260v1079l-129 260h1073v-415l-258 131h-334l43 -82v-248h66l262 131v-543l-260 127h-68v-442l129 -258h-653z" />
<glyph unicode="G" horiz-adv-x="1230" d="M84 242v1114l125 243h864v-415l-260 131h-309l-25 -51v-934l23 -47h262l-43 84v202l-129 260h588l-129 -258v-313l129 -258h-971z" />
<glyph unicode="H" horiz-adv-x="1521" d="M72 0l129 260v1079l-129 260h633l-132 -260v-354h373v356l-129 258h633l-131 -260v-1081l129 -258h-631l129 258v442h-373v-444l129 -256h-630z" />
<glyph unicode="I" horiz-adv-x="796" d="M72 0l129 260v1079l-129 260h653l-131 -258v-1085l129 -256h-651z" />
<glyph unicode="J" horiz-adv-x="1067" d="M25 0v414l260 -131h178l22 47v1013l-127 256h654l-129 -256v-1101l-125 -242h-733z" />
<glyph unicode="K" horiz-adv-x="1505" d="M72 0l129 260v1079l-129 260h655l-131 -258v-280l295 538h510l-307 -274l-215 -401l342 -617l276 -307h-684l29 186l-246 504v-432l129 -258h-653z" />
<glyph unicode="L" horiz-adv-x="1126" d="M72 0l129 262v1077l-129 260h655l-131 -258v-974l-45 -84h291l258 133v-416h-1028z" />
<glyph unicode="M" horiz-adv-x="1695" d="M72 0l129 258v1081l-129 260h649l170 -690l196 690h539l-131 -260v-1083l129 -256h-567l131 258v539l-207 -797h-272l-203 809v-551l131 -258h-565z" />
<glyph unicode="N" horiz-adv-x="1413" d="M72 0l129 258v1081l-129 260h424l450 -802v542l-129 260h567l-131 -258v-1341h-292l-455 774v-516l131 -258h-565z" />
<glyph unicode="O" horiz-adv-x="1265" d="M84 242v1114l125 243h850l123 -241v-1116l-123 -242h-850zM481 330l23 -47h262l20 47v934l-26 51h-254l-25 -51v-934z" />
<glyph unicode="P" horiz-adv-x="1329" d="M72 0l129 256v1083l-129 260h1075l125 -241v-500l-125 -246h-561v-354l127 -258h-641zM543 1315l43 -82v-334h286l25 47v318l-27 51h-327z" />
<glyph unicode="Q" horiz-adv-x="1267" d="M84 242v1114l125 243h850l123 -241v-1116l-123 -242h-105l119 -104l-180 -218l-332 291l27 31h-379zM481 330l23 -47h262l20 47v934l-26 51h-254l-25 -51v-934z" />
<glyph unicode="R" horiz-adv-x="1454" d="M72 0l129 256v1083l-129 260h1102l124 -241v-389l-71 -144l-123 -73l113 -62l81 -147v-287l127 -256h-397l-125 240v327l-20 45h-287v-612h-524zM553 1315l43 -82v-334h285l22 47v318l-26 51h-324z" />
<glyph unicode="S" horiz-adv-x="1138" d="M80 0v416l260 -133h369l26 53v186l-26 53l-506 175l-123 237v369l125 243h821v-415l-262 131h-328l-24 -51v-101l24 -53l510 -176l121 -236v-454l-123 -244h-864z" />
<glyph unicode="T" horiz-adv-x="1159" d="M25 1087v512h1110v-512l-261 132v104h-96v-1065l127 -258h-653l129 258v1065h-98v-104z" />
<glyph unicode="U" horiz-adv-x="1345" d="M29 1599h653l-127 -260v-1009l23 -47h260l22 47v1011l-131 258h588l-129 -258v-1099l-123 -242h-784l-123 242v1099z" />
<glyph unicode="V" horiz-adv-x="1382" d="M8 1599h656l-103 -258l170 -655l176 657l-98 256h565l-162 -260l-383 -1339h-315l-348 1333z" />
<glyph unicode="W" horiz-adv-x="2127" d="M8 1599h656l-105 -264l158 -659l266 923h272l236 -913l164 651l-103 262h568l-156 -258l-371 -1341h-313l-225 809l-244 -809h-315l-336 1341z" />
<glyph unicode="X" horiz-adv-x="1447" d="M8 0l223 264l295 553l-268 502l-229 280h661l-51 -247l106 -199l105 199l-59 247h620l-262 -280l-244 -463l320 -590l215 -266h-658l49 246l-145 274l-139 -264l53 -256h-592z" />
<glyph unicode="Y" horiz-adv-x="1339" d="M8 1599h662l-52 -253l84 -199l84 196l-51 256h596l-219 -266l-240 -516v-555l129 -262h-653l129 258v557l-250 512z" />
<glyph unicode="Z" horiz-adv-x="1157" d="M53 252l539 989l70 74h-310l-256 -131v415h860l125 -253l-538 -992l-64 -71h346l254 133v-416h-901z" />
<glyph unicode="[" horiz-adv-x="684" d="M213 -371v2353h426v-176h-207v-2001h207v-176h-426z" />
<glyph unicode="\" horiz-adv-x="829" d="M-2 1706h209l622 -1817h-208z" />
<glyph unicode="]" horiz-adv-x="684" d="M45 -195h207v2001h-207v176h426v-2353h-426v176z" />
<glyph unicode="^" horiz-adv-x="1034" d="M70 655v324l379 620h137l379 -620v-324l-443 719z" />
<glyph unicode="_" horiz-adv-x="1148" d="M-6 -51h1161v-170h-1161v170z" />
<glyph unicode="a" horiz-adv-x="1214" d="M63 213v270l121 213h549v37l-51 101h-346l-150 -89v349h736l145 -254v-609l119 -231h-432v76l-103 -76h-469zM403 319l43 -79h232l55 49v209h-287l-43 -78v-101z" />
<glyph unicode="b" horiz-adv-x="1257" d="M41 1706h461v-676l84 64h454l146 -254v-586l-146 -254h-454l-105 78v-78h-321v1475zM502 311l57 -51h234l51 100v373l-51 101h-234l-57 -54v-469z" />
<glyph unicode="c" horiz-adv-x="944" d="M72 254v586l145 254h678v-349l-152 89h-278l-51 -101v-373l51 -100h278l152 88v-348h-678z" />
<glyph unicode="d" horiz-adv-x="1245" d="M72 254v586l145 254h455l82 -62v451l-115 223h457v-1475l118 -231h-438v78l-104 -78h-455zM414 360l51 -100h233l56 49v473l-56 52h-233l-51 -101v-373z" />
<glyph unicode="e" horiz-adv-x="1155" d="M72 254v586l145 254h729l146 -254v-379h-678v-101l51 -100h399l152 88v-348h-799zM414 659h336v74l-52 101h-233l-51 -101v-74z" />
<glyph unicode="f" horiz-adv-x="804" d="M16 854v240h152v356l147 256h490v-348l-150 86h-92l-53 -101v-249h278v-240h-278v-625l119 -229h-580l119 231v623h-152z" />
<glyph unicode="g" horiz-adv-x="1148" d="M51 -168l68 135l-51 92v80l129 221l-144 248v232l148 254h598l108 297h254l-53 -265h-156l-24 -61l129 -225v-232l-146 -254h-579l-23 -41v-45l25 -28h653l148 -254v-207l-148 -254h-848l-88 156v151zM330 -137v-76l22 -45h418l41 78v61l-41 70h-391zM375 680l53 -100 h262l51 100v88l-51 100h-262l-53 -100v-88z" />
<glyph unicode="h" horiz-adv-x="1341" d="M49 0l119 231v1244l-119 231h461v-676l84 64h455l145 -254v-609l119 -231h-580l119 229v504l-51 101h-234l-57 -54v-551l119 -229h-580z" />
<glyph unicode="i" horiz-adv-x="659" d="M49 0l119 231v633l-119 230h461v-865l119 -229h-580zM162 1296v197l57 55h211l57 -55v-197l-49 -47h-227z" />
<glyph unicode="j" horiz-adv-x="704" d="M0 -127l150 -88h92l53 100v977l-121 232h461v-1315l-146 -254h-489v348zM291 1296v197l57 55h211l57 -55v-197l-49 -47h-227z" />
<glyph unicode="k" horiz-adv-x="1390" d="M49 0l119 231v1244l-119 231h461v-1014l278 402h506l-282 -187l-201 -284l313 -412l258 -211h-639l27 129l-260 387v-287l119 -229h-580z" />
<glyph unicode="l" horiz-adv-x="659" d="M49 0l119 231v1244l-119 231h461v-1477l119 -229h-580z" />
<glyph unicode="m" horiz-adv-x="1921" d="M49 0l119 231v633l-119 230h440v-78l105 78h410l40 -72l97 72h487l146 -254v-609l118 -231h-579l119 229v504l-52 101h-192l-55 -52v-544l118 -238h-559l119 240v493l-53 101h-191l-57 -54v-551l119 -229h-580z" />
<glyph unicode="n" horiz-adv-x="1341" d="M49 0l119 231v633l-119 230h440v-78l105 78h455l145 -254v-609l119 -231h-580l119 229v504l-51 101h-234l-57 -54v-551l119 -229h-580z" />
<glyph unicode="o" horiz-adv-x="1183" d="M72 254v586l145 254h750l147 -254v-586l-147 -254h-750zM414 360l51 -100h254l53 100v373l-53 101h-254l-51 -101v-373z" />
<glyph unicode="p" horiz-adv-x="1257" d="M41 -475l119 231v1108l-119 230h440v-78l105 78h454l146 -254v-586l-146 -254h-454l-84 61v-311l114 -225h-575zM502 311l57 -51h234l51 100v373l-51 101h-234l-57 -54v-469z" />
<glyph unicode="q" horiz-adv-x="1245" d="M72 254v586l145 254h455l104 -78v78h438l-118 -232v-1104l118 -233h-575l115 223v311l-82 -59h-455zM414 360l51 -100h233l56 49v473l-56 52h-233l-51 -101v-373z" />
<glyph unicode="r" horiz-adv-x="1005" d="M49 0l119 231v633l-119 230h440v-119l103 119h387v-349l-150 89h-190l-129 -142v-463l119 -229h-580z" />
<glyph unicode="s" horiz-adv-x="1048" d="M76 0v348l211 -125h342l26 35v100l-26 35l-439 99l-114 163v273l114 166h754v-349l-209 121h-319l-25 -35v-43l25 -36l452 -99l113 -164v-323l-115 -166h-790z" />
<glyph unicode="t" horiz-adv-x="829" d="M16 854v240h152v145l342 320v-465h283v-240h-283v-494l53 -100h92l150 88v-348h-490l-147 254v600h-152z" />
<glyph unicode="u" horiz-adv-x="1320" d="M29 1094h579l-119 -232v-502l54 -100h233l55 49v557l-118 228h461v-863l118 -231h-440v76l-104 -76h-453l-148 254v610z" />
<glyph unicode="v" horiz-adv-x="1327" d="M8 1094h627l-96 -174l163 -451l170 451l-94 174h541l-152 -174l-370 -920h-303l-336 911z" />
<glyph unicode="w" horiz-adv-x="1837" d="M8 1094h565l-90 -181l138 -448l229 629h233l203 -625l144 444l-91 181h490l-133 -174l-322 -920h-270l-193 553l-211 -553h-270l-289 913z" />
<glyph unicode="x" horiz-adv-x="1400" d="M8 0l238 207l258 332l-266 364l-211 191h667l-61 -152l104 -141l101 129l-50 164h594l-301 -234l-198 -258l338 -461l172 -141h-666l47 168l-127 174l-135 -174l45 -168h-549z" />
<glyph unicode="y" horiz-adv-x="1327" d="M8 1094h627l-96 -174l166 -451l167 451l-94 174h541l-150 -172l-454 -1143l-226 -254h-339v348l151 -88h90l94 100l39 107l-356 909z" />
<glyph unicode="z" d="M51 172l469 651l62 45h-238l-252 -123v349h811l111 -172l-469 -656l-51 -39h266l252 121v-348h-850z" />
<glyph unicode="{" horiz-adv-x="684" d="M100 807l117 197v628l260 350h203l-244 -448v-543l-100 -184l100 -189v-540l244 -449h-207l-256 351v626z" />
<glyph unicode="|" horiz-adv-x="438" d="M137 -371v2349h164v-2349h-164z" />
<glyph unicode="}" horiz-adv-x="684" d="M8 -371l244 449v543l100 184l-100 188v541l-244 448h207l256 -350v-626l117 -201l-117 -197v-628l-260 -351h-203z" />
<glyph unicode="~" d="M66 645v168l253 156l424 -150l267 152v-170l-250 -154l-426 154z" />
<glyph unicode="&#xa1;" horiz-adv-x="591" d="M78 -45l115 651h208l113 -651v-272l-78 -158h-284l-74 153v277zM100 819v248l60 57h278l60 -57v-248l-70 -67h-258z" />
<glyph unicode="&#xa2;" horiz-adv-x="940" d="M84 469v653l104 209h269v309h164v-309h233v-375l-221 117h-12v-555h32l221 109v-367h-253v-301h-164v301h-269zM377 539l10 -21h70v555h-68l-12 -26v-508z" />
<glyph unicode="&#xa3;" horiz-adv-x="1103" d="M0 657v285h139v416l123 241h731v-413l-258 129h-176l-24 -45v-328h73l266 129v-543l-260 129h-79v-378h288l246 278v-557h-1059l129 254v403h-139z" />
<glyph unicode="&#xa4;" horiz-adv-x="1284" d="M20 381l177 172l-17 20v455l17 19l-177 174l201 200l166 -161l21 22h466l21 -22l166 161l201 -200l-179 -174l19 -19v-455l-19 -20l179 -172l-201 -201l-166 162l-21 -23h-466l-21 23l-166 -162zM440 651l68 -71h266l68 71v299l-68 72h-266l-68 -72v-299z" />
<glyph unicode="&#xa5;" horiz-adv-x="1398" d="M35 1599h661l-53 -264l86 -219l86 215l-53 268h596l-209 -253l-238 -529h363v-160h-375v-133h375v-159h-375v-103l129 -262h-653l129 258v107h-379v159h379v133h-379v160h362l-243 524z" />
<glyph unicode="&#xa6;" horiz-adv-x="438" d="M137 -371v883h164v-883h-164zM137 1143v835h164v-835h-164z" />
<glyph unicode="&#xa7;" horiz-adv-x="1024" d="M90 66l189 -103h270l20 41v146l-20 40l-367 140l-92 184v291l92 188h172l-123 127v287l91 192h600v-325l-193 102h-237l-21 -43v-76l21 -43l370 -137l88 -186v-356l-90 -191h-92l41 -57v-357l-88 -190h-631v326zM332 653l18 -41l105 -45h235l19 39v146l-11 20h-348 l-18 -41v-78z" />
<glyph unicode="&#xa9;" horiz-adv-x="1265" d="M84 242v1114l125 243h850l123 -241v-1116l-123 -242h-850zM250 285l59 -119h645l62 115v1036l-62 115h-643l-61 -117v-1030zM387 516v561l64 123h405v-209l-133 66h-121l-12 -27v-471l10 -22h137l133 65v-209h-419z" />
<glyph unicode="&#xaa;" horiz-adv-x="749" d="M53 1071v164l72 127h330v22l-31 60h-209l-88 -53v208h440l88 -151v-367l70 -137h-258v45l-61 -45h-283zM74 670v161h608v-161h-608zM256 1137l27 -50h139l33 31v125h-172l-27 -47v-59z" />
<glyph unicode="&#xab;" d="M0 547l317 547h220l-209 -547l209 -547h-220zM537 547l317 547h219l-209 -547l209 -547h-219z" />
<glyph unicode="&#xac;" d="M66 709v182h944v-891h-183v709h-761z" />
<glyph unicode="&#xad;" horiz-adv-x="849" d="M45 698v203h762v-203h-762z" />
<glyph unicode="&#xae;" horiz-adv-x="845" d="M84 926v522l76 151h528l76 -151v-522l-76 -150h-528zM188 952l35 -71h400l39 69v473l-39 72h-398l-37 -72v-471zM250 977l35 70v292l-35 74h299l35 -65v-107l-21 -39l-33 -20l31 -17l23 -41v-77l34 -70h-108l-35 65v88l-6 13h-78v-166h-141zM379 1335l12 -22v-90h78l6 12 v86l-6 14h-90z" />
<glyph unicode="&#xb0;" horiz-adv-x="598" d="M31 1116v367l59 116h418l59 -116v-367l-59 -115h-416zM170 1161h260v279h-260v-279z" />
<glyph unicode="&#xb1;" d="M66 0v182h944v-182h-944zM66 709v182h380v381h181v-381h383v-182h-383v-381h-181v381h-380z" />
<glyph unicode="&#xb2;" horiz-adv-x="653" d="M74 801v131l282 463v20l-10 21h-123l-127 -64v227h408l63 -120v-142l-178 -313l-74 -61h123l129 65v-227h-493z" />
<glyph unicode="&#xb3;" horiz-adv-x="618" d="M57 801v227l131 -65h121l10 24v111l-10 22h-129v162h127l12 23v106l-12 25h-119l-131 -64v227h441l61 -120v-172l-35 -70l-67 -37l61 -33l41 -71v-174l-61 -121h-441z" />
<glyph unicode="&#xb6;" horiz-adv-x="1363" d="M72 1087v271l125 241h1116l-125 -249v-1825h-260v1790h-281v-1790h-262v1317h-188z" />
<glyph unicode="&#xb7;" horiz-adv-x="481" d="M41 678v248l72 67h256l71 -67v-248l-61 -57h-277z" />
<glyph unicode="&#xb9;" horiz-adv-x="489" d="M45 1325v160l88 37l27 77h213v-681l65 -117h-368l63 112v412h-88z" />
<glyph unicode="&#xba;" horiz-adv-x="749" d="M63 1096v352l89 151h448l88 -151v-352l-88 -152h-448zM74 670v161h608v-161h-608zM268 1161l31 -61h154l30 61v223l-30 60h-154l-31 -60v-223z" />
<glyph unicode="&#xbb;" d="M0 0l209 549l-209 545h219l318 -545l-318 -549h-219zM537 0l208 549l-208 545h219l317 -545l-317 -549h-219z" />
<glyph unicode="&#xbc;" horiz-adv-x="1468" d="M0 0l1143 1599h209l-1143 -1599h-209zM96 1325v160l88 37l27 77h213v-681l65 -117h-368l63 112v412h-88zM741 367l346 432h269l-64 -129v-299h76v-162h-76v-96l64 -113h-369l66 117v92h-244zM942 371h111v137z" />
<glyph unicode="&#xbd;" horiz-adv-x="1495" d="M0 0l1143 1599h209l-1143 -1599h-209zM96 1325v160l88 37l27 77h213v-681l65 -117h-368l63 112v412h-88zM961 0v131l282 463v20l-10 21h-123l-127 -64v228h408l63 -121v-141l-178 -314l-74 -61h123l129 65v-227h-493z" />
<glyph unicode="&#xbe;" horiz-adv-x="1495" d="M41 801v227l131 -65h121l10 24v111l-10 22h-129v162h127l12 23v106l-12 25h-119l-131 -64v227h440l62 -120v-172l-35 -70l-68 -37l62 -33l41 -71v-174l-62 -121h-440zM61 0l1143 1599h209l-1143 -1599h-209zM803 367l346 432h268l-63 -129v-299h76v-162h-76v-96l63 -113 h-368l65 117v92h-244zM1004 371h110v137z" />
<glyph unicode="&#xbf;" horiz-adv-x="1044" d="M47 121l121 237l231 91l33 49l8 116h277l28 -170l-116 -235l-223 -92l-31 -54v-200l31 -53h323l262 131v-416h-821l-123 244v352zM383 819v248l61 57h277l61 -57v-248l-71 -67h-256z" />
<glyph unicode="&#xc0;" horiz-adv-x="1382" d="M8 0l154 248l313 1085l-100 266h489l353 -1343l157 -256h-655l98 256l-8 31h-330l-10 -39l104 -248h-565zM301 1982h311l260 -327h-219zM557 575h176l-86 332z" />
<glyph unicode="&#xc1;" horiz-adv-x="1382" d="M8 0l154 248l313 1085l-100 266h489l353 -1343l157 -256h-655l98 256l-8 31h-330l-10 -39l104 -248h-565zM424 1655l260 327h311l-352 -327h-219zM557 575h176l-86 332z" />
<glyph unicode="&#xc2;" horiz-adv-x="1382" d="M8 0l154 248l313 1085l-100 266h489l353 -1343l157 -256h-655l98 256l-8 31h-330l-10 -39l104 -248h-565zM266 1655l242 327h270l242 -327h-219l-158 180l-156 -180h-221zM557 575h176l-86 332z" />
<glyph unicode="&#xc3;" horiz-adv-x="1382" d="M8 0l154 248l313 1085l-100 266h489l353 -1343l157 -256h-655l98 256l-8 31h-330l-10 -39l104 -248h-565zM211 1812l147 170h195l268 -145l131 145l123 -155l-147 -172h-207l-256 145l-131 -145zM557 575h176l-86 332z" />
<glyph unicode="&#xc4;" horiz-adv-x="1382" d="M8 0l154 248l313 1085l-100 266h489l353 -1343l157 -256h-655l98 256l-8 31h-330l-10 -39l104 -248h-565zM254 1751v176l57 55h211l58 -55v-176l-50 -47h-227zM557 575h176l-86 332zM707 1751v176l57 55h211l57 -55v-176l-49 -47h-227z" />
<glyph unicode="&#xc5;" horiz-adv-x="1382" d="M8 0l154 248l313 1085l-100 266h489l353 -1343l157 -256h-655l98 256l-8 31h-330l-10 -39l104 -248h-565zM385 1704v194l78 84h360l76 -84v-194l-76 -84h-360zM557 575h176l-86 332zM569 1739l27 -33h94l27 33v125l-27 32h-94l-27 -32v-125z" />
<glyph unicode="&#xc6;" horiz-adv-x="1808" d="M-4 0l154 248l313 1085l-101 266h1389v-415l-258 131h-313l43 -82v-248h45l262 131v-543l-260 127h-47v-333l-43 -84h313l258 133v-416h-1053l129 258v156h-325l-45 -166l104 -248h-565zM578 700h249v639l-8 17h-65z" />
<glyph unicode="&#xc7;" horiz-adv-x="1079" d="M84 242v1114l125 243h795v-415l-261 131h-239l-25 -51v-934l23 -47h268l260 131v-414h-821zM473 -313h68l16 34v74l-76 152h183l124 -140v-176l-53 -106h-262v162z" />
<glyph unicode="&#xc8;" horiz-adv-x="1202" d="M72 0l129 258v1081l-129 260h1073v-415l-258 131h-334l43 -82v-248h66l262 131v-543l-260 127h-68v-333l-43 -84h334l258 133v-416h-1073zM301 1982h311l260 -327h-219z" />
<glyph unicode="&#xc9;" horiz-adv-x="1202" d="M72 0l129 258v1081l-129 260h1073v-415l-258 131h-334l43 -82v-248h66l262 131v-543l-260 127h-68v-333l-43 -84h334l258 133v-416h-1073zM424 1655l260 327h311l-352 -327h-219z" />
<glyph unicode="&#xca;" horiz-adv-x="1202" d="M72 0l129 258v1081l-129 260h1073v-415l-258 131h-334l43 -82v-248h66l262 131v-543l-260 127h-68v-333l-43 -84h334l258 133v-416h-1073zM266 1655l242 327h270l242 -327h-219l-158 180l-156 -180h-221z" />
<glyph unicode="&#xcb;" horiz-adv-x="1202" d="M72 0l129 258v1081l-129 260h1073v-415l-258 131h-334l43 -82v-248h66l262 131v-543l-260 127h-68v-333l-43 -84h334l258 133v-416h-1073zM254 1751v176l57 55h211l58 -55v-176l-50 -47h-227zM707 1751v176l57 55h211l57 -55v-176l-49 -47h-227z" />
<glyph unicode="&#xcc;" horiz-adv-x="796" d="M55 1982h312l260 -327h-219zM72 0l129 260v1079l-129 260h653l-131 -258v-1085l129 -256h-651z" />
<glyph unicode="&#xcd;" horiz-adv-x="796" d="M72 0l129 260v1079l-129 260h653l-131 -258v-1085l129 -256h-651zM178 1655l260 327h312l-353 -327h-219z" />
<glyph unicode="&#xce;" horiz-adv-x="796" d="M20 1655l242 327h270l242 -327h-219l-158 180l-155 -180h-222zM72 0l129 260v1079l-129 260h653l-131 -258v-1085l129 -256h-651z" />
<glyph unicode="&#xcf;" horiz-adv-x="796" d="M8 1751v176l58 55h210l58 -55v-176l-49 -47h-228zM72 0l129 260v1079l-129 260h653l-131 -258v-1085l129 -256h-651zM461 1751v176l57 55h211l57 -55v-176l-49 -47h-227z" />
<glyph unicode="&#xd0;" horiz-adv-x="1382" d="M0 700v285h201v354l-129 260h1102l124 -241v-1116l-124 -242h-1102l129 254v446h-201zM551 283h332l20 47v934l-26 51h-324l43 -82v-248h219v-285h-219v-333z" />
<glyph unicode="&#xd1;" horiz-adv-x="1413" d="M72 0l129 258v1081l-129 260h424l450 -802v542l-129 260h567l-131 -258v-1341h-292l-455 774v-516l131 -258h-565zM297 1812l147 170h195l268 -145l131 145l123 -155l-147 -172h-207l-256 145l-131 -145z" />
<glyph unicode="&#xd2;" horiz-adv-x="1265" d="M84 242v1114l125 243h850l123 -241v-1116l-123 -242h-850zM295 1982h311l260 -327h-219zM481 330l23 -47h262l20 47v934l-26 51h-254l-25 -51v-934z" />
<glyph unicode="&#xd3;" horiz-adv-x="1265" d="M84 242v1114l125 243h850l123 -241v-1116l-123 -242h-850zM418 1655l260 327h311l-352 -327h-219zM481 330l23 -47h262l20 47v934l-26 51h-254l-25 -51v-934z" />
<glyph unicode="&#xd4;" horiz-adv-x="1265" d="M84 242v1114l125 243h850l123 -241v-1116l-123 -242h-850zM260 1655l242 327h270l242 -327h-219l-158 180l-156 -180h-221zM481 330l23 -47h262l20 47v934l-26 51h-254l-25 -51v-934z" />
<glyph unicode="&#xd5;" horiz-adv-x="1265" d="M84 242v1114l125 243h850l123 -241v-1116l-123 -242h-850zM205 1812l147 170h195l268 -145l131 145l123 -155l-147 -172h-207l-256 145l-131 -145zM481 330l23 -47h262l20 47v934l-26 51h-254l-25 -51v-934z" />
<glyph unicode="&#xd6;" horiz-adv-x="1265" d="M84 242v1114l125 243h850l123 -241v-1116l-123 -242h-850zM248 1751v176l57 55h211l57 -55v-176l-49 -47h-227zM481 330l23 -47h262l20 47v934l-26 51h-254l-25 -51v-934zM700 1751v176l58 55h211l57 -55v-176l-49 -47h-227z" />
<glyph unicode="&#xd7;" d="M111 498l299 299l-299 301l127 127l299 -299l299 299l129 -127l-301 -301l301 -299l-129 -127l-299 299l-299 -299z" />
<glyph unicode="&#xd8;" horiz-adv-x="1265" d="M37 -164l129 246l-82 160v1114l125 243h756l86 164h184l-133 -252l80 -153v-1116l-123 -242h-752l-86 -164h-184zM481 330l23 -47h262l20 47v579zM481 680l305 580v4l-26 51h-254l-25 -51v-584z" />
<glyph unicode="&#xd9;" horiz-adv-x="1345" d="M29 1599h653l-127 -260v-1009l23 -47h260l22 47v1011l-131 258h588l-129 -258v-1099l-123 -242h-784l-123 242v1099zM365 1982h311l260 -327h-219z" />
<glyph unicode="&#xda;" horiz-adv-x="1345" d="M29 1599h653l-127 -260v-1009l23 -47h260l22 47v1011l-131 258h588l-129 -258v-1099l-123 -242h-784l-123 242v1099zM487 1655l261 327h311l-352 -327h-220z" />
<glyph unicode="&#xdb;" horiz-adv-x="1345" d="M29 1599h653l-127 -260v-1009l23 -47h260l22 47v1011l-131 258h588l-129 -258v-1099l-123 -242h-784l-123 242v1099zM330 1655l241 327h271l241 -327h-219l-157 180l-156 -180h-221z" />
<glyph unicode="&#xdc;" horiz-adv-x="1345" d="M29 1599h653l-127 -260v-1009l23 -47h260l22 47v1011l-131 258h588l-129 -258v-1099l-123 -242h-784l-123 242v1099zM317 1751v176l58 55h211l57 -55v-176l-49 -47h-227zM770 1751v176l57 55h211l58 -55v-176l-49 -47h-228z" />
<glyph unicode="&#xdd;" horiz-adv-x="1339" d="M8 1599h662l-52 -253l84 -199l84 196l-51 256h596l-219 -266l-240 -516v-555l129 -262h-653l129 258v557l-250 512zM483 1655l260 327h312l-353 -327h-219z" />
<glyph unicode="&#xde;" horiz-adv-x="1312" d="M74 0l129 256v1087l-129 256h641l-127 -258v-55h565l125 -242v-497l-125 -246h-565v-43l127 -258h-641zM588 586h293l22 47v317l-26 54h-289v-418z" />
<glyph unicode="&#xdf;" horiz-adv-x="1292" d="M49 0l119 231v1219l147 256h658l147 -256v-401l-57 -111l-109 -45l191 -41l78 -121v-565l-117 -166h-485v348l153 -88h92l21 33v409l-21 31h-225v260h121l22 33v309l-59 109h-162l-53 -101v-1343h-461z" />
<glyph unicode="&#xe0;" horiz-adv-x="1214" d="M63 213v270l121 213h549v37l-51 101h-346l-150 -89v349h736l145 -254v-609l119 -231h-432v76l-103 -76h-469zM268 1599h312l221 -389h-221zM403 319l43 -79h232l55 49v209h-287l-43 -78v-101z" />
<glyph unicode="&#xe1;" horiz-adv-x="1214" d="M63 213v270l121 213h549v37l-51 101h-346l-150 -89v349h736l145 -254v-609l119 -231h-432v76l-103 -76h-469zM395 1210l219 389h312l-312 -389h-219zM403 319l43 -79h232l55 49v209h-287l-43 -78v-101z" />
<glyph unicode="&#xe2;" horiz-adv-x="1214" d="M63 213v270l121 213h549v37l-51 101h-346l-150 -89v349h736l145 -254v-609l119 -231h-432v76l-103 -76h-469zM221 1210l242 389h270l242 -389h-219l-158 213l-156 -213h-221zM403 319l43 -79h232l55 49v209h-287l-43 -78v-101z" />
<glyph unicode="&#xe3;" horiz-adv-x="1214" d="M63 213v270l121 213h549v37l-51 101h-346l-150 -89v349h736l145 -254v-609l119 -231h-432v76l-103 -76h-469zM166 1356l147 172h195l268 -148l131 148l123 -158l-147 -174h-207l-256 147l-131 -147zM403 319l43 -79h232l55 49v209h-287l-43 -78v-101z" />
<glyph unicode="&#xe4;" horiz-adv-x="1214" d="M63 213v270l121 213h549v37l-51 101h-346l-150 -89v349h736l145 -254v-609l119 -231h-432v76l-103 -76h-469zM209 1296v197l57 55h211l58 -55v-197l-50 -47h-227zM403 319l43 -79h232l55 49v209h-287l-43 -78v-101zM662 1296v197l57 55h211l57 -55v-197l-49 -47h-227z " />
<glyph unicode="&#xe5;" horiz-adv-x="1214" d="M63 213v270l121 213h549v37l-51 101h-346l-150 -89v349h736l145 -254v-609l119 -231h-432v76l-103 -76h-469zM340 1276v213l78 110h360l76 -110v-213l-76 -111h-360zM403 319l43 -79h232l55 49v209h-287l-43 -78v-101zM524 1321l27 -43h94l27 43v121l-27 45h-94l-27 -45 v-121z" />
<glyph unicode="&#xe6;" horiz-adv-x="1822" d="M63 213v242l121 213h541v65l-68 101h-321l-150 -89v349h607l96 -113l104 113h621l145 -254v-371h-692v-109l51 -100h414l151 88v-348h-679l-136 127l-118 -127h-568zM403 319l43 -79h207l72 65v164h-279l-43 -78v-72zM1067 668h350v65l-51 101h-248l-51 -101v-65z" />
<glyph unicode="&#xe7;" horiz-adv-x="944" d="M72 254v586l145 254h678v-349l-152 89h-278l-51 -101v-373l51 -100h278l152 88v-348h-678zM469 -313h68l16 34v74l-76 152h182l125 -140v-176l-53 -106h-262v162z" />
<glyph unicode="&#xe8;" horiz-adv-x="1155" d="M72 254v586l145 254h729l146 -254v-379h-678v-101l51 -100h399l152 88v-348h-799zM276 1599h312l221 -389h-221zM414 659h336v74l-52 101h-233l-51 -101v-74z" />
<glyph unicode="&#xe9;" horiz-adv-x="1155" d="M72 254v586l145 254h729l146 -254v-379h-678v-101l51 -100h399l152 88v-348h-799zM403 1210l220 389h311l-311 -389h-220zM414 659h336v74l-52 101h-233l-51 -101v-74z" />
<glyph unicode="&#xea;" horiz-adv-x="1155" d="M72 254v586l145 254h729l146 -254v-379h-678v-101l51 -100h399l152 88v-348h-799zM229 1210l242 389h270l242 -389h-219l-158 213l-155 -213h-222zM414 659h336v74l-52 101h-233l-51 -101v-74z" />
<glyph unicode="&#xeb;" horiz-adv-x="1155" d="M72 254v586l145 254h729l146 -254v-379h-678v-101l51 -100h399l152 88v-348h-799zM217 1296v197l57 55h211l58 -55v-197l-49 -47h-228zM414 659h336v74l-52 101h-233l-51 -101v-74zM670 1296v197l57 55h211l57 -55v-197l-49 -47h-227z" />
<glyph unicode="&#xec;" horiz-adv-x="659" d="M-6 1599h311l221 -389h-221zM49 0l119 231v633l-119 230h461v-865l119 -229h-580z" />
<glyph unicode="&#xed;" horiz-adv-x="659" d="M49 0l119 231v633l-119 230h461v-865l119 -229h-580zM121 1210l219 389h311l-311 -389h-219z" />
<glyph unicode="&#xee;" horiz-adv-x="659" d="M-53 1210l241 389h271l241 -389h-219l-157 213l-156 -213h-221zM49 0l119 231v633l-119 230h461v-865l119 -229h-580z" />
<glyph unicode="&#xef;" horiz-adv-x="778" d="M0 1296v197l57 55h211l58 -55v-197l-50 -47h-227zM115 0l118 231v633l-118 230h460v-865l119 -229h-579zM453 1296v197l57 55h211l57 -55v-197l-49 -47h-227z" />
<glyph unicode="&#xf0;" horiz-adv-x="1251" d="M137 254v586l148 254h471l82 -62v338l-31 53h-291l-82 -143h-160l82 143h-120v285h284l62 107h159l-61 -107h377l123 -244v-1210l-146 -254h-749zM479 360l53 -100h254l52 100v420l-58 54h-248l-53 -101v-373z" />
<glyph unicode="&#xf1;" horiz-adv-x="1341" d="M49 0l119 231v633l-119 230h440v-78l105 78h455l145 -254v-609l119 -231h-580l119 229v504l-51 101h-234l-57 -54v-551l119 -229h-580zM248 1356l147 172h195l268 -148l131 148l123 -158l-147 -174h-207l-256 147l-131 -147z" />
<glyph unicode="&#xf2;" horiz-adv-x="1183" d="M72 254v586l145 254h750l147 -254v-586l-147 -254h-750zM266 1599h312l221 -389h-221zM414 360l51 -100h254l53 100v373l-53 101h-254l-51 -101v-373z" />
<glyph unicode="&#xf3;" horiz-adv-x="1183" d="M72 254v586l145 254h750l147 -254v-586l-147 -254h-750zM393 1210l219 389h312l-312 -389h-219zM414 360l51 -100h254l53 100v373l-53 101h-254l-51 -101v-373z" />
<glyph unicode="&#xf4;" horiz-adv-x="1183" d="M72 254v586l145 254h750l147 -254v-586l-147 -254h-750zM219 1210l242 389h270l242 -389h-219l-158 213l-156 -213h-221zM414 360l51 -100h254l53 100v373l-53 101h-254l-51 -101v-373z" />
<glyph unicode="&#xf5;" horiz-adv-x="1183" d="M72 254v586l145 254h750l147 -254v-586l-147 -254h-750zM164 1356l147 172h195l268 -148l131 148l123 -158l-147 -174h-207l-256 147l-131 -147zM414 360l51 -100h254l53 100v373l-53 101h-254l-51 -101v-373z" />
<glyph unicode="&#xf6;" horiz-adv-x="1183" d="M72 254v586l145 254h750l147 -254v-586l-147 -254h-750zM207 1296v197l57 55h211l57 -55v-197l-49 -47h-227zM414 360l51 -100h254l53 100v373l-53 101h-254l-51 -101v-373zM659 1296v197l58 55h211l57 -55v-197l-49 -47h-227z" />
<glyph unicode="&#xf7;" d="M66 709v182h944v-182h-944zM340 272v244l72 68h264l59 -60v-250l-61 -61h-275zM340 1075v244l72 67h264l59 -59v-250l-61 -61h-275z" />
<glyph unicode="&#xf8;" horiz-adv-x="1183" d="M45 -123l131 193l-104 184v586l145 254h664l86 123h174l-133 -195l106 -182v-586l-147 -254h-664l-84 -123h-174zM414 414l288 420h-237l-51 -101v-319zM483 260h236l53 100v320z" />
<glyph unicode="&#xf9;" horiz-adv-x="1320" d="M29 1094h579l-119 -232v-502l54 -100h233l55 49v557l-118 228h461v-863l118 -231h-440v76l-104 -76h-453l-148 254v610zM334 1599h311l221 -389h-221z" />
<glyph unicode="&#xfa;" horiz-adv-x="1320" d="M29 1094h579l-119 -232v-502l54 -100h233l55 49v557l-118 228h461v-863l118 -231h-440v76l-104 -76h-453l-148 254v610zM461 1210l219 389h311l-311 -389h-219z" />
<glyph unicode="&#xfb;" horiz-adv-x="1320" d="M29 1094h579l-119 -232v-502l54 -100h233l55 49v557l-118 228h461v-863l118 -231h-440v76l-104 -76h-453l-148 254v610zM287 1210l241 389h271l241 -389h-219l-157 213l-156 -213h-221z" />
<glyph unicode="&#xfc;" horiz-adv-x="1320" d="M29 1094h579l-119 -232v-502l54 -100h233l55 49v557l-118 228h461v-863l118 -231h-440v76l-104 -76h-453l-148 254v610zM274 1296v197l58 55h211l57 -55v-197l-49 -47h-227zM727 1296v197l57 55h211l58 -55v-197l-49 -47h-228z" />
<glyph unicode="&#xfd;" horiz-adv-x="1327" d="M8 1094h627l-96 -174l166 -451l167 451l-94 174h541l-150 -172l-454 -1143l-226 -254h-339v348l151 -88h90l94 100l39 107l-356 909zM510 1210l219 389h311l-311 -389h-219z" />
<glyph unicode="&#xfe;" horiz-adv-x="1257" d="M55 -475l119 231v1719l-119 231h461v-676l84 64h455l145 -254v-586l-145 -254h-455l-84 61v-311l115 -225h-576zM516 311l57 -51h234l51 100v373l-51 101h-234l-57 -54v-469z" />
<glyph unicode="&#xff;" horiz-adv-x="1327" d="M8 1094h627l-96 -174l166 -451l167 451l-94 174h541l-150 -172l-454 -1143l-226 -254h-339v348l151 -88h90l94 100l39 107l-356 909zM324 1296v197l57 55h211l57 -55v-197l-49 -47h-227zM776 1296v197l58 55h210l58 -55v-197l-49 -47h-228z" />
<glyph unicode="&#x152;" horiz-adv-x="1748" d="M84 242v1114l125 243h1483v-415l-258 131h-310l43 -82v-248h41l262 131v-543l-260 127h-43v-333l-43 -84h310l258 133v-416h-1483zM481 330l23 -47h268v1032h-266l-25 -51v-934z" />
<glyph unicode="&#x153;" horiz-adv-x="1859" d="M72 254v586l145 254h647l80 -140l80 140h627l145 -254v-379h-678v-101l51 -100h400l151 88v-348h-696l-80 137l-80 -137h-647zM414 360l51 -100h254l53 100v373l-53 101h-254l-51 -101v-373zM1118 659h336v74l-51 101h-234l-51 -101v-74z" />
<glyph unicode="&#x178;" horiz-adv-x="1339" d="M8 1599h662l-52 -253l84 -199l84 196l-51 256h596l-219 -266l-240 -516v-555l129 -262h-653l129 258v557l-250 512zM313 1751v176l58 55h211l57 -55v-176l-49 -47h-228zM766 1751v176l57 55h211l58 -55v-176l-50 -47h-227z" />
<glyph unicode="&#x2000;" horiz-adv-x="991" />
<glyph unicode="&#x2001;" horiz-adv-x="1982" />
<glyph unicode="&#x2002;" horiz-adv-x="991" />
<glyph unicode="&#x2003;" horiz-adv-x="1982" />
<glyph unicode="&#x2004;" horiz-adv-x="660" />
<glyph unicode="&#x2005;" horiz-adv-x="495" />
<glyph unicode="&#x2006;" horiz-adv-x="330" />
<glyph unicode="&#x2007;" horiz-adv-x="330" />
<glyph unicode="&#x2008;" horiz-adv-x="247" />
<glyph unicode="&#x2009;" horiz-adv-x="396" />
<glyph unicode="&#x200a;" horiz-adv-x="110" />
<glyph unicode="&#x2010;" horiz-adv-x="849" d="M45 698v203h762v-203h-762z" />
<glyph unicode="&#x2011;" horiz-adv-x="849" d="M45 698v203h762v-203h-762z" />
<glyph unicode="&#x2012;" horiz-adv-x="849" d="M45 698v203h762v-203h-762z" />
<glyph unicode="&#x2013;" horiz-adv-x="1064" d="M45 698v203h977v-203h-977z" />
<glyph unicode="&#x2014;" horiz-adv-x="1470" d="M45 698v203h1380v-203h-1380z" />
<glyph unicode="&#x2018;" horiz-adv-x="481" d="M41 1210v209l192 287h185l-123 -219h86l59 -60v-217l-69 -67h-258z" />
<glyph unicode="&#x2019;" horiz-adv-x="481" d="M41 1421v217l70 68h258l71 -68v-208l-192 -287h-185l123 219h-86z" />
<glyph unicode="&#x201a;" horiz-adv-x="481" d="M41 88v217l70 68h258l71 -68v-209l-192 -286h-185l123 219h-86z" />
<glyph unicode="&#x201c;" horiz-adv-x="962" d="M41 1210v209l192 287h185l-123 -219h86l59 -60v-217l-69 -67h-258zM522 1210v209l193 287h184l-123 -219h86l60 -60v-217l-70 -67h-258z" />
<glyph unicode="&#x201d;" horiz-adv-x="962" d="M41 1421v217l70 68h258l71 -68v-208l-192 -287h-185l123 219h-86zM522 1421v217l70 68h258l72 -68v-208l-193 -287h-184l123 219h-86z" />
<glyph unicode="&#x201e;" horiz-adv-x="962" d="M41 88v217l70 68h258l71 -68v-209l-192 -286h-185l123 219h-86zM522 88v217l70 68h258l72 -68v-209l-193 -286h-184l123 219h-86z" />
<glyph unicode="&#x2022;" horiz-adv-x="847" d="M57 559v475l105 111h526l105 -111v-475l-105 -104h-526z" />
<glyph unicode="&#x2026;" horiz-adv-x="1443" d="M41 57v248l72 68h256l71 -68v-248l-61 -57h-277zM522 57v248l72 68h256l72 -68v-248l-62 -57h-276zM1004 57v248l71 68h256l72 -68v-248l-62 -57h-276z" />
<glyph unicode="&#x202f;" horiz-adv-x="396" />
<glyph unicode="&#x2039;" horiz-adv-x="536" d="M0 547l317 547h220l-209 -547l209 -547h-220z" />
<glyph unicode="&#x203a;" horiz-adv-x="536" d="M0 0l209 549l-209 545h219l318 -545l-318 -549h-219z" />
<glyph unicode="&#x205f;" horiz-adv-x="495" />
<glyph unicode="&#x20ac;" horiz-adv-x="1153" d="M27 528v222h123v92h-123v225h123v289l124 243h795v-415l-260 131h-240l-24 -51v-197h311v-225h-311v-92h311v-222h-311v-198l22 -47h269l260 131v-414h-822l-124 242v286h-123z" />
<glyph unicode="&#x2122;" horiz-adv-x="1474" d="M53 1343v256h555v-256l-131 66v53h-47v-532l64 -129h-328l65 129v532h-49v-53zM662 801l65 129v540l-65 129h325l84 -346l98 346h271l-66 -129v-544l64 -125h-283l66 129v270l-105 -399h-135l-102 407v-278l65 -129h-282z" />
<glyph unicode="&#x25fc;" horiz-adv-x="1095" d="M0 0v1096h1096v-1096h-1096z" />
</font>
</defs>
</svg>
