<?xml version="1.0" standalone="no"?>
<!DOCTYPE svg PUBLIC "-//W3C//DTD SVG 1.1//EN" "http://www.w3.org/Graphics/SVG/1.1/DTD/svg11.dtd" >
<svg xmlns="http://www.w3.org/2000/svg" xmlns:xlink="http://www.w3.org/1999/xlink" version="1.1">
<metadata></metadata>
<defs>
<font id="kirstyregular" horiz-adv-x="1067" >
<font-face units-per-em="2048" ascent="1638" descent="-410" />
<missing-glyph horiz-adv-x="452" />
<glyph horiz-adv-x="0" />
<glyph horiz-adv-x="0" />
<glyph horiz-adv-x="682" />
<glyph horiz-adv-x="452" />
<glyph unicode=" "  horiz-adv-x="452" />
<glyph unicode="&#x09;" horiz-adv-x="452" />
<glyph unicode="&#xa0;" horiz-adv-x="452" />
<glyph unicode="!" horiz-adv-x="538" d="M82 1169v295l70 135h239l66 -133v-297l-103 -692h-174zM94 49v217l62 58h223l59 -58v-217l-51 -49h-240z" />
<glyph unicode="&#x22;" horiz-adv-x="808" d="M49 1495v74l70 137h172l63 -133v-78l-102 -494h-100zM451 1495v74l69 137h172l64 -133v-78l-103 -494h-100z" />
<glyph unicode="#" d="M70 508v162h178v260h-178v160h178v509h162v-509h249v509h162v-509h178v-160h-178v-260h178v-162h-178v-508h-162v508h-249v-508h-162v508h-178zM410 670h249v260h-249v-260z" />
<glyph unicode="$" horiz-adv-x="1114" d="M72 86v373l223 -127h211v313l-301 94l-133 236v299l118 239h316v136h125v-136h368v-372l-223 125h-145v-297l274 -84l137 -236v-321l-120 -242h-291v-135h-125v135h-434zM348 1122l53 -82l105 -32v258h-119l-39 -68v-76zM631 332h92l39 71v99l-55 80l-76 22v-272z" />
<glyph unicode="%" horiz-adv-x="1765" d="M61 895v461l125 243h1176l-793 -1599h-157l716 1462h-428l54 -106v-461l-123 -240h-445zM299 965l35 -68h151l33 68v315l-37 76h-143l-39 -76v-315zM1006 240v460l124 244h447l123 -244v-460l-123 -240h-447zM1243 313l33 -71h154l32 71v312l-37 77h-145l-37 -77v-312z " />
<glyph unicode="&#x26;" horiz-adv-x="1226" d="M70 242v274l106 229l162 138l-143 235v238l122 243h435l118 -241v-223l-61 -127l-168 -160l166 -260l174 231l174 -170l-213 -276l236 -373h-297l-101 162l-123 -162h-469zM401 315l35 -79h107l106 141l-186 301l-62 -139v-224zM459 1139l63 -103l88 113v137l-32 70h-82 l-37 -70v-147z" />
<glyph unicode="'" horiz-adv-x="407" d="M49 1495v74l70 137h172l63 -133v-78l-102 -494h-100z" />
<glyph unicode="(" horiz-adv-x="684" d="M223 2v1608l273 372h184l-264 -452v-1448l264 -453h-184z" />
<glyph unicode=")" horiz-adv-x="561" d="M4 -371l264 453v1448l-264 452h184l273 -372v-1608l-273 -373h-184z" />
<glyph unicode="*" horiz-adv-x="983" d="M18 1374l379 -28l92 368l97 -368l377 28l-314 -209l135 -354l-295 240l-290 -240l137 354z" />
<glyph unicode="+" d="M70 719v162h383v391h161v-391h385v-162h-385v-391h-161v391h-383z" />
<glyph unicode="," horiz-adv-x="436" d="M45 76v190l61 58h224l61 -58v-182l-166 -283h-159l106 224h-76z" />
<glyph unicode="-" horiz-adv-x="847" d="M49 705v180h752v-180h-752z" />
<glyph unicode="." horiz-adv-x="436" d="M45 49v217l61 58h224l61 -58v-217l-53 -49h-240z" />
<glyph unicode="/" horiz-adv-x="827" d="M2 -111l637 1817h184l-637 -1817h-184z" />
<glyph unicode="0" horiz-adv-x="1191" d="M88 242v1114l123 243h770l125 -241v-1116l-125 -242h-770zM420 313l35 -71h282l35 71v967l-39 76h-276l-37 -76v-967z" />
<glyph unicode="1" horiz-adv-x="739" d="M49 1139v231l174 62l47 167h287v-1363l125 -236h-584l127 233v906h-176z" />
<glyph unicode="2" horiz-adv-x="1138" d="M78 0v225l686 987v74l-33 70h-389l-221 -129v372h807l121 -243v-285l-523 -760l-84 -69h383l224 131v-373h-971z" />
<glyph unicode="3" horiz-adv-x="1034" d="M61 0v373l226 -129h313l35 75v291l-47 78h-285v242h283l49 78v272l-37 76h-309l-223 -129v372h782l121 -241v-336l-95 -168l-98 -47l90 -41l103 -170v-352l-121 -244h-787z" />
<glyph unicode="4" horiz-adv-x="1239" d="M23 680l725 919h405l-129 -225v-684h147v-244h-147v-213l127 -233h-586l125 233v213h-555zM315 690h375v486z" />
<glyph unicode="5" horiz-adv-x="1150" d="M92 0v373l223 -131h396l39 77v297l-35 72h-508l-115 180v731h930v-372l-223 129h-430l39 -70v-309l26 -47h508l123 -242v-444l-123 -244h-850z" />
<glyph unicode="6" horiz-adv-x="1245" d="M88 242v1114l123 243h862v-372l-221 129h-395l-37 -76v-348h629l120 -244v-446l-120 -242h-838zM420 313l35 -71h350l33 71v289l-41 88h-377v-377z" />
<glyph unicode="7" horiz-adv-x="1064" d="M92 1227v372h828l106 -213l-414 -1159l90 -227h-589l172 227l362 1018l88 111h-422z" />
<glyph unicode="8" horiz-adv-x="1165" d="M66 242v352l102 174l88 39l-96 47l-94 168v336l120 241h793l121 -241v-336l-94 -168l-97 -47l88 -39l103 -172v-354l-121 -242h-793zM397 317l37 -75h297l35 75v293l-47 78h-273l-49 -78v-293zM397 1008l52 -78h268l49 78v272l-37 76h-293l-39 -76v-272z" />
<glyph unicode="9" horiz-adv-x="1243" d="M76 936v422l119 241h839l121 -241v-1114l-121 -244h-866v373l225 -131h389l43 77v373h-630zM408 1022l41 -88h376v352l-39 70h-348l-30 -70v-264z" />
<glyph unicode=":" horiz-adv-x="620" d="M135 715v217l62 57h223l61 -57v-217l-53 -49h-240zM137 131v217l62 58h223l61 -58v-217l-53 -49h-240z" />
<glyph unicode=";" horiz-adv-x="620" d="M135 715v217l62 57h223l61 -57v-217l-53 -49h-240zM137 158v190l62 58h223l61 -58v-182l-166 -283h-159l106 223h-76z" />
<glyph unicode="&#x3c;" d="M92 737v125l635 387h295l-731 -442l731 -455h-295z" />
<glyph unicode="=" d="M92 520v162h930v-162h-930zM92 918v159h930v-159h-930z" />
<glyph unicode="&#x3e;" d="M92 352l731 445l-731 452h295l635 -385v-125l-635 -387h-295z" />
<glyph unicode="?" horiz-adv-x="1040" d="M57 1227v372h809l123 -243v-342l-123 -240l-239 -88l-39 -65l-13 -152h-227l-26 195l110 227l236 90l43 80v217l-41 78h-387zM287 49v217l61 58h221l62 -58v-217l-51 -49h-240z" />
<glyph unicode="@" horiz-adv-x="1388" d="M90 -18v1144l123 246h967l120 -244v-989h-823l-74 142v235l74 143h326v156l-17 33h-186l-145 -88v252h487l68 -140v-569h110v768l-39 76h-747l-37 -76v-989l35 -98h966v-39l-104 -205h-981zM612 336l17 -33h174v193h-174l-17 -33v-127z" />
<glyph unicode="A" horiz-adv-x="1372" d="M12 0l148 221l336 1151l-101 227h436l375 -1366l154 -233h-582l94 223l-22 84h-404l-26 -96l96 -211h-504zM516 555h264l-131 481z" />
<glyph unicode="B" horiz-adv-x="1302" d="M76 0l127 223v1151l-127 225h1042l121 -241v-301l-96 -166l-99 -47l91 -43l104 -172v-387l-121 -242h-1042zM496 242h374l35 75v328l-49 76h-321v-408zM498 1356l37 -70v-321h319l51 77v238l-39 76h-368z" />
<glyph unicode="C" horiz-adv-x="1073" d="M88 242v1114l123 243h784v-372l-225 129h-313l-37 -80v-959l37 -75h340l223 131v-373h-809z" />
<glyph unicode="D" horiz-adv-x="1372" d="M76 0l127 219v1155l-127 225h1085l125 -241v-1116l-125 -242h-1085zM496 242h422l34 75v963l-39 76h-415l37 -70v-973z" />
<glyph unicode="E" horiz-adv-x="1196" d="M76 0l127 223v1151l-127 225h1059v-372l-224 129h-413l37 -70v-321h139l241 137v-516l-243 135h-137v-408l-39 -71h415l224 131v-373h-1059z" />
<glyph unicode="F" horiz-adv-x="1163" d="M76 0l127 233v1141l-127 225h1059v-372l-224 129h-413l37 -70v-321h139l241 137v-516l-243 135h-137v-488l127 -233h-586z" />
<glyph unicode="G" horiz-adv-x="1222" d="M88 242v1114l123 243h852v-372l-225 129h-381l-37 -78v-963l35 -73h342l-37 71v283l-127 233h534l-127 -235v-371l127 -223h-956z" />
<glyph unicode="H" horiz-adv-x="1509" d="M76 0l127 233v1133l-127 233h571l-129 -233v-401h473v401l-127 233h570l-129 -235v-1128l129 -236h-570l127 231v490h-473v-492l127 -229h-569z" />
<glyph unicode="I" horiz-adv-x="737" d="M76 0l127 236v1128l-127 235h588l-129 -233v-1135l127 -231h-586z" />
<glyph unicode="J" horiz-adv-x="1062" d="M29 0v373l225 -131h252l35 75v1051l-125 231h585l-127 -231v-1126l-122 -242h-723z" />
<glyph unicode="K" horiz-adv-x="1495" d="M76 0l127 233v1131l-127 235h588l-129 -233v-356l399 589h452l-284 -235l-305 -459l374 -586l310 -319h-615l27 154l-358 594v-515l127 -233h-586z" />
<glyph unicode="L" horiz-adv-x="1120" d="M76 0l127 223v1141l-127 235h588l-129 -233v-1053l-39 -71h370l224 131v-373h-1014z" />
<glyph unicode="M" horiz-adv-x="1681" d="M76 0l127 231v1147l-127 221h567l231 -868l256 868h478l-129 -221v-1149l127 -229h-519l130 231v717l-261 -948h-235l-258 969v-738l129 -231h-516z" />
<glyph unicode="N" horiz-adv-x="1402" d="M76 0l127 231v1149l-127 219h389l514 -925v694l-127 231h518l-129 -229v-1370h-250l-528 920v-689l129 -231h-516z" />
<glyph unicode="O" horiz-adv-x="1257" d="M88 242v1114l123 243h838l120 -241v-1116l-120 -242h-838zM422 313l35 -71h348l33 71v967l-39 76h-340l-37 -76v-967z" />
<glyph unicode="P" horiz-adv-x="1320" d="M76 0l127 231v1143l-127 225h1061l123 -241v-484l-123 -245h-611v-393l127 -236h-577zM489 1356l37 -70v-412h381l35 72v334l-37 76h-416z" />
<glyph unicode="Q" horiz-adv-x="1259" d="M88 242v1114l123 243h838l120 -241v-1116l-120 -242h-123l153 -135l-155 -187l-340 302l18 20h-391zM422 313l35 -71h348l33 71v967l-39 76h-340l-37 -76v-967z" />
<glyph unicode="R" horiz-adv-x="1443" d="M76 0l127 221v1153l-127 225h1085l125 -241v-389l-98 -166l-90 -49l82 -39l106 -172v-287l125 -256h-336l-123 240v319l-47 74h-370v-633h-459zM496 1356l39 -74v-403h368l49 77v324l-39 76h-417z" />
<glyph unicode="S" horiz-adv-x="1132" d="M84 0v373l223 -131h430l39 77v211l-55 86l-500 158l-137 244v338l123 243h809v-372l-225 129h-390l-36 -76v-117l51 -86l502 -159l139 -240v-434l-121 -244h-852z" />
<glyph unicode="T" horiz-adv-x="1153" d="M29 1087v512h1095v-512l-225 125v150h-156v-1129l125 -233h-585l127 233v1129h-158v-150z" />
<glyph unicode="U" horiz-adv-x="1337" d="M33 1599h588l-125 -235v-1051l32 -71h336l33 71v1057l-129 229h535l-127 -231v-1126l-121 -242h-774l-121 242v1124z" />
<glyph unicode="V" horiz-adv-x="1372" d="M12 1599h582l-96 -225l223 -819l227 825l-92 219h504l-152 -227l-397 -1372h-272l-371 1354z" />
<glyph unicode="W" horiz-adv-x="2107" d="M12 1599h582l-100 -233l194 -797l293 1030h236l268 -1026l201 797l-101 229h510l-147 -229l-371 -1370h-270l-258 932l-277 -932h-270l-344 1366z" />
<glyph unicode="X" horiz-adv-x="1437" d="M12 0l217 246l320 575l-291 514l-225 264h588l-52 -213l166 -294l164 297l-61 210h559l-250 -251l-273 -500l336 -594l215 -254h-583l51 211l-205 362l-199 -356l54 -217h-531z" />
<glyph unicode="Y" horiz-adv-x="1331" d="M12 1599h592l-51 -213l139 -292l137 290l-53 215h541l-215 -249l-264 -533v-579l127 -238h-588l127 231v584l-271 522z" />
<glyph unicode="Z" horiz-adv-x="1150" d="M57 217l598 1073l64 66h-397l-222 -129v372h865l106 -215l-600 -1079l-57 -63h436l219 131v-373h-905z" />
<glyph unicode="[" horiz-adv-x="684" d="M215 -371v2353h420v-157h-227v-2038h227v-158h-420z" />
<glyph unicode="\" horiz-adv-x="827" d="M2 1706h184l637 -1817h-184z" />
<glyph unicode="]" horiz-adv-x="684" d="M49 -213h230v2038h-230v157h420v-2353h-420v158z" />
<glyph unicode="^" horiz-adv-x="1030" d="M74 668v293l379 638h125l378 -638v-293l-436 735z" />
<glyph unicode="_" horiz-adv-x="1130" d="M-8 -59h1147v-154h-1147v154z" />
<glyph unicode="a" horiz-adv-x="1206" d="M68 211v258l118 209h588v63l-61 113h-387l-138 -94v319h725l144 -252v-618l117 -209h-383v84l-113 -84h-494zM356 297l50 -88h290l78 65v230h-371l-47 -88v-119z" />
<glyph unicode="b" horiz-adv-x="1249" d="M45 1706h408v-700l98 73h479l144 -252v-577l-144 -250h-479l-115 86v-86h-274v1499zM453 293l79 -68h291l62 113v403l-62 113h-291l-79 -70v-491z" />
<glyph unicode="c" horiz-adv-x="940" d="M76 250v577l143 252h668v-319l-137 94h-324l-59 -113v-403l59 -113h324l137 94v-319h-668z" />
<glyph unicode="d" horiz-adv-x="1236" d="M76 250v577l143 252h479l97 -73v497l-113 203h403v-1497l117 -209h-389v84l-115 -84h-479zM367 338l59 -113h293l76 66v495l-76 68h-293l-59 -113v-403z" />
<glyph unicode="e" horiz-adv-x="1148" d="M76 250v577l143 252h719l143 -252v-362h-714v-127l59 -113h442l138 94v-319h-787zM367 641h424v100l-62 113h-303l-59 -113v-100z" />
<glyph unicode="f" horiz-adv-x="802" d="M20 870v209h150v375l145 252h484v-320l-137 95h-140l-61 -115v-287h321v-209h-321v-663l117 -207h-525l117 207v663h-150z" />
<glyph unicode="g" horiz-adv-x="1142" d="M55 -150l70 136l-53 86v92l123 205l-138 235v223l146 252h602l108 291h240l-47 -227h-148l-38 -92l127 -224v-223l-144 -250h-592l-30 -53v-55l28 -33h676l139 -238v-211l-139 -239h-840l-90 160v165zM295 -127v-100l31 -58h477l45 82v92l-45 76h-457zM332 664l61 -113 h324l61 113v104l-61 115h-324l-61 -115v-104z" />
<glyph unicode="h" horiz-adv-x="1333" d="M53 0l117 207v1292l-117 207h408v-700l98 73h479l144 -252v-618l116 -209h-493l88 176v565l-62 113h-292l-78 -70v-577l117 -207h-525z" />
<glyph unicode="i" horiz-adv-x="612" d="M53 0l117 207v665l-117 207h408v-872l117 -207h-525zM160 1294v174l51 50h184l51 -50v-174l-43 -43h-200z" />
<glyph unicode="j" horiz-adv-x="657" d="M4 -156l137 -94h95l59 113v1007l-119 209h408v-1304l-144 -250h-436v319zM287 1294v174l51 50h184l51 -50v-174l-43 -43h-200z" />
<glyph unicode="k" horiz-adv-x="1359" d="M53 0l117 207v1292l-117 207h408v-1044l350 417h451l-267 -166l-260 -309l340 -399l275 -205h-580l25 109l-334 421v-323l117 -207h-525z" />
<glyph unicode="l" horiz-adv-x="612" d="M53 0l117 207v1292l-117 207h408v-1499l117 -207h-525z" />
<glyph unicode="m" horiz-adv-x="1904" d="M53 0l117 207v665l-117 207h391v-86l115 86h406l53 -88l104 88h488l143 -252v-618l117 -209h-524l118 209v532l-61 113h-238l-65 -66v-573l117 -215h-508l116 215v530l-63 109h-223l-78 -70v-577l117 -207h-525z" />
<glyph unicode="n" horiz-adv-x="1333" d="M53 0l117 207v665l-117 207h391v-86l115 86h479l144 -252v-618l116 -209h-524l119 209v532l-62 113h-292l-78 -70v-577l117 -207h-525z" />
<glyph unicode="o" horiz-adv-x="1177" d="M76 250v577l143 252h739l146 -252v-577l-146 -250h-739zM367 338l57 -113h328l61 113v403l-61 113h-328l-57 -113v-403z" />
<glyph unicode="p" horiz-adv-x="1249" d="M45 -475l117 207v1140l-117 207h391v-86l115 86h479l144 -252v-577l-144 -250h-479l-98 74v-344l114 -205h-522zM453 293l79 -68h291l62 111v405l-62 113h-291l-79 -70v-491z" />
<glyph unicode="q" horiz-adv-x="1236" d="M76 250v577l143 252h479l115 -86v86h389l-117 -211v-1134l117 -209h-520l113 203v342l-97 -70h-479zM367 338l59 -113h293l76 66v495l-76 68h-293l-59 -113v-403z" />
<glyph unicode="r" horiz-adv-x="1001" d="M53 0l117 207v665l-117 207h391v-127l121 127h406v-319l-137 94h-230l-143 -147v-500l117 -207h-525z" />
<glyph unicode="s" horiz-adv-x="1044" d="M80 0v319l184 -124h393l37 49v116l-39 48l-456 92l-119 159v256l113 164h743v-319l-184 121h-373l-31 -45v-66l37 -47l471 -92l117 -162v-305l-115 -164h-778z" />
<glyph unicode="t" horiz-adv-x="827" d="M20 870v209h150v178l291 269v-447h325v-209h-325v-532l61 -113h140l137 94v-319h-484l-145 250v620h-150z" />
<glyph unicode="u" horiz-adv-x="1312" d="M33 1079h524l-117 -211v-528l64 -115h291l77 66v581l-116 207h405v-868l119 -211h-391v84l-115 -84h-479l-145 250v622z" />
<glyph unicode="v" horiz-adv-x="1318" d="M12 1079h566l-97 -157l211 -543l215 543l-94 157h496l-150 -161l-385 -918h-260l-352 907z" />
<glyph unicode="w" horiz-adv-x="1820" d="M10 1079h512l-90 -164l162 -524l252 688h205l231 -686l170 525l-92 161h450l-124 -155l-324 -924h-236l-221 625l-239 -625h-234l-293 913z" />
<glyph unicode="x" horiz-adv-x="1390" d="M12 0l226 184l286 355l-278 358l-215 182h602l-62 -135l154 -194l145 182l-55 147h553l-287 -211l-229 -282l350 -449l176 -137h-600l51 150l-178 227l-182 -227l51 -150h-508z" />
<glyph unicode="y" horiz-adv-x="1318" d="M10 1079h563l-94 -157l211 -555l219 555l-96 157h496l-148 -157l-471 -1147l-223 -250h-322v319l138 -94h100l111 119l43 108l-373 924z" />
<glyph unicode="z" d="M55 150l525 690l59 43h-326l-217 -123v319h811l97 -151l-525 -692l-49 -37h354l217 120v-319h-849z" />
<glyph unicode="{" horiz-adv-x="684" d="M96 807l131 192v633l267 350h182l-258 -432v-567l-111 -176l111 -180v-566l258 -432h-187l-262 351v630z" />
<glyph unicode="|" horiz-adv-x="428" d="M139 -371v2349h148v-2349h-148z" />
<glyph unicode="}" horiz-adv-x="684" d="M12 -371l256 432v568l113 176l-113 180v565l-256 432h187l262 -350v-631l131 -196l-131 -193v-632l-266 -351h-183z" />
<glyph unicode="~" d="M70 659v152l249 156l422 -162l258 151v-153l-243 -154l-424 166z" />
<glyph unicode="&#xa1;" horiz-adv-x="538" d="M82 -45l102 692h174l99 -692v-295l-70 -135h-240l-65 133v297zM100 858v217l52 49h239l53 -49v-217l-61 -57h-223z" />
<glyph unicode="&#xa2;" horiz-adv-x="935" d="M88 469v653l102 209h273v318h147v-318h238v-340l-195 117h-43v-625h64l192 111v-334h-256v-309h-147v309h-273zM338 526l22 -43h103v625h-101l-24 -47v-535z" />
<glyph unicode="&#xa3;" horiz-adv-x="1097" d="M4 686v244h137v428l123 241h721v-372l-223 129h-252l-35 -70v-356h166l225 137v-516l-219 135h-172v-446h371l213 247v-487h-1045l127 219v467h-137z" />
<glyph unicode="&#xa4;" horiz-adv-x="1275" d="M23 360l204 201l-28 37v406l28 34l-204 203l172 172l188 -184l25 28h458l23 -28l188 184l172 -172l-205 -203l31 -34v-406l-31 -37l205 -201l-172 -174l-188 185l-23 -27h-458l-23 27l-190 -185zM424 662l72 -93h278l76 93v278l-76 92h-278l-72 -92v-278z" />
<glyph unicode="&#xa5;" horiz-adv-x="1388" d="M39 1599h592l-56 -221l144 -319l141 315l-57 225h540l-204 -235l-258 -547h381v-143h-398v-150h398v-143h-398v-143l127 -238h-588l127 231v150h-401v143h401v150h-401v143h381l-262 535z" />
<glyph unicode="&#xa6;" horiz-adv-x="428" d="M139 -371v883h148v-883h-148zM139 1143v835h148v-835h-148z" />
<glyph unicode="&#xa7;" horiz-adv-x="1019" d="M94 41l166 -107h307l27 56v182l-33 55l-362 121l-105 180v289l90 189h174l-125 129v272l89 192h591v-301l-170 107h-274l-29 -59v-95l39 -57l365 -121l98 -182v-352l-88 -191h-96l45 -61v-357l-88 -190h-621v301zM303 645l37 -53l129 -49h238l26 55v178l-20 35h-383 l-27 -55v-111z" />
<glyph unicode="&#xa9;" horiz-adv-x="1257" d="M88 242v1114l123 243h838l120 -241v-1116l-120 -242h-838zM238 279l63 -129h653l68 124v1049l-68 125h-651l-65 -127v-1042zM387 516v561l64 123h399v-209l-123 78h-145l-17 -33v-483l15 -29h161l123 78v-209h-413z" />
<glyph unicode="&#xaa;" horiz-adv-x="749" d="M55 1069v156l72 127h346v37l-33 61h-231l-80 -64v205h434l86 -149v-371l72 -127h-240v45l-59 -45h-297zM76 672v145h600v-145h-600zM233 1122l27 -47h172l41 35v131h-213l-27 -47v-72z" />
<glyph unicode="&#xab;" horiz-adv-x="995" d="M4 539l311 540h189l-219 -540l219 -539h-189zM492 539l311 540h188l-219 -540l219 -539h-188z" />
<glyph unicode="&#xac;" d="M70 729v162h929v-891h-161v729h-768z" />
<glyph unicode="&#xad;" horiz-adv-x="847" d="M49 705v180h752v-180h-752z" />
<glyph unicode="&#xae;" horiz-adv-x="843" d="M88 926v522l74 151h522l74 -151v-522l-74 -150h-522zM184 952l37 -80h402l41 78v473l-41 80h-400l-39 -80v-471zM252 977l35 63v299l-35 74h295l35 -65v-107l-27 -45l-23 -12l21 -10l29 -44v-83l32 -70h-98l-35 65v91l-10 16h-88v-172h-131zM371 1339l12 -22v-92h92l6 12 v88l-6 14h-104z" />
<glyph unicode="&#xb0;" horiz-adv-x="600" d="M35 1104v391l53 104h424l53 -104v-391l-53 -103h-422zM164 1145h274v311h-274v-311z" />
<glyph unicode="&#xb1;" d="M70 0v162h929v-162h-929zM70 719v162h383v391h161v-391h385v-162h-385v-391h-161v391h-383z" />
<glyph unicode="&#xb2;" horiz-adv-x="653" d="M78 801v119l301 469v36l-14 27h-148l-117 -76v223h402l63 -120v-142l-209 -336l-69 -55h149l129 82v-227h-487z" />
<glyph unicode="&#xb3;" horiz-adv-x="620" d="M61 801v223l121 -78h154l12 29v125l-14 28h-152v146h150l16 29v120l-14 29h-152l-121 -76v223h435l61 -120v-176l-43 -80l-51 -23l47 -18l47 -82v-178l-61 -121h-435z" />
<glyph unicode="&#xb6;" horiz-adv-x="1353" d="M76 1116v242l123 241h1099l-122 -217v-1857h-224v1831h-317v-1831h-225v1345h-211z" />
<glyph unicode="&#xb7;" horiz-adv-x="436" d="M45 670v217l61 57h224l61 -57v-217l-53 -49h-240z" />
<glyph unicode="&#xb9;" horiz-adv-x="464" d="M49 1346v139l88 31l25 83h182v-692l64 -106h-334l61 102v443h-86z" />
<glyph unicode="&#xba;" horiz-adv-x="749" d="M66 1094v348l86 149h442l88 -149v-348l-88 -150h-442zM76 672v145h600v-145h-600zM246 1147l33 -62h190l33 62v242l-33 61h-190l-33 -61v-242z" />
<glyph unicode="&#xbb;" horiz-adv-x="995" d="M4 0l217 541l-217 538h186l314 -538l-314 -541h-186zM492 0l217 541l-217 538h186l313 -538l-313 -541h-186z" />
<glyph unicode="&#xbc;" horiz-adv-x="1458" d="M14 0l1129 1599h182l-1126 -1599h-185zM100 1346v139l88 31l25 83h182v-692l64 -106h-334l61 102v443h-86zM735 356l365 443h241l-61 -117v-322h74v-145h-74v-113l61 -102h-335l65 109v106h-274zM920 360h151v185z" />
<glyph unicode="&#xbd;" horiz-adv-x="1484" d="M14 0l1129 1599h182l-1126 -1599h-185zM100 1346v139l88 31l25 83h182v-692l64 -106h-334l61 102v443h-86zM952 0v119l301 469v37l-14 26h-147l-117 -76v224h401l64 -121v-141l-209 -336l-70 -56h150l129 82v-227h-488z" />
<glyph unicode="&#xbe;" horiz-adv-x="1484" d="M45 801v223l121 -78h153l13 29v125l-15 28h-151v146h149l17 29v120l-15 29h-151l-121 -76v223h434l62 -120v-176l-43 -80l-52 -23l48 -18l47 -82v-178l-62 -121h-434zM76 0l1128 1599h182l-1126 -1599h-184zM797 356l364 443h242l-62 -117v-322h74v-145h-74v-113l62 -102 h-336l66 109v106h-275zM981 360h152v185z" />
<glyph unicode="&#xbf;" horiz-adv-x="1040" d="M51 111l121 239l242 88l39 66l10 151h227l29 -194l-113 -228l-233 -90l-43 -80v-217l41 -77h385l227 129v-373h-811l-121 244v342zM408 858v217l53 49h239l54 -49v-217l-62 -57h-223z" />
<glyph unicode="&#xc0;" horiz-adv-x="1372" d="M12 0l148 221l336 1151l-101 227h436l375 -1366l154 -233h-582l94 223l-22 84h-404l-26 -96l96 -211h-504zM326 1982h270l260 -327h-186zM516 555h264l-131 481z" />
<glyph unicode="&#xc1;" horiz-adv-x="1372" d="M12 0l148 221l336 1151l-101 227h436l375 -1366l154 -233h-582l94 223l-22 84h-404l-26 -96l96 -211h-504zM442 1655l260 327h271l-342 -327h-189zM516 555h264l-131 481z" />
<glyph unicode="&#xc2;" horiz-adv-x="1372" d="M12 0l148 221l336 1151l-101 227h436l375 -1366l154 -233h-582l94 223l-22 84h-404l-26 -96l96 -211h-504zM272 1655l248 327h248l248 -327h-191l-180 200l-178 -200h-195zM516 555h264l-131 481z" />
<glyph unicode="&#xc3;" horiz-adv-x="1372" d="M12 0l148 221l336 1151l-101 227h436l375 -1366l154 -233h-582l94 223l-22 84h-404l-26 -96l96 -211h-504zM219 1808l154 166h172l274 -149l144 143l108 -137l-156 -168h-184l-264 149l-141 -143zM516 555h264l-131 481z" />
<glyph unicode="&#xc4;" horiz-adv-x="1372" d="M12 0l148 221l336 1151l-101 227h436l375 -1366l154 -233h-582l94 223l-22 84h-404l-26 -96l96 -211h-504zM281 1761v158l51 49h186l49 -49v-158l-43 -43h-200zM516 555h264l-131 481zM721 1761v158l49 49h186l52 -49v-158l-43 -43h-201z" />
<glyph unicode="&#xc5;" horiz-adv-x="1372" d="M12 0l148 221l336 1151l-101 227h436l375 -1366l154 -233h-582l94 223l-22 84h-404l-26 -96l96 -211h-504zM389 1704v194l78 84h354l76 -84v-194l-76 -84h-354zM516 555h264l-131 481zM553 1739l29 -33h125l28 33v125l-28 32h-125l-29 -32v-125z" />
<glyph unicode="&#xc6;" horiz-adv-x="1792" d="M4 0l146 219l335 1153l-98 227h1344v-372l-222 129h-379l37 -70v-321h105l241 137v-516l-243 135h-103v-408l-39 -71h381l222 131v-373h-1022l127 223v187h-371l-55 -197l98 -213h-504zM532 655h304v719l-9 15h-92z" />
<glyph unicode="&#xc7;" horiz-adv-x="1073" d="M88 242v1114l123 243h784v-372l-225 129h-313l-37 -80v-959l37 -75h340l223 131v-373h-809zM471 -330h94l17 35v90l-90 152h157l133 -140v-176l-51 -106h-260v145z" />
<glyph unicode="&#xc8;" horiz-adv-x="1196" d="M76 0l127 223v1151l-127 225h1059v-372l-224 129h-413l37 -70v-321h139l241 137v-516l-243 135h-137v-408l-39 -71h415l224 131v-373h-1059zM319 1982h271l260 -327h-186z" />
<glyph unicode="&#xc9;" horiz-adv-x="1196" d="M76 0l127 223v1151l-127 225h1059v-372l-224 129h-413l37 -70v-321h139l241 137v-516l-243 135h-137v-408l-39 -71h415l224 131v-373h-1059zM436 1655l260 327h271l-342 -327h-189z" />
<glyph unicode="&#xca;" horiz-adv-x="1196" d="M76 0l127 223v1151l-127 225h1059v-372l-224 129h-413l37 -70v-321h139l241 137v-516l-243 135h-137v-408l-39 -71h415l224 131v-373h-1059zM266 1655l248 327h248l248 -327h-191l-180 200l-178 -200h-195z" />
<glyph unicode="&#xcb;" horiz-adv-x="1196" d="M76 0l127 223v1151l-127 225h1059v-372l-224 129h-413l37 -70v-321h139l241 137v-516l-243 135h-137v-408l-39 -71h415l224 131v-373h-1059zM274 1761v158l52 49h186l49 -49v-158l-43 -43h-201zM715 1761v158l49 49h186l51 -49v-158l-43 -43h-200z" />
<glyph unicode="&#xcc;" horiz-adv-x="737" d="M49 1982h270l261 -327h-187zM76 0l127 236v1128l-127 235h588l-129 -233v-1135l127 -231h-586z" />
<glyph unicode="&#xcd;" horiz-adv-x="737" d="M76 0l127 236v1128l-127 235h588l-129 -233v-1135l127 -231h-586zM166 1655l260 327h270l-342 -327h-188z" />
<glyph unicode="&#xce;" horiz-adv-x="737" d="M-4 1655l248 327h248l247 -327h-190l-180 200l-179 -200h-194zM76 0l127 236v1128l-127 235h588l-129 -233v-1135l127 -231h-586z" />
<glyph unicode="&#xcf;" horiz-adv-x="737" d="M4 1761v158l51 49h187l49 -49v-158l-43 -43h-201zM76 0l127 236v1128l-127 235h588l-129 -233v-1135l127 -231h-586zM444 1761v158l50 49h186l51 -49v-158l-43 -43h-201z" />
<glyph unicode="&#xd0;" horiz-adv-x="1372" d="M4 721v244h199v409l-127 225h1085l125 -241v-1116l-125 -242h-1085l127 219v502h-199zM496 242h422l34 75v963l-39 76h-415l37 -70v-321h274v-244h-274v-408z" />
<glyph unicode="&#xd1;" horiz-adv-x="1402" d="M76 0l127 231v1149l-127 219h389l514 -925v694l-127 231h518l-129 -229v-1370h-250l-528 920v-689l129 -231h-516zM299 1808l154 166h172l274 -149l143 143l109 -137l-156 -168h-184l-264 149l-141 -143z" />
<glyph unicode="&#xd2;" horiz-adv-x="1257" d="M88 242v1114l123 243h838l120 -241v-1116l-120 -242h-838zM313 1982h271l260 -327h-187zM422 313l35 -71h348l33 71v967l-39 76h-340l-37 -76v-967z" />
<glyph unicode="&#xd3;" horiz-adv-x="1257" d="M88 242v1114l123 243h838l120 -241v-1116l-120 -242h-838zM422 313l35 -71h348l33 71v967l-39 76h-340l-37 -76v-967zM430 1655l260 327h271l-343 -327h-188z" />
<glyph unicode="&#xd4;" horiz-adv-x="1257" d="M88 242v1114l123 243h838l120 -241v-1116l-120 -242h-838zM260 1655l248 327h248l248 -327h-191l-180 200l-178 -200h-195zM422 313l35 -71h348l33 71v967l-39 76h-340l-37 -76v-967z" />
<glyph unicode="&#xd5;" horiz-adv-x="1257" d="M88 242v1114l123 243h838l120 -241v-1116l-120 -242h-838zM207 1808l153 166h172l275 -149l143 143l109 -137l-156 -168h-184l-264 149l-142 -143zM422 313l35 -71h348l33 71v967l-39 76h-340l-37 -76v-967z" />
<glyph unicode="&#xd6;" horiz-adv-x="1257" d="M88 242v1114l123 243h838l120 -241v-1116l-120 -242h-838zM268 1761v158l51 49h187l49 -49v-158l-43 -43h-201zM422 313l35 -71h348l33 71v967l-39 76h-340l-37 -76v-967zM709 1761v158l49 49h186l51 -49v-158l-43 -43h-200z" />
<glyph unicode="&#xd7;" d="M117 494l303 303l-303 305l112 112l303 -303l304 303l114 -112l-305 -305l305 -303l-114 -113l-304 303l-303 -303z" />
<glyph unicode="&#xd8;" horiz-adv-x="1257" d="M53 -156l119 230l-84 168v1114l123 243h754l82 156h163l-123 -235l82 -162v-1116l-120 -242h-752l-80 -156h-164zM422 553l397 764l-20 39h-340l-37 -76v-727zM440 274l17 -32h348l33 71v725z" />
<glyph unicode="&#xd9;" horiz-adv-x="1337" d="M33 1599h588l-125 -235v-1051l32 -71h336l33 71v1057l-129 229h535l-127 -231v-1126l-121 -242h-774l-121 242v1124zM383 1982h270l260 -327h-186z" />
<glyph unicode="&#xda;" horiz-adv-x="1337" d="M33 1599h588l-125 -235v-1051l32 -71h336l33 71v1057l-129 229h535l-127 -231v-1126l-121 -242h-774l-121 242v1124zM500 1655l260 327h270l-342 -327h-188z" />
<glyph unicode="&#xdb;" horiz-adv-x="1337" d="M33 1599h588l-125 -235v-1051l32 -71h336l33 71v1057l-129 229h535l-127 -231v-1126l-121 -242h-774l-121 242v1124zM330 1655l248 327h247l248 -327h-190l-181 200l-178 -200h-194z" />
<glyph unicode="&#xdc;" horiz-adv-x="1337" d="M33 1599h588l-125 -235v-1051l32 -71h336l33 71v1057l-129 229h535l-127 -231v-1126l-121 -242h-774l-121 242v1124zM338 1761v158l51 49h186l50 -49v-158l-43 -43h-201zM778 1761v158l49 49h187l51 -49v-158l-43 -43h-201z" />
<glyph unicode="&#xdd;" horiz-adv-x="1331" d="M12 1599h592l-51 -213l139 -292l137 290l-53 215h541l-215 -249l-264 -533v-579l127 -238h-588l127 231v584l-271 522zM496 1655l260 327h270l-342 -327h-188z" />
<glyph unicode="&#xde;" horiz-adv-x="1304" d="M78 0l127 231v1137l-127 231h577l-127 -235v-78h615l123 -242v-497l-123 -246h-615v-65l127 -236h-577zM528 545h387l33 71v351l-37 77h-383v-499z" />
<glyph unicode="&#xdf;" horiz-adv-x="1284" d="M53 0l117 207v1247l145 252h650l145 -252v-373l-76 -137l-86 -33l148 -28l114 -144v-575l-114 -164h-508v319l139 -94h170l29 41v443l-60 65h-229v223h145l43 74v289l-69 121h-232l-63 -115v-1366h-408z" />
<glyph unicode="&#xe0;" horiz-adv-x="1206" d="M68 211v258l118 209h588v63l-61 113h-387l-138 -94v319h725l144 -252v-618l117 -209h-383v84l-113 -84h-494zM289 1585h270l221 -389h-188zM356 297l50 -88h290l78 65v230h-371l-47 -88v-119z" />
<glyph unicode="&#xe1;" horiz-adv-x="1206" d="M68 211v258l118 209h588v63l-61 113h-387l-138 -94v319h725l144 -252v-618l117 -209h-383v84l-113 -84h-494zM356 297l50 -88h290l78 65v230h-371l-47 -88v-119zM410 1196l219 389h270l-303 -389h-186z" />
<glyph unicode="&#xe2;" horiz-adv-x="1206" d="M68 211v258l118 209h588v63l-61 113h-387l-138 -94v319h725l144 -252v-618l117 -209h-383v84l-113 -84h-494zM223 1196l248 389h248l248 -389h-191l-180 238l-182 -238h-191zM356 297l50 -88h290l78 65v230h-371l-47 -88v-119z" />
<glyph unicode="&#xe3;" horiz-adv-x="1206" d="M68 211v258l118 209h588v63l-61 113h-387l-138 -94v319h725l144 -252v-618l117 -209h-383v84l-113 -84h-494zM170 1337l154 166h172l276 -149l141 145l109 -139l-156 -168h-184l-264 149l-142 -145zM356 297l50 -88h290l78 65v230h-371l-47 -88v-119z" />
<glyph unicode="&#xe4;" horiz-adv-x="1206" d="M68 211v258l118 209h588v63l-61 113h-387l-138 -94v319h725l144 -252v-618l117 -209h-383v84l-113 -84h-494zM231 1294v174l52 50h184l51 -50v-174l-43 -43h-201zM356 297l50 -88h290l78 65v230h-371l-47 -88v-119zM672 1294v174l51 50h184l51 -50v-174l-43 -43h-200z " />
<glyph unicode="&#xe5;" horiz-adv-x="1206" d="M68 211v258l118 209h588v63l-61 113h-387l-138 -94v319h725l144 -252v-618l117 -209h-383v84l-113 -84h-494zM340 1262v213l78 110h354l76 -110v-213l-76 -111h-354zM356 297l50 -88h290l78 65v230h-371l-47 -88v-119zM504 1298l26 -41h129l27 41v138l-27 43h-129 l-26 -43v-138z" />
<glyph unicode="&#xe6;" horiz-adv-x="1806" d="M68 211v229l118 211h564v90l-74 113h-350l-138 -94v319h605l96 -118l102 118h604l144 -252v-352h-701v-137l62 -113h428l137 94v-319h-666l-131 133l-131 -133h-553zM356 297l50 -88h251l93 78v188h-347l-47 -86v-92zM1038 651h412v90l-61 113h-289l-62 -113v-90z" />
<glyph unicode="&#xe7;" horiz-adv-x="940" d="M76 250v577l143 252h668v-319l-137 94h-324l-59 -113v-403l59 -113h324l137 94v-319h-668zM467 -330h94l17 35v90l-91 152h158l133 -140v-176l-51 -106h-260v145z" />
<glyph unicode="&#xe8;" horiz-adv-x="1148" d="M76 250v577l143 252h719l143 -252v-362h-714v-127l59 -113h442l138 94v-319h-787zM297 1585h270l221 -389h-188zM367 641h424v100l-62 113h-303l-59 -113v-100z" />
<glyph unicode="&#xe9;" horiz-adv-x="1148" d="M76 250v577l143 252h719l143 -252v-362h-714v-127l59 -113h442l138 94v-319h-787zM367 641h424v100l-62 113h-303l-59 -113v-100zM418 1196l219 389h270l-303 -389h-186z" />
<glyph unicode="&#xea;" horiz-adv-x="1148" d="M76 250v577l143 252h719l143 -252v-362h-714v-127l59 -113h442l138 94v-319h-787zM231 1196l248 389h248l248 -389h-191l-180 238l-182 -238h-191zM367 641h424v100l-62 113h-303l-59 -113v-100z" />
<glyph unicode="&#xeb;" horiz-adv-x="1148" d="M76 250v577l143 252h719l143 -252v-362h-714v-127l59 -113h442l138 94v-319h-787zM240 1294v174l51 50h184l51 -50v-174l-43 -43h-200zM367 641h424v100l-62 113h-303l-59 -113v-100zM680 1294v174l51 50h184l52 -50v-174l-43 -43h-201z" />
<glyph unicode="&#xec;" horiz-adv-x="612" d="M-4 1585h270l221 -389h-188zM53 0l117 207v665l-117 207h408v-872l117 -207h-525z" />
<glyph unicode="&#xed;" horiz-adv-x="612" d="M53 0l117 207v665l-117 207h408v-872l117 -207h-525zM117 1196l219 389h270l-303 -389h-186z" />
<glyph unicode="&#xee;" horiz-adv-x="645" d="M-53 1196l248 389h247l248 -389h-190l-181 238l-182 -238h-190zM70 0l116 207v665l-116 207h407v-872l117 -207h-524z" />
<glyph unicode="&#xef;" horiz-adv-x="727" d="M0 1294v174l51 50h185l51 -50v-174l-43 -43h-201zM115 0l116 207v665l-116 207h407v-872l117 -207h-524zM440 1294v174l52 50h184l51 -50v-174l-43 -43h-201z" />
<glyph unicode="&#xf0;" horiz-adv-x="1243" d="M139 250v577l146 252h475l119 -86v398l-41 73h-297l-117 -202h-145l116 202h-157v244h299l69 121h146l-70 -121h365l120 -242v-1216l-143 -250h-739zM430 338l62 -113h327l60 113v432l-101 84h-286l-62 -113v-403z" />
<glyph unicode="&#xf1;" horiz-adv-x="1333" d="M53 0l117 207v665l-117 207h391v-86l115 86h479l144 -252v-618l116 -209h-524l119 209v532l-62 113h-292l-78 -70v-577l117 -207h-525zM250 1337l153 166h172l277 -149l141 145l109 -139l-156 -168h-184l-264 149l-142 -145z" />
<glyph unicode="&#xf2;" horiz-adv-x="1177" d="M76 250v577l143 252h739l146 -252v-577l-146 -250h-739zM287 1585h270l221 -389h-188zM367 338l57 -113h328l61 113v403l-61 113h-328l-57 -113v-403z" />
<glyph unicode="&#xf3;" horiz-adv-x="1177" d="M76 250v577l143 252h739l146 -252v-577l-146 -250h-739zM367 338l57 -113h328l61 113v403l-61 113h-328l-57 -113v-403zM408 1196l219 389h270l-303 -389h-186z" />
<glyph unicode="&#xf4;" horiz-adv-x="1177" d="M76 250v577l143 252h739l146 -252v-577l-146 -250h-739zM221 1196l248 389h248l248 -389h-191l-180 238l-182 -238h-191zM367 338l57 -113h328l61 113v403l-61 113h-328l-57 -113v-403z" />
<glyph unicode="&#xf5;" horiz-adv-x="1177" d="M76 250v577l143 252h739l146 -252v-577l-146 -250h-739zM168 1337l154 166h172l276 -149l141 145l109 -139l-156 -168h-184l-264 149l-142 -145zM367 338l57 -113h328l61 113v403l-61 113h-328l-57 -113v-403z" />
<glyph unicode="&#xf6;" horiz-adv-x="1177" d="M76 250v577l143 252h739l146 -252v-577l-146 -250h-739zM229 1294v174l52 50h184l51 -50v-174l-43 -43h-201zM367 338l57 -113h328l61 113v403l-61 113h-328l-57 -113v-403zM670 1294v174l51 50h184l51 -50v-174l-43 -43h-200z" />
<glyph unicode="&#xf7;" d="M70 719v162h929v-162h-929zM356 293v223l64 62h239l56 -54v-229l-58 -55h-247zM356 1075v223l64 62h239l56 -53v-230l-58 -55h-247z" />
<glyph unicode="&#xf8;" horiz-adv-x="1177" d="M55 -123l127 184l-106 189v577l143 252h664l84 123h155l-129 -186l111 -189v-577l-146 -250h-663l-84 -123h-156zM367 332l360 522h-303l-57 -113v-409zM451 225h301l61 113v414z" />
<glyph unicode="&#xf9;" horiz-adv-x="1312" d="M33 1079h524l-117 -211v-528l64 -115h291l77 66v581l-116 207h405v-868l119 -211h-391v84l-115 -84h-479l-145 250v622zM352 1585h271l221 -389h-189z" />
<glyph unicode="&#xfa;" horiz-adv-x="1312" d="M33 1079h524l-117 -211v-528l64 -115h291l77 66v581l-116 207h405v-868l119 -211h-391v84l-115 -84h-479l-145 250v622zM473 1196l219 389h271l-304 -389h-186z" />
<glyph unicode="&#xfb;" horiz-adv-x="1312" d="M33 1079h524l-117 -211v-528l64 -115h291l77 66v581l-116 207h405v-868l119 -211h-391v84l-115 -84h-479l-145 250v622zM287 1196l248 389h247l248 -389h-190l-181 238l-182 -238h-190z" />
<glyph unicode="&#xfc;" horiz-adv-x="1312" d="M33 1079h524l-117 -211v-528l64 -115h291l77 66v581l-116 207h405v-868l119 -211h-391v84l-115 -84h-479l-145 250v622zM295 1294v174l51 50h184l52 -50v-174l-43 -43h-201zM735 1294v174l51 50h185l51 -50v-174l-43 -43h-201z" />
<glyph unicode="&#xfd;" horiz-adv-x="1318" d="M10 1079h563l-94 -157l211 -555l219 555l-96 157h496l-148 -157l-471 -1147l-223 -250h-322v319l138 -94h100l111 119l43 108l-373 924zM522 1196l219 389h271l-303 -389h-187z" />
<glyph unicode="&#xfe;" horiz-adv-x="1249" d="M59 -475l117 207v1767l-117 207h408v-700l98 73h479l144 -252v-577l-144 -250h-479l-98 72v-344l113 -203h-521zM467 293l78 -68h293l59 113v403l-59 113h-293l-78 -70v-491z" />
<glyph unicode="&#xff;" horiz-adv-x="1318" d="M10 1079h563l-94 -157l211 -555l219 555l-96 157h496l-148 -157l-471 -1147l-223 -250h-322v319l138 -94h100l111 119l43 108l-373 924zM344 1294v174l51 50h185l51 -50v-174l-43 -43h-201zM784 1294v174l52 50h184l51 -50v-174l-43 -43h-201z" />
<glyph unicode="&#x152;" horiz-adv-x="1734" d="M88 242v1114l123 243h1462v-372l-223 129h-369l37 -70v-321h94l242 137v-516l-242 135h-94v-408l-39 -71h371l223 131v-373h-1462zM422 313l35 -71h327v1114h-325l-37 -74v-969z" />
<glyph unicode="&#x153;" horiz-adv-x="1843" d="M76 250v577l143 252h635l84 -145l82 145h612l144 -252v-362h-693v-127l62 -113h418l139 94v-319h-682l-82 143l-84 -143h-635zM367 338l57 -113h305l62 113v403l-62 113h-305l-57 -113v-403zM1083 641h404v100l-62 113h-280l-62 -113v-100z" />
<glyph unicode="&#x178;" horiz-adv-x="1331" d="M12 1599h592l-51 -213l139 -292l137 290l-53 215h541l-215 -249l-264 -533v-579l127 -238h-588l127 231v584l-271 522zM334 1761v158l51 49h186l50 -49v-158l-43 -43h-201zM774 1761v158l49 49h187l51 -49v-158l-43 -43h-201z" />
<glyph unicode="&#x2000;" horiz-adv-x="991" />
<glyph unicode="&#x2001;" horiz-adv-x="1982" />
<glyph unicode="&#x2002;" horiz-adv-x="991" />
<glyph unicode="&#x2003;" horiz-adv-x="1982" />
<glyph unicode="&#x2004;" horiz-adv-x="660" />
<glyph unicode="&#x2005;" horiz-adv-x="495" />
<glyph unicode="&#x2006;" horiz-adv-x="330" />
<glyph unicode="&#x2007;" horiz-adv-x="330" />
<glyph unicode="&#x2008;" horiz-adv-x="247" />
<glyph unicode="&#x2009;" horiz-adv-x="396" />
<glyph unicode="&#x200a;" horiz-adv-x="110" />
<glyph unicode="&#x2010;" horiz-adv-x="847" d="M49 705v180h752v-180h-752z" />
<glyph unicode="&#x2011;" horiz-adv-x="847" d="M49 705v180h752v-180h-752z" />
<glyph unicode="&#x2012;" horiz-adv-x="847" d="M49 705v180h752v-180h-752z" />
<glyph unicode="&#x2013;" horiz-adv-x="1060" d="M49 705v180h963v-180h-963z" />
<glyph unicode="&#x2014;" horiz-adv-x="1460" d="M49 705v180h1362v-180h-1362z" />
<glyph unicode="&#x2018;" horiz-adv-x="436" d="M45 1241v182l168 283h158l-105 -223h74l51 -51v-191l-59 -57h-226z" />
<glyph unicode="&#x2019;" horiz-adv-x="436" d="M45 1458v191l61 57h224l61 -57v-183l-166 -282h-159l106 223h-76z" />
<glyph unicode="&#x201a;" horiz-adv-x="436" d="M45 76v190l61 58h224l61 -58v-182l-166 -283h-159l106 224h-76z" />
<glyph unicode="&#x201c;" horiz-adv-x="866" d="M45 1241v182l168 283h158l-105 -223h74l51 -51v-191l-59 -57h-226zM475 1241v182l166 283h160l-107 -223h74l53 -51v-191l-61 -57h-223z" />
<glyph unicode="&#x201d;" horiz-adv-x="866" d="M45 1458v191l61 57h224l61 -57v-183l-166 -282h-159l106 223h-76zM475 1458v191l62 57h223l61 -57v-183l-166 -282h-159l106 223h-76z" />
<glyph unicode="&#x201e;" horiz-adv-x="866" d="M45 76v190l61 58h224l61 -58v-182l-166 -283h-159l106 224h-76zM475 76v190l62 58h223l61 -58v-182l-166 -283h-159l106 224h-76z" />
<glyph unicode="&#x2022;" horiz-adv-x="786" d="M59 588v436l95 102h481l94 -102v-436l-94 -96h-481z" />
<glyph unicode="&#x2026;" horiz-adv-x="1337" d="M45 49v217l61 58h224l61 -58v-217l-53 -49h-240zM496 49v217l61 58h223l62 -58v-217l-54 -49h-239zM944 49v217l62 58h223l61 -58v-217l-53 -49h-240z" />
<glyph unicode="&#x202f;" horiz-adv-x="396" />
<glyph unicode="&#x2039;" horiz-adv-x="507" d="M4 539l311 540h189l-219 -540l219 -539h-189z" />
<glyph unicode="&#x203a;" horiz-adv-x="507" d="M4 0l217 541l-217 538h186l314 -538l-314 -541h-186z" />
<glyph unicode="&#x205f;" horiz-adv-x="495" />
<glyph unicode="&#x20ac;" horiz-adv-x="1146" d="M31 543v194h121v119h-121v197h121v303l124 243h783v-372l-223 129h-314l-37 -80v-223h365v-197h-365v-119h365v-194h-365v-226l35 -75h340l225 131v-373h-809l-124 242v301h-121z" />
<glyph unicode="&#x2122;" horiz-adv-x="1464" d="M55 1343v256h547v-256l-117 64v70h-71v-557l63 -119h-299l66 119v557h-74v-70zM655 801l64 114v570l-64 114h289l111 -430l123 430h243l-63 -114v-574l61 -110h-262l66 119v340l-125 -459h-123l-123 469v-350l66 -119h-263z" />
<glyph unicode="&#x25fc;" horiz-adv-x="1075" d="M0 0v1075h1075v-1075h-1075z" />
</font>
</defs>
</svg>
